<svg id="Layer_1" data-name="Layer 1" xmlns="http://www.w3.org/2000/svg" xmlns:xlink="http://www.w3.org/1999/xlink" viewBox="0 0 170 330"><defs><style>.cls-1,.cls-3{fill:#c66;}.cls-2{font-size:60px;font-family:Roboto-Bold, Roboto;font-weight:700;}.cls-2,.cls-7{fill:#933;}.cls-3{font-size:18px;font-family:TrebuchetMS, Trebuchet MS;}.cls-4{letter-spacing:-0.04em;}.cls-5{clip-path:url(#clip-path);}.cls-6{fill:#fff;}</style><clipPath id="clip-path"><circle class="cls-1" cx="85" cy="86.04" r="84.47"/></clipPath></defs><text class="cls-2" transform="translate(18.26 231.18)">BIRD</text><text class="cls-3" transform="translate(22.22 256.69)">Biger <tspan x="0" y="21.6">Issues are </tspan><tspan class="cls-4" x="0" y="43.2">R</tspan><tspan x="9.75" y="43.2">eady for </tspan><tspan x="0" y="64.8">Dicovering.</tspan></text><circle class="cls-1" cx="85" cy="86.04" r="84.47"/><g class="cls-5"><path class="cls-1" d="M-14.67,202.86s25.74-43.84,32-47.11S34,137.88,35.22,136.62s3-21.39,3-21.39l1.89-6s.44-9.5.88-10.75a3.55,3.55,0,0,0,0-2.33l-.75,2.2s.69-7,.69-7.17-1.32,0-1.32,0l.82-3.15-2-1.07s1.07-4.21,1.77-4.27-1.2,0-1.2,0l1-2.71-.44-4.34.06-2.58L39.12,72l.13-12.46L43,50.12H42s.88-3.9,2.51-4.28,0-1.89,0-1.89l1.39-1.26s.12-5.15,1.26-4.46,1.19-.76,1.19-.76l8.49-11.13.76.75,2.45-2.51.57.69L63.16,23l1.07.51,4.34-3.4.81.63L74,19.42l1,.63,2.83-1.7.63.88,4.71-1.13.76-.51,1.45.38,2.39-.13L89,18.6,90.08,18l1,.82,2.76.19,2.46-.57.88,1.26h1.19l1.51,1.45,1.83.18,1.44,1.07,3,2.14,4.53,3.15,1.89,2.07.56-.62,1.07,1.51.88,1.63,3.15,2.45.25,1.51,3.9,5.23-.63,1.32s3.09,1.32,4.28,6,1.51,4.34,1.51,4.34L126.38,53l2.33,5.85-.88-1.19.88,4.72L127.26,60s3.21,6.86,2.77,7.81-1.95-3.21-1.95-3.21l.5,5-.94-.82,1.13,3L127.39,70l2.68,6.41,1.41,2.17h-1.95L143.18,112s6.67,16,10.95,22.46,22.7,68.38,22.7,68.38Z"/><path class="cls-6" d="M36.61,139.39c-.82,1.63,1.51-.44,1.76-.57,0,0-.94,2.33-.5,3,0,0,.22.6.78-1,0,0-1,3-.53,4.12,0,0,.09.41.53-.76,0,0-.38,1.64,0,2.14,0,0-.53,3.43-.16,4.31,0,0,5.13-7.77,7-8.41l1.7-.62h0l.31,3.43s.5.54,1.26-.82,1.51-1.07,1.51-1.07,2.14,9,7,10.64c0,0,5-9.72,6.13-9.72,0,0-2.76,5.75,3.46,11.35,0,0,2.39-4.28,3.49-3.9,0,0,1.48,4.85,2.71,5.7,0,0,7.74-15.23,9.59-15,0,0,9.5,13.81,11.17,14.5,0,0-6.51-26.2-4.37-27.77S92,131.21,92,131.21s1.53,1,3.16-4.09a.58.58,0,0,1,1-.26,35.09,35.09,0,0,0,3.9,3.31l1-.91s1.32,2.14,2.51,3.77l.51-.62s1.22,7.1,2,7.64c0,0,1.76-3.05,2.32-3.81a40.46,40.46,0,0,0,2.77,4.06c.38.19,2.9-13,3.75-12.8s13.68,16.2,13.87,16.29,4-21.29,4-21.29.1,5.09.5,5.47,3.53,5.32,3.56,6.07,1.32-5.6,1.32-5.6l4.47,11.73.85-2.42,2.42,4.44.69-1.83,5.16,4.16-.91-9.38,2,2.33-1.3-7.78c-3.9-7.39-8.17-17.67-8.17-17.67L129.53,78.58h1.95l-1.41-2.17L127.39,70l1.38,1.82-1.13-3,.94.82-.5-5s.33,1.12.77.18S127.26,60,127.26,60l1.45,2.4-.88-4.72.88,1.19L126.38,53l1,.06c-.11,0-.5-.56-1.47-4.34-1.19-4.65-4.28-6-4.28-6l.63-1.32-3.9-5.23-.25-1.51L115,32.25l-.88-1.63L113,29.11l-.56.62-1.89-2.07-4.53-3.15-3-2.14-1.44-1.07-1.83-.18-1.51-1.45H97.13l-.88-1.26L93.79,19,91,18.79l-1-.82L89,18.6l-1.13-.76L85.43,18,84,17.59l-.76.51-4.71,1.13-.63-.88-2.83,1.7-1-.63-4.66,1.32-.81-.63-4.34,3.4L63.16,23l-2.52,2.27-.57-.69-2.45,2.51-.76-.75L48.37,37.47s-.06,1.45-1.19.76-1.26,4.46-1.26,4.46L44.53,44s1.64,1.51,0,1.89S42,50.12,42,50.12H43l-3.71,9.43L39.12,72l.57,1.07-.06,2.58L40.07,80l-1,2.71s1.89-.07,1.2,0S38.49,87,38.49,87l2,1.07-.82,3.15S41,91,41,91.2s-.69,7.17-.69,7.17l.75-2.2a3.55,3.55,0,0,1,0,2.33c-.44,1.25-.88,10.75-.88,10.75l-1.89,6s-1.3,14.94-2.47,19.88l1.66-1.26S37.43,137.75,36.61,139.39Z"/><path class="cls-7" d="M102,47.54s4.22-1.51,4.53-2.71,4.23,4.42.82,10.7c-2.39,4.4-7.64.21-7.68-3.21C99.62,50.05,100.22,48.26,102,47.54Z"/><path class="cls-7" d="M65.67,47.54S61.46,46,61.15,44.83s-4.23,4.42-.82,10.7c2.39,4.4,7.64.21,7.67-3.21C68,50.05,67.42,48.26,65.67,47.54Z"/><path class="cls-1" d="M85.11,44.71s8.34,1.71,11.6,12c.61,1.6-1,5,11.4,5,1.15,0,4.09,2.93-1.84,4.87-2.25.71-6.45-2.75-10.89,6.74-1.47,2.3-4.26,2-5.25,5.47-1.07,3.67-.89,9.89-2.06,10.83,0,.7-1.81.73-1.83,0-1.25-.82-1.71-7-3.14-10.57-1.34-3.31-4.09-2.77-5.79-4.91-5.38-9-9.21-5.11-11.51-5.6C59.7,67.29,62.32,64,63.47,64c12.29-1.3,10.38-4.51,10.82-6.17,2.2-10.57,10.32-13.12,10.32-13.12Z"/><ellipse class="cls-6" cx="63.21" cy="51.05" rx="1.65" ry="2.37"/><ellipse class="cls-6" cx="81.02" cy="56.23" rx="1.8" ry="0.9" transform="translate(-4.81 104.8) rotate(-64.27)"/><ellipse class="cls-6" cx="89.89" cy="55.8" rx="0.9" ry="1.8" transform="translate(-15.91 54.75) rotate(-31.26)"/><ellipse class="cls-6" cx="103.41" cy="51.05" rx="1.65" ry="2.37"/></g></svg>