<svg id="Layer_1" data-name="Layer 1" xmlns="http://www.w3.org/2000/svg" viewBox="0 0 360 105"><defs><style>.cls-1{fill:#933;}.cls-2{fill:#c75169;}</style></defs><path class="cls-1" d="M115,2C99.45,2,86.87,10.41,86.87,20.78a14.68,14.68,0,0,0,4.62,10.31l-1.31,6.27L89,43.16a.59.59,0,0,0,.46.71.58.58,0,0,0,.39,0l6.8-3.33,5.9-2.89h0A39.85,39.85,0,0,0,115,39.55c15.51,0,28.08-8.41,28.08-18.77S130.47,2,115,2ZM115,33.93a2.39,2.39,0,1,1,2.39-2.38A2.39,2.39,0,0,1,115,33.93Zm3-23-.85,15.42a.6.6,0,0,1-.6.57h-3.48a.6.6,0,0,1-.6-.57l-.85-15.42a.6.6,0,0,1,.57-.63h5.22a.6.6,0,0,1,.6.6v0Z"/><path class="cls-2" d="M96.65,66.22c-1-1.61-2.71-4.25-3.58-5.44a2.56,2.56,0,0,1-.45-1.06C89.28,42.36,66.41,46.41,60.1,54c0,0-25.52-3.88-51.14-23.54a.64.64,0,0,0-1,.58c.74,6.86,4.69,35.22,19.13,45.22a1.5,1.5,0,0,1,.43,2c-1.52,2.44-6.85,8.34-25.57,19a.67.67,0,0,0-.25.91.69.69,0,0,0,.45.33C22,102.58,69.25,106,76.87,80c1.85-5.38,6.77-11.54,19.06-12.64C96.57,67.34,97,66.76,96.65,66.22Zm-11-5.9a3.54,3.54,0,1,1,3.54-3.54,3.53,3.53,0,0,1-3.54,3.54Zm2.61-3.54a2.61,2.61,0,1,1-5.22,0,2.37,2.37,0,0,1,.14-.83,1.18,1.18,0,1,0,1.63-1.64,2.62,2.62,0,0,1,3.32,1.63,2.69,2.69,0,0,1,.14.84Z"/><path class="cls-1" d="M166.54,27.06h23.69a68.53,68.53,0,0,1,10.5.59,14.9,14.9,0,0,1,10.74,7.4A13.43,13.43,0,0,1,213.29,42,14,14,0,0,1,205,54.84a15.65,15.65,0,0,1,8.34,5.38,14.31,14.31,0,0,1,2.91,8.94A17.68,17.68,0,0,1,214.32,77a15.92,15.92,0,0,1-5.14,6.1,16.9,16.9,0,0,1-8,2.81q-3,.33-14.43.41H166.54Zm12,9.87V50.64h7.84c4.67,0,7.56-.07,8.7-.2a7.9,7.9,0,0,0,4.83-2.13,6.26,6.26,0,0,0,1.76-4.63,6.53,6.53,0,0,0-1.52-4.47,6.87,6.87,0,0,0-4.51-2.08q-1.77-.2-10.23-.2Zm0,23.57V76.36h11.08A52.88,52.88,0,0,0,197.8,76a7.36,7.36,0,0,0,4.34-2.36,7.29,7.29,0,0,0,1.68-5,7.75,7.75,0,0,0-1.29-4.53,7.33,7.33,0,0,0-3.74-2.71c-1.63-.56-5.17-.85-10.62-.85Z"/><path class="cls-1" d="M225.94,86.35V27.06h12V86.35Z"/><path class="cls-1" d="M249.36,86.35V27.06h25.19q9.51,0,13.81,1.6a13.6,13.6,0,0,1,6.9,5.68,17.12,17.12,0,0,1,2.59,9.34,15.81,15.81,0,0,1-3.93,11Q290,59.05,282.2,60.18a28.14,28.14,0,0,1,6.41,5,67.73,67.73,0,0,1,6.81,9.62l7.24,11.57H288.34l-8.65-12.9a83.78,83.78,0,0,0-6.31-8.72,9.21,9.21,0,0,0-3.6-2.47,19.91,19.91,0,0,0-6-.66h-2.43V86.35Zm12-34.22h8.86q8.61,0,10.75-.72a6.47,6.47,0,0,0,3.36-2.51,7.72,7.72,0,0,0,1.21-4.45,7.12,7.12,0,0,0-1.59-4.83,7.37,7.37,0,0,0-4.51-2.33c-1-.13-3.89-.2-8.74-.2h-9.34Z"/><path class="cls-1" d="M309.09,27.06H331a43,43,0,0,1,11.28,1.13,19.92,19.92,0,0,1,8.94,5.46,25.89,25.89,0,0,1,5.66,9.61,43.88,43.88,0,0,1,1.94,14A39.06,39.06,0,0,1,357,69.89a26.12,26.12,0,0,1-6.35,10.47,21,21,0,0,1-8.41,4.73,36,36,0,0,1-10.59,1.26H309.09Zm12,10V76.36H330a32.48,32.48,0,0,0,7.24-.57,11.08,11.08,0,0,0,4.83-2.46,12.58,12.58,0,0,0,3.13-5.73,38.55,38.55,0,0,0,1.22-10.86,35.3,35.3,0,0,0-1.22-10.55,13.61,13.61,0,0,0-3.39-5.74,11.35,11.35,0,0,0-5.54-2.79,54,54,0,0,0-9.83-.57Z"/></svg>