<?xml version="1.0" encoding="utf-8"?>
<!-- Generator: Adobe Illustrator 25.2.1, SVG Export Plug-In . SVG Version: 6.00 Build 0)  -->
<svg version="1.1" id="Layer_1" xmlns="http://www.w3.org/2000/svg" xmlns:xlink="http://www.w3.org/1999/xlink" x="0px" y="0px"
	 viewBox="0 0 380 230" style="enable-background:new 0 0 380 230;" xml:space="preserve">
<style type="text/css">
	.st0{clip-path:url(#SVGID_2_);}
	.st1{fill:#FFFFFF;}
	.st2{clip-path:url(#SVGID_4_);}
	.st3{fill:#333333;}
	.st4{clip-path:url(#SVGID_6_);}
	.st5{clip-path:url(#SVGID_8_);}
	.st6{clip-path:url(#SVGID_10_);}
	.st7{fill:#CC6666;}
	.st8{fill:#993333;}
	.st9{clip-path:url(#SVGID_12_);}
	.st10{clip-path:url(#SVGID_14_);}
	.st11{clip-path:url(#SVGID_16_);}
	.st12{clip-path:url(#SVGID_18_);}
	.st13{clip-path:url(#SVGID_20_);}
	.st14{fill:#FF3300;}
	.st15{font-family:'Arial-BoldMT';}
	.st16{font-size:32.9784px;}
</style>
<g>
	<path class="st14" d="M375.36,5.58L216.66,75.28l-26.45,31.12l-28.13-31.54l-12.59-5.46L4.63,5.58l42.91,63.26l66.95,25.54
		L56.52,84.03l35.24,32.7l68.92-3.35l19.18,9.33c0.39,5.52-9.33,22.21-9.33,22.21c-3.81,5.52-9.2,9.98-17.34,15.77
		c-8.14,5.78-25.88,8.93-25.88,8.93l8.28,7.23c1.84,0.39,13-3.42,21.02-7.88c8.02-4.47,14.32-14.06,18.13-19.05
		c3.81-4.99,8.93-23.12,8.93-23.12s-1.58,8.93-1.84,11.43c-0.26,2.49-4.07,11.82-6.18,16.69c-2.1,4.86-8.54,12.74-12.88,17.47
		c-4.34,4.73-16.16,10.77-16.16,10.77l7.88,4.21c0,0,2.49-1.44,7.62-4.33c5.12-2.89,11.04-11.56,13.93-16.03
		c2.89-4.47,7.09-17.6,7.09-17.6c1.31-1.05,3.64-22.49,3.64-22.49c1.79,3.35-1.34,24.1-2.01,29.46c-0.67,5.36-4.69,12.5-5.13,15.85
		c-0.44,3.35-13.39,19.42-13.39,19.42l23.74,6.92l23.79-7.14c-5.36-3.35-12.05-18.08-13.39-19.64c-1.34-1.56-5.13-16.74-6.47-22.32
		c-1.34-5.58-0.75-22.99-0.75-22.99s1.19,17.05,7.84,34.96c6.65,17.91,24.38,25.75,24.38,25.75l8.02-3.92
		c-13.81-4.77-25.58-22.51-25.58-22.51c-6.82-7.33-11.67-33.8-11.67-33.8c11.85,48.28,49.02,49.96,49.02,49.96l7.56-7.14
		l-13.44-2.52c-36.95-15.95-39.05-44.51-39.05-44.51l19.31-10.08l68.02,4.2l35.27-33.17l-57.92,10.9l66.33-26.03L375.36,5.58z"/>
	<path class="st14" d="M182.13,54.83c0.86-8.04-6.67-15.23-6.67-15.23c-9.25,7.4-10.54,15.23-10.54,15.23
		C173.96,51.65,182.13,54.83,182.13,54.83z"/>
	<path class="st14" d="M183.8,55.64c17.24,8.32,15.52,25.54,15.52,25.54c32.6-19.6,4.48-37.16,4.48-37.16
		c6.72,1.02,9.66,6.45,9.66,6.45C200.35,24.5,177.4,38.11,177.4,38.11C184.45,45.7,183.8,55.64,183.8,55.64z M189.03,39.59
		c2.17,0,3.92,1.73,3.92,3.86c0,2.13-1.76,3.86-3.92,3.86s-3.92-1.73-3.92-3.86C185.11,41.32,186.86,39.59,189.03,39.59z"/>
	<ellipse class="st1" cx="189.03" cy="43.45" rx="3.92" ry="3.86"/>
	<path class="st14" d="M183.45,57.17c0,0-0.17,10.86-10.86,17.99c0,0,8.28,13.07,26.73,6.02C199.32,81.18,198.29,61.41,183.45,57.17
		z"/>
</g>
<text transform="matrix(1 0 0 1 152.5941 225.5429)" class="st14 st15 st16">BIRD</text>
</svg>
