<svg id="Layer_1" data-name="Layer 1" xmlns="http://www.w3.org/2000/svg" viewBox="0 0 200 200"><defs><style>.cls-1,.cls-3{fill:#933;}.cls-2{fill:#c75169;}.cls-3{font-size:54.38px;font-family:Arial-BoldMT, Arial;font-weight:700;}</style></defs><path class="cls-1" d="M159.5,1c-21.68,0-39.26,11.75-39.26,26.25,0,5.33,2.38,10.29,6.46,14.42l-1.84,8.77-1.71,8.11a.84.84,0,0,0,.65,1,.92.92,0,0,0,.54-.07l9.51-4.66,8.25-4h0a55.61,55.61,0,0,0,17.4,2.72c21.69,0,39.27-11.77,39.27-26.25S181.18,1,159.5,1Zm.11,44.64a3.34,3.34,0,1,1,3.33-3.35v0a3.34,3.34,0,0,1-3.34,3.32Zm4.26-32.14-1.2,21.57a.84.84,0,0,1-.84.79H157a.83.83,0,0,1-.83-.79l-1.2-21.57a.84.84,0,0,1,.79-.88H163a.84.84,0,0,1,.84.84v0Z"/><path class="cls-2" d="M133.9,90.79c-1.42-2.25-3.79-6-5-7.61a3.65,3.65,0,0,1-.64-1.47c-4.66-24.28-36.64-18.61-45.46-8,0,0-35.68-5.43-71.49-32.92a.9.9,0,0,0-1.45.82c1.05,9.59,6.56,49.23,26.74,63.22a2.12,2.12,0,0,1,.62,2.83c-2.13,3.42-9.58,11.66-35.75,26.57A.93.93,0,0,0,1.75,136c27.79,5.64,93.86,10.47,104.51-25.9,2.58-7.53,9.46-16.14,26.65-17.67C133.77,92.33,134.38,91.54,133.9,90.79Zm-15.39-8.25a5,5,0,1,1,4.95-5,5,5,0,0,1-4.95,5Zm3.66-5a3.66,3.66,0,0,1-7.32,0,3.72,3.72,0,0,1,.2-1.19,1.65,1.65,0,1,0,2.72-1.86,1.47,1.47,0,0,0-.43-.43A3.64,3.64,0,0,1,122,76.4,3.72,3.72,0,0,1,122.17,77.59Z"/><text class="cls-3" transform="translate(33.42 199.63)">BIRD</text></svg>