<svg id="Layer_1" data-name="Layer 1" xmlns="http://www.w3.org/2000/svg" viewBox="0 0 370 91.88"><defs><style>.cls-1,.cls-3,.cls-4{fill:#f30;}.cls-2{fill:#fff;}.cls-3{font-size:84px;font-family:Arial-BoldMT, Arial;font-weight:700;}.cls-4{font-size:10px;font-family:TrebuchetMS, Trebuchet MS;}.cls-5{letter-spacing:-0.04em;}</style></defs><path class="cls-1" d="M137.05,8.16,79.47,33.45,69.88,44.74,59.67,33.29l-4.57-2L2.56,8.16l15.56,23,24.29,9.27-21-3.76L34.16,48.48l25-1.21,7,3.38c.15,2-3.38,8.06-3.38,8.06-1.38,2-3.34,3.62-6.29,5.72s-9.39,3.24-9.39,3.24l3,2.62c.67.14,4.72-1.24,7.63-2.86s5.19-5.1,6.57-6.91,3.24-8.39,3.24-8.39-.57,3.24-.66,4.15a42.74,42.74,0,0,1-2.24,6,30.72,30.72,0,0,1-4.68,6.34c-1.57,1.71-5.86,3.91-5.86,3.91l2.86,1.52,2.77-1.57c1.85-1,4-4.19,5-5.82a41,41,0,0,0,2.57-6.38c.48-.38,1.32-8.16,1.32-8.16.65,1.21-.48,8.74-.73,10.69S66.2,67.39,66,68.61s-4.86,7-4.86,7l8.62,2.51,8.63-2.59c-2-1.21-4.38-6.56-4.86-7.12s-1.86-6.08-2.35-8.1S71,52,71,52A50.86,50.86,0,0,0,73.8,64.69c2.41,6.5,8.84,9.34,8.84,9.34l2.91-1.42c-5-1.73-9.28-8.17-9.28-8.17C73.8,61.78,72,52.18,72,52.18c4.3,17.52,17.78,18.13,17.78,18.13l2.74-2.59-4.87-.91C74.29,61,73.52,50.66,73.52,50.66l7-3.65,24.67,1.52,12.8-12-21,4L121.05,31Z"/><path class="cls-1" d="M67,26c.31-2.92-2.42-5.53-2.42-5.53C61.17,23.19,60.71,26,60.71,26A9.76,9.76,0,0,1,67,26Z"/><path class="cls-1" d="M67.55,26.32a9.64,9.64,0,0,1,5.63,9.27C85,28.48,74.81,22.11,74.81,22.11a5,5,0,0,1,3.5,2.33C73.56,15,65.23,20,65.23,20A9.28,9.28,0,0,1,67.55,26.32Zm1.9-5.82A1.4,1.4,0,1,1,68,21.9,1.41,1.41,0,0,1,69.45,20.5Z"/><ellipse class="cls-2" cx="69.45" cy="21.9" rx="1.42" ry="1.4"/><path class="cls-1" d="M67.43,26.88a8.63,8.63,0,0,1-3.94,6.52s3,4.74,9.69,2.18C73.18,35.59,72.81,28.42,67.43,26.88Z"/><text class="cls-3" transform="translate(155.57 72.09)">BIRD</text><text class="cls-4" transform="translate(160.7 86.01)">Biger Issues are <tspan class="cls-5" x="72.35" y="0">R</tspan><tspan x="77.76" y="0">eady for Dicovering.</tspan></text></svg>