<svg id="Layer_1" data-name="Layer 1" xmlns="http://www.w3.org/2000/svg" viewBox="0 0 360 105"><defs><style>.cls-1,.cls-2{fill:#333;}.cls-2{isolation:isolate;font-size:82.82px;font-family:Arial-BoldMT, Arial;font-weight:700;}</style></defs><path class="cls-1" d="M115,2C99.45,2,86.87,10.41,86.87,20.78a14.68,14.68,0,0,0,4.62,10.31l-1.31,6.27L89,43.16a.59.59,0,0,0,.46.71.58.58,0,0,0,.39,0l6.8-3.33,5.9-2.89h0A39.85,39.85,0,0,0,115,39.55c15.51,0,28.08-8.41,28.08-18.77S130.47,2,115,2ZM115,33.93a2.39,2.39,0,1,1,2.39-2.38A2.39,2.39,0,0,1,115,33.93Zm3-23-.85,15.42a.6.6,0,0,1-.6.57h-3.48a.6.6,0,0,1-.6-.57l-.85-15.42a.6.6,0,0,1,.57-.63h5.22a.6.6,0,0,1,.6.6v0Z"/><path class="cls-1" d="M96.65,66.22c-1-1.61-2.71-4.25-3.58-5.44a2.56,2.56,0,0,1-.45-1.06C89.28,42.36,66.41,46.41,60.1,54c0,0-25.52-3.88-51.14-23.54a.64.64,0,0,0-1,.58c.74,6.86,4.69,35.22,19.13,45.22a1.5,1.5,0,0,1,.43,2c-1.52,2.44-6.85,8.34-25.57,19a.67.67,0,0,0-.25.91.69.69,0,0,0,.45.33C22,102.58,69.25,106,76.87,80c1.85-5.38,6.77-11.54,19.06-12.64C96.57,67.34,97,66.76,96.65,66.22Zm-11-5.9a3.54,3.54,0,1,1,3.54-3.54,3.53,3.53,0,0,1-3.54,3.54Zm2.61-3.54a2.61,2.61,0,1,1-5.22,0,2.37,2.37,0,0,1,.14-.83,1.18,1.18,0,1,0,1.63-1.64,2.62,2.62,0,0,1,3.32,1.63,2.69,2.69,0,0,1,.14.84Z"/><text class="cls-2" transform="translate(160.47 86.35)">BIRD</text></svg>