<svg id="Layer_1" data-name="Layer 1" xmlns="http://www.w3.org/2000/svg" xmlns:xlink="http://www.w3.org/1999/xlink" viewBox="0 0 380 170"><defs><style>.cls-1,.cls-5,.cls-6{fill:#333;}.cls-2{fill:#c66;}.cls-3{clip-path:url(#clip-path);}.cls-4{fill:#fff;}.cls-5{font-size:84px;font-family:Roboto-Bold, Roboto;font-weight:700;}.cls-6{font-size:18px;font-family:TrebuchetMS, Trebuchet MS;}.cls-7{letter-spacing:-0.04em;}.cls-8{clip-path:url(#clip-path-2);}</style><clipPath id="clip-path"><circle class="cls-1" cx="85.97" cy="85" r="84.47"/></clipPath><clipPath id="clip-path-2"><circle class="cls-2" cx="85.97" cy="-99.85" r="84.47"/></clipPath></defs><circle class="cls-1" cx="85.97" cy="85" r="84.47"/><g class="cls-3"><path class="cls-1" d="M-13.71,201.82S12,158,18.32,154.71s16.61-17.87,17.87-19.13,3-21.39,3-21.39l1.89-6s.44-9.5.88-10.76a3.55,3.55,0,0,0,0-2.33l-.76,2.2s.69-7,.69-7.17-1.32,0-1.32,0L41.41,87,39.46,86s1.07-4.22,1.76-4.28-1.19,0-1.19,0L41,79l-.44-4.34L40.66,72,40.09,71l.13-12.45,3.71-9.44H43s.88-3.9,2.52-4.28,0-1.88,0-1.88l1.38-1.26s.13-5.16,1.26-4.47,1.2-.75,1.2-.75L57.83,25.3l.76.76L61,23.54l.57.69L64.12,22l1.07.5,4.34-3.4.82.63L75,18.38,76,19l2.83-1.7.63.88,4.72-1.13.76-.5,1.44.37,2.39-.12,1.14.75,1.13-.63.94.82,2.77.19,2.45-.57.88,1.26h1.2l1.51,1.45,1.82.19,1.45,1.07,3,2.14,4.53,3.14,1.88,2.08.57-.63,1.07,1.51.88,1.64,3.15,2.45.25,1.51,3.9,5.22-.63,1.32s3.08,1.32,4.28,6S128.42,52,128.42,52L127.35,52l2.32,5.85-.88-1.2.88,4.72L128.23,59s3.21,6.86,2.77,7.8-1.95-3.21-1.95-3.21l.5,5-.94-.81,1.13,3L128.35,69,131,75.38l1.4,2.16h-1.95L144.14,111s6.67,16,11,22.46,22.7,68.37,22.7,68.37Z"/><path class="cls-4" d="M37.57,138.35c-.81,1.64,1.51-.44,1.76-.56,0,0-.94,2.32-.5,3,0,0,.22.59.79-1,0,0-1,3-.54,4.12,0,0,.1.41.54-.75,0,0-.38,1.63,0,2.14,0,0-.54,3.42-.16,4.31,0,0,5.13-7.77,6.95-8.42,1.51-.53,1.69-.6,1.7-.61h0l.32,3.43s.5.53,1.25-.82,1.51-1.07,1.51-1.07,2.14,9,7,10.63c0,0,5-9.72,6.13-9.72,0,0-2.77,5.76,3.46,11.36,0,0,2.39-4.28,3.49-3.9,0,0,1.48,4.84,2.71,5.69,0,0,7.73-15.23,9.59-15,0,0,9.5,13.81,11.17,14.5,0,0-6.51-26.2-4.38-27.77S93,130.17,93,130.17s1.52,1,3.15-4.09a.6.6,0,0,1,1-.26,36.59,36.59,0,0,0,3.9,3.32l.94-.92s1.32,2.14,2.52,3.78l.5-.63s1.23,7.11,2,7.64c0,0,1.76-3,2.33-3.8a37.77,37.77,0,0,0,2.77,4c.38.19,2.89-13,3.74-12.8s13.68,16.2,13.87,16.3,4-21.3,4-21.3.09,5.1.5,5.47,3.52,5.32,3.55,6.08,1.33-5.6,1.33-5.6l4.46,11.73.85-2.42,2.42,4.43.7-1.82,5.15,4.15-.91-9.37,2,2.32-1.29-7.77c-3.9-7.4-8.18-17.67-8.18-17.67L130.49,77.54h1.95L131,75.38,128.35,69l1.39,1.83-1.13-3,.94.81-.5-5s.32,1.12.76.18S128.23,59,128.23,59l1.44,2.39-.88-4.72.88,1.2L127.35,52l1,.06c-.11-.06-.5-.57-1.47-4.34-1.2-4.66-4.28-6-4.28-6l.63-1.32-3.9-5.22-.25-1.51L116,31.22l-.88-1.64L114,28.07l-.57.63-1.88-2.08L107,23.48l-3-2.14-1.45-1.07-1.82-.19-1.51-1.45h-1.2l-.88-1.26-2.45.57L92,17.75l-.94-.82-1.13.63-1.14-.75-2.39.12L85,16.56l-.76.5-4.72,1.13-.63-.88L76,19l-1-.63L70.35,19.7l-.82-.63-4.34,3.4L64.12,22l-2.51,2.26L61,23.54l-2.45,2.52-.76-.76L49.34,36.44s-.07,1.44-1.2.75-1.26,4.47-1.26,4.47L45.5,42.92s1.64,1.51,0,1.88S43,49.08,43,49.08h1l-3.71,9.44L40.09,71,40.66,72l-.07,2.58L41,79l-1,2.71s1.88-.06,1.19,0S39.46,86,39.46,86L41.41,87l-.82,3.14s1.32-.19,1.32,0-.69,7.17-.69,7.17l.76-2.2a3.55,3.55,0,0,1,0,2.33c-.44,1.26-.88,10.76-.88,10.76l-1.89,6s-1.31,14.94-2.47,19.89l1.65-1.26S38.39,136.72,37.57,138.35Z"/><path class="cls-1" d="M102.94,46.5s4.21-1.51,4.53-2.7,4.23,4.41.82,10.69c-2.4,4.41-7.65.21-7.68-3.21C100.59,49,101.19,47.22,102.94,46.5Z"/><path class="cls-1" d="M66.64,46.5S62.43,45,62.11,43.8s-4.23,4.41-.82,10.69c2.39,4.41,7.65.21,7.68-3.21C69,49,68.39,47.22,66.64,46.5Z"/><path class="cls-1" d="M86.08,43.67s8.33,1.71,11.6,12c.61,1.6-1,5,11.39,5,1.16,0,4.1,2.93-1.84,4.87-2.24.72-6.44-2.75-10.88,6.74-1.47,2.3-4.26,2-5.26,5.47-1.06,3.68-.88,9.9-2,10.84,0,.69-1.82.72-1.83,0-1.26-.81-1.71-7-3.15-10.57-1.33-3.31-4.08-2.76-5.78-4.9-5.39-9-9.21-5.12-11.52-5.6-6.1-1.32-3.48-4.57-2.32-4.66,12.28-1.3,10.38-4.51,10.82-6.16,2.2-10.57,10.31-13.12,10.31-13.12Z"/><ellipse class="cls-4" cx="64.17" cy="50.01" rx="1.65" ry="2.37"/><ellipse class="cls-4" cx="81.98" cy="55.19" rx="1.8" ry="0.9" transform="translate(-3.33 105.08) rotate(-64.27)"/><ellipse class="cls-4" cx="90.86" cy="54.77" rx="0.9" ry="1.8" transform="translate(-15.23 55.1) rotate(-31.26)"/><ellipse class="cls-4" cx="104.38" cy="50.01" rx="1.65" ry="2.37"/></g><text class="cls-5" transform="translate(190.92 93.07)">BIRD</text><text class="cls-6" transform="translate(194.45 125.13)">Biger Issues are <tspan class="cls-7" x="130.23" y="0">R</tspan><tspan x="139.97" y="0">eady </tspan><tspan x="0" y="21.6">for Dicovering.</tspan></text><circle class="cls-2" cx="85.97" cy="-99.85" r="84.47"/><g class="cls-8"><path class="cls-2" d="M-13.71,16S12-26.87,18.32-30.14,34.93-48,36.19-49.27s3-21.39,3-21.39l1.89-6s.44-9.5.88-10.76a3.55,3.55,0,0,0,0-2.33l-.76,2.2s.69-7,.69-7.17-1.32,0-1.32,0l.82-3.14L39.46-98.9s1.07-4.22,1.76-4.28-1.19,0-1.19,0l1-2.71-.44-4.34.07-2.58-.57-1.07.13-12.45,3.71-9.44H43s.88-3.9,2.52-4.28,0-1.88,0-1.88l1.38-1.26s.13-5.16,1.26-4.47,1.2-.75,1.2-.75l8.49-11.14.76.76L61-161.31l.57.69,2.51-2.26,1.07.5,4.34-3.4.82.63L75-166.47l1,.63,2.83-1.7.63.88,4.72-1.13.76-.5,1.44.37,2.39-.12,1.14.75,1.13-.63.94.82,2.77.19,2.45-.57.88,1.26h1.2l1.51,1.45,1.82.19,1.45,1.07,3,2.14,4.53,3.14,1.88,2.08.57-.63,1.07,1.51.88,1.63,3.15,2.46.25,1.51,3.9,5.22-.63,1.32s3.08,1.32,4.28,6,1.51,4.34,1.51,4.34l-1.07-.07,2.32,5.86-.88-1.2.88,4.72-1.44-2.39s3.21,6.86,2.77,7.8-1.95-3.21-1.95-3.21l.5,5-.94-.81,1.13,3-1.39-1.83,2.69,6.42,1.4,2.16h-1.95l13.65,33.45s6.67,16,11,22.45S177.79,16,177.79,16Z"/></g></svg>