<svg id="Layer_1" data-name="Layer 1" xmlns="http://www.w3.org/2000/svg" viewBox="0 0 309.57 75"><defs><style>.cls-1{fill:#c4c4c4;}.cls-2{fill:none;stroke:#fff;stroke-linecap:round;stroke-linejoin:round;stroke-width:5.59px;}.cls-3{fill:#fff;}</style></defs><path class="cls-1" d="M151.21,375a16,16,0,0,1,16-16H444.83a16,16,0,0,1,16,16V418a16,16,0,0,1-16,16H167.17a16,16,0,0,1-16-16Z" transform="translate(-151.21 -359)"/><path class="cls-2" d="M425.68,381.34l12.42,9.25a8,8,0,0,1,.2,12.65l-12.62,10" transform="translate(-151.21 -359)"/><path class="cls-2" d="M409.72,381.34l11.7,9.43a8,8,0,0,1,.19,12.26l-11.89,10.23" transform="translate(-151.21 -359)"/><path class="cls-2" d="M392.17,381.34l12.42,9.25a8,8,0,0,1,.2,12.65l-12.62,10" transform="translate(-151.21 -359)"/><path class="cls-3" d="M198.26,408.13q-10.6,0-10.6-11.33,0-5.69,2.78-8.49c1.85-1.9,4.45-2.84,7.82-2.84a12.27,12.27,0,0,1,5,1,7.47,7.47,0,0,1,3.51,2.87,8,8,0,0,1,1.31,4.69H203.3a4.25,4.25,0,0,0-1.37-3.35,5.14,5.14,0,0,0-3.58-1.25,5.46,5.46,0,0,0-4.47,1.79,7.91,7.91,0,0,0-1.46,5.14v1q0,6.92,5.93,6.92a5.37,5.37,0,0,0,3.7-1.21,4.19,4.19,0,0,0,1.41-3.35h4.59a8.31,8.31,0,0,1-1.27,4.72,7.87,7.87,0,0,1-3.48,2.84A12.87,12.87,0,0,1,198.26,408.13Zm17.22,0a6.63,6.63,0,0,1-3.58-1c-1.08-.68-1.62-1.92-1.62-3.71a4.7,4.7,0,0,1,2.65-4.56,16.64,16.64,0,0,1,7.5-1.37v-1.18a2.63,2.63,0,0,0-.51-1.73,2.3,2.3,0,0,0-1.86-.6,3.84,3.84,0,0,0-2.1.44,1.29,1.29,0,0,0-.61,1.06v.48h-4.21a5.56,5.56,0,0,1,0-.71,3.91,3.91,0,0,1,1.85-3.38,8.71,8.71,0,0,1,5-1.28,7.92,7.92,0,0,1,5.14,1.41,4.94,4.94,0,0,1,1.72,4v7.41a1.07,1.07,0,0,0,.32.86,1.23,1.23,0,0,0,.8.25h.89v3.07a5.6,5.6,0,0,1-2.52.51,3.92,3.92,0,0,1-2.2-.58,2.9,2.9,0,0,1-1.19-1.62h-.19a6.52,6.52,0,0,1-2.13,1.66A7.53,7.53,0,0,1,215.48,408.13Zm1.37-3.45a3.34,3.34,0,0,0,2.71-1,4.22,4.22,0,0,0,.87-2.78v-.51q-5.72,0-5.72,2.56a1.66,1.66,0,0,0,.51,1.27A2.42,2.42,0,0,0,216.85,404.68ZM229.35,391h3.74l.31,2.2h.23a6.38,6.38,0,0,1,5.23-2.59,5.62,5.62,0,0,1,4.06,1.41q1.5,1.39,1.5,4.5v11.26H240V397.4a2.55,2.55,0,0,0-2.9-3,3.24,3.24,0,0,0-2.46,1.05,3.58,3.58,0,0,0-1,2.55v9.7h-4.37Zm23.37,17.17a6.59,6.59,0,0,1-3.57-1c-1.09-.68-1.63-1.92-1.63-3.71a4.7,4.7,0,0,1,2.65-4.56,16.7,16.7,0,0,1,7.5-1.37v-1.18a2.63,2.63,0,0,0-.51-1.73,2.29,2.29,0,0,0-1.85-.6,3.88,3.88,0,0,0-2.11.44,1.3,1.3,0,0,0-.6,1.06v.48h-4.22a5.56,5.56,0,0,1,0-.71,3.94,3.94,0,0,1,1.85-3.38,8.76,8.76,0,0,1,5-1.28,7.9,7.9,0,0,1,5.14,1.41,4.91,4.91,0,0,1,1.72,4v7.41a1.11,1.11,0,0,0,.32.86,1.23,1.23,0,0,0,.8.25h.89v3.07a5.6,5.6,0,0,1-2.52.51,3.94,3.94,0,0,1-2.2-.58,2.88,2.88,0,0,1-1.18-1.62H258a6.55,6.55,0,0,1-2.14,1.66A7.53,7.53,0,0,1,252.72,408.13Zm1.38-3.45a3.35,3.35,0,0,0,2.71-1,4.28,4.28,0,0,0,.86-2.78v-.51q-5.72,0-5.71,2.56a1.66,1.66,0,0,0,.51,1.27A2.39,2.39,0,0,0,254.1,404.68Zm18.11,3.45a6,6,0,0,1-4.94-2.17q-1.75-2.2-1.76-6.64c0-2.89.59-5.08,1.76-6.54a5.77,5.77,0,0,1,4.72-2.21,6.91,6.91,0,0,1,3,.61,4.86,4.86,0,0,1,2,1.72h.19v-8.23h4.37v23.07h-3.73l-.29-2.2h-.22a5.29,5.29,0,0,1-2.14,1.95A6.88,6.88,0,0,1,272.21,408.13Zm1.41-3.8q3.57,0,3.57-4.69v-.51q0-4.75-3.57-4.76a3.17,3.17,0,0,0-2.78,1.18,6.06,6.06,0,0,0-.83,3.51v.58a6.21,6.21,0,0,0,.83,3.54A3.18,3.18,0,0,0,273.62,404.33Zm16.35,3.8a6.63,6.63,0,0,1-3.58-1c-1.08-.68-1.62-1.92-1.62-3.71a4.71,4.71,0,0,1,2.64-4.56,16.7,16.7,0,0,1,7.5-1.37v-1.18a2.63,2.63,0,0,0-.51-1.73,2.28,2.28,0,0,0-1.85-.6,3.82,3.82,0,0,0-2.1.44,1.29,1.29,0,0,0-.61,1.06v.48h-4.21a5.56,5.56,0,0,1,0-.71,3.91,3.91,0,0,1,1.85-3.38,8.71,8.71,0,0,1,5-1.28,7.87,7.87,0,0,1,5.13,1.41,4.92,4.92,0,0,1,1.73,4v7.41a1.07,1.07,0,0,0,.32.86,1.21,1.21,0,0,0,.79.25h.9v3.07a5.6,5.6,0,0,1-2.52.51,4,4,0,0,1-2.21-.58,2.93,2.93,0,0,1-1.18-1.62h-.19a6.55,6.55,0,0,1-2.14,1.66A7.48,7.48,0,0,1,290,408.13Zm1.37-3.45a3.35,3.35,0,0,0,2.71-1,4.22,4.22,0,0,0,.86-2.78v-.51c-3.8,0-5.71.85-5.71,2.56a1.66,1.66,0,0,0,.51,1.27A2.4,2.4,0,0,0,291.34,404.68Zm12.5-20h4.37v8.23h.23a6.07,6.07,0,0,1,4.91-2.33,5.59,5.59,0,0,1,4,1.41q1.5,1.39,1.5,4.5v11.26h-4.37V397.4a2.55,2.55,0,0,0-2.9-3,3.24,3.24,0,0,0-2.46,1.05,3.58,3.58,0,0,0-1,2.55v9.7h-4.37Zm26.44,23.46c-2.71,0-4.73-.72-6.07-2.14s-2-3.64-2-6.64.66-5.21,2-6.64,3.36-2.14,6.07-2.14a6.94,6.94,0,0,1,5.58,2.17c1.24,1.43,1.85,3.63,1.85,6.61v1h-11a5.72,5.72,0,0,0,.89,3.32,3.35,3.35,0,0,0,2.78,1.05,3.1,3.1,0,0,0,2.2-.76,2.74,2.74,0,0,0,.86-2.17h4.31a5.66,5.66,0,0,1-2,4.75A8.59,8.59,0,0,1,330.28,408.13Zm2.9-10.66q0-3.48-2.9-3.48a3.42,3.42,0,0,0-2.52.86,4.36,4.36,0,0,0-1,2.62Zm7.9-12.8h4.38v23.07h-4.38ZM350,391h3.73l.29,2.2h.22a5.09,5.09,0,0,1,2.14-1.92,6.61,6.61,0,0,1,3-.67,5.94,5.94,0,0,1,4.94,2.21c1.18,1.44,1.76,3.65,1.76,6.6s-.59,5.08-1.79,6.55a5.71,5.71,0,0,1-4.69,2.2,7,7,0,0,1-3-.61,4.83,4.83,0,0,1-2-1.72h-.19v7.47H350Zm7.94,13.37a3.18,3.18,0,0,0,2.78-1.15,6.21,6.21,0,0,0,.83-3.54v-.58a6.06,6.06,0,0,0-.83-3.51,3.17,3.17,0,0,0-2.78-1.18c-2.38,0-3.57,1.57-3.57,4.69v.51Q354.34,404.33,357.91,404.33Z" transform="translate(-151.21 -359)"/></svg>