<svg id="Layer_1" data-name="Layer 1" xmlns="http://www.w3.org/2000/svg" xmlns:xlink="http://www.w3.org/1999/xlink" viewBox="0 0 503 971"><defs><style>.cls-1{fill:none;}.cls-2{clip-path:url(#clip-path);}.cls-3{fill:#fff;}.cls-4{fill:#545454;}.cls-5{fill:#e95719;}.cls-6{fill:#c4c4c4;}.cls-7{clip-path:url(#clip-path-2);}.cls-8{fill:#933;}.cls-9{fill:#c75169;}</style><clipPath id="clip-path" transform="translate(89.5 74.77)"><rect class="cls-1" x="-0.5" y="0.23" width="414" height="896"/></clipPath><clipPath id="clip-path-2" transform="translate(89.5 74.77)"><rect class="cls-1" x="-89.5" y="-74.77" width="277" height="229"/></clipPath></defs><g class="cls-2"><rect class="cls-3" x="89" y="75" width="414" height="896"/><rect class="cls-3" x="89" y="75" width="414" height="896"/><path class="cls-4" d="M37.77,463.23V449h5a6.49,6.49,0,0,1,3.93,1,3.37,3.37,0,0,1,1.33,2.9,3.26,3.26,0,0,1-.53,1.84,3.14,3.14,0,0,1-1.5,1.17A3,3,0,0,1,47.7,457a3.26,3.26,0,0,1,.64,2A3.77,3.77,0,0,1,47,462.16a5.91,5.91,0,0,1-3.73,1.07ZM40.7,457v3.84h2.51a2.38,2.38,0,0,0,1.61-.49,1.71,1.71,0,0,0,.59-1.37,1.79,1.79,0,0,0-2-2Zm0-2.07h2.17c1.48,0,2.21-.62,2.21-1.77a1.6,1.6,0,0,0-.56-1.38,2.88,2.88,0,0,0-1.77-.43h-2Zm14.64,8.26H52.5V452.67h2.84Zm-3-13.3a1.39,1.39,0,0,1,.42-1,1.83,1.83,0,0,1,2.31,0,1.36,1.36,0,0,1,.43,1,1.37,1.37,0,0,1-.44,1.06,1.58,1.58,0,0,1-1.14.41,1.62,1.62,0,0,1-1.15-.41A1.4,1.4,0,0,1,52.34,449.93Zm6.92,7.94A6.21,6.21,0,0,1,60.41,454a3.77,3.77,0,0,1,3.13-1.48,3.28,3.28,0,0,1,2.7,1.19l.12-1h2.56v10.21a4.43,4.43,0,0,1-.64,2.41,3.88,3.88,0,0,1-1.76,1.56,6.25,6.25,0,0,1-2.68.54,5.67,5.67,0,0,1-2.27-.47,4,4,0,0,1-1.67-1.19L61.15,464a3.31,3.31,0,0,0,2.56,1.18,2.43,2.43,0,0,0,1.75-.6,2.23,2.23,0,0,0,.63-1.7v-.57a3.27,3.27,0,0,1-2.57,1.11,3.77,3.77,0,0,1-3.09-1.49A6.21,6.21,0,0,1,59.26,458Zm2.82.21a3.83,3.83,0,0,0,.58,2.25,1.83,1.83,0,0,0,1.58.81,2,2,0,0,0,1.85-1v-4.44a2,2,0,0,0-1.83-1,1.86,1.86,0,0,0-1.6.83A4.34,4.34,0,0,0,62.08,458.08Zm21.3,5.15H80.45V449h2.93Zm10.26-2.92a.9.9,0,0,0-.52-.81,5.74,5.74,0,0,0-1.64-.54q-3.77-.78-3.77-3.2a2.89,2.89,0,0,1,1.16-2.34,4.72,4.72,0,0,1,3.06-.95,5,5,0,0,1,3.21.95,3,3,0,0,1,1.21,2.46H93.53a1.35,1.35,0,0,0-.39-1,1.63,1.63,0,0,0-1.22-.4,1.7,1.7,0,0,0-1.1.32,1,1,0,0,0-.39.82.88.88,0,0,0,.44.77,4.89,4.89,0,0,0,1.5.49,13.6,13.6,0,0,1,1.78.47,2.92,2.92,0,0,1,2.23,2.84,2.76,2.76,0,0,1-1.24,2.35,5.36,5.36,0,0,1-3.2.89,5.68,5.68,0,0,1-2.36-.47,4,4,0,0,1-1.62-1.3,3,3,0,0,1-.58-1.79h2.67a1.49,1.49,0,0,0,.56,1.15,2.21,2.21,0,0,0,1.39.4,2.05,2.05,0,0,0,1.22-.3A1,1,0,0,0,93.64,460.31Zm12.29,0a.9.9,0,0,0-.52-.81,5.63,5.63,0,0,0-1.64-.54q-3.76-.78-3.77-3.2a2.87,2.87,0,0,1,1.17-2.34,4.71,4.71,0,0,1,3-.95,5.08,5.08,0,0,1,3.22.95,3,3,0,0,1,1.21,2.46h-2.83a1.35,1.35,0,0,0-.39-1,1.62,1.62,0,0,0-1.22-.4,1.72,1.72,0,0,0-1.1.32,1,1,0,0,0-.39.82.88.88,0,0,0,.44.77,5,5,0,0,0,1.5.49,13.19,13.19,0,0,1,1.78.47,2.93,2.93,0,0,1,2.24,2.84,2.79,2.79,0,0,1-1.24,2.35,5.42,5.42,0,0,1-3.21.89,5.71,5.71,0,0,1-2.36-.47,4,4,0,0,1-1.61-1.3,3,3,0,0,1-.59-1.79h2.68a1.45,1.45,0,0,0,.55,1.15,2.21,2.21,0,0,0,1.39.4,2.05,2.05,0,0,0,1.22-.3A1,1,0,0,0,105.93,460.31Zm12.9,1.85a3.56,3.56,0,0,1-2.89,1.27,3.37,3.37,0,0,1-2.6-1,4.22,4.22,0,0,1-.91-2.86v-6.92h2.83v6.82q0,1.65,1.5,1.65a2,2,0,0,0,2-1v-7.48h2.83v10.56h-2.65Zm11.73,1.27a5.2,5.2,0,0,1-3.79-1.43,5.09,5.09,0,0,1-1.46-3.8v-.27a6.34,6.34,0,0,1,.62-2.84,4.5,4.5,0,0,1,1.74-1.94,4.91,4.91,0,0,1,2.57-.68,4.36,4.36,0,0,1,3.41,1.37,5.49,5.49,0,0,1,1.25,3.87v1.16h-6.73a2.66,2.66,0,0,0,.82,1.66,2.56,2.56,0,0,0,1.75.62,3,3,0,0,0,2.55-1.18l1.39,1.55a4.29,4.29,0,0,1-1.72,1.41A5.69,5.69,0,0,1,130.56,463.43Zm-.33-8.68a1.76,1.76,0,0,0-1.36.57,3,3,0,0,0-.67,1.62h3.93v-.22a2,2,0,0,0-.51-1.45A1.83,1.83,0,0,0,130.23,454.75Zm14,5.56a.92.92,0,0,0-.52-.81,5.85,5.85,0,0,0-1.64-.54q-3.77-.78-3.77-3.2a2.89,2.89,0,0,1,1.16-2.34,4.72,4.72,0,0,1,3.06-.95,5,5,0,0,1,3.21.95,3,3,0,0,1,1.21,2.46h-2.82a1.35,1.35,0,0,0-.39-1,1.63,1.63,0,0,0-1.22-.4,1.73,1.73,0,0,0-1.11.32,1,1,0,0,0-.39.82.9.9,0,0,0,.44.77,5,5,0,0,0,1.51.49,13,13,0,0,1,1.77.47,2.92,2.92,0,0,1,2.24,2.84,2.76,2.76,0,0,1-1.24,2.35,5.38,5.38,0,0,1-3.2.89,5.73,5.73,0,0,1-2.37-.47,4,4,0,0,1-1.61-1.3,3,3,0,0,1-.58-1.79h2.67a1.46,1.46,0,0,0,.56,1.15,2.19,2.19,0,0,0,1.39.4,2.07,2.07,0,0,0,1.22-.3A1,1,0,0,0,144.24,460.31Zm19-2.28H160.9v5.2H158V449h5.29a5.94,5.94,0,0,1,3.88,1.13,3.86,3.86,0,0,1,1.37,3.17,4.39,4.39,0,0,1-.63,2.43,4.26,4.26,0,0,1-1.91,1.54l3.08,5.81v.14H165.9Zm-2.34-2.38h2.37a2.46,2.46,0,0,0,1.71-.55,2,2,0,0,0,.6-1.56A2.12,2.12,0,0,0,165,452a2.35,2.35,0,0,0-1.74-.57H160.9Zm16.52,7.78a5.22,5.22,0,0,1-3.79-1.43,5.08,5.08,0,0,1-1.45-3.8v-.27a6.34,6.34,0,0,1,.61-2.84,4.63,4.63,0,0,1,1.74-1.94,5,5,0,0,1,2.58-.68,4.38,4.38,0,0,1,3.41,1.37,5.54,5.54,0,0,1,1.25,3.87v1.16H175a2.66,2.66,0,0,0,.82,1.66,2.55,2.55,0,0,0,1.75.62,3,3,0,0,0,2.55-1.18l1.38,1.55a4.25,4.25,0,0,1-1.71,1.41A5.77,5.77,0,0,1,177.42,463.43Zm-.32-8.68a1.8,1.8,0,0,0-1.37.57,3,3,0,0,0-.66,1.62H179v-.22a2.13,2.13,0,0,0-.51-1.45A1.85,1.85,0,0,0,177.1,454.75Zm14.4,8.48a3.15,3.15,0,0,1-.28-1,3.39,3.39,0,0,1-2.67,1.15,3.75,3.75,0,0,1-2.57-.9,2.9,2.9,0,0,1-1-2.27,3,3,0,0,1,1.24-2.58,6.21,6.21,0,0,1,3.6-.9h1.3v-.61a1.68,1.68,0,0,0-.38-1.17,1.46,1.46,0,0,0-1.18-.44,1.68,1.68,0,0,0-1.12.34,1.16,1.16,0,0,0-.4.94H185.2a2.82,2.82,0,0,1,.56-1.7,3.7,3.7,0,0,1,1.6-1.22,5.8,5.8,0,0,1,2.33-.45,4.55,4.55,0,0,1,3.09,1,3.41,3.41,0,0,1,1.16,2.75v4.58a5.07,5.07,0,0,0,.41,2.28v.16Zm-2.33-2a2.47,2.47,0,0,0,1.15-.27,1.85,1.85,0,0,0,.78-.76v-1.81h-1c-1.41,0-2.17.49-2.26,1.46v.17a1.16,1.16,0,0,0,.37.87A1.49,1.49,0,0,0,189.17,461.27Zm8.49-3.4a6.38,6.38,0,0,1,1.11-3.94,3.61,3.61,0,0,1,3-1.46,3.23,3.23,0,0,1,2.55,1.15v-5.39h2.84v15h-2.55l-.14-1.12a3.32,3.32,0,0,1-2.71,1.32,3.59,3.59,0,0,1-3-1.47A6.61,6.61,0,0,1,197.66,457.87Zm2.83.21a4.22,4.22,0,0,0,.51,2.27,1.69,1.69,0,0,0,1.51.79,1.89,1.89,0,0,0,1.84-1.1v-4.17a1.86,1.86,0,0,0-1.82-1.11C201.17,454.76,200.49,455.87,200.49,458.08Zm14.83,1.16,2-6.57h3l-4.25,12.2-.23.56a3.24,3.24,0,0,1-3.13,2.07,4.27,4.27,0,0,1-1.25-.19v-2.14h.43a2.33,2.33,0,0,0,1.19-.24,1.56,1.56,0,0,0,.63-.81l.33-.87-3.7-10.59h3Zm15.84,4v-8.49h-1.57v-2.07h1.57v-.9a3.64,3.64,0,0,1,1-2.76,4,4,0,0,1,2.86-1,6.63,6.63,0,0,1,1.44.19l0,2.19a3.55,3.55,0,0,0-.86-.09q-1.59,0-1.59,1.5v.85h2.1v2.07H234v8.49Zm8-5.38a6.17,6.17,0,0,1,.61-2.8,4.45,4.45,0,0,1,1.73-1.91,5.14,5.14,0,0,1,2.65-.67,4.81,4.81,0,0,1,3.49,1.31,5.24,5.24,0,0,1,1.51,3.55l0,.73a5.5,5.5,0,0,1-1.36,3.9,5.25,5.25,0,0,1-7.29,0,5.59,5.59,0,0,1-1.36-4Zm2.82.21a3.92,3.92,0,0,0,.57,2.3,2,2,0,0,0,3.22,0,4.3,4.3,0,0,0,.58-2.52,3.84,3.84,0,0,0-.58-2.28,1.87,1.87,0,0,0-1.62-.82,1.85,1.85,0,0,0-1.6.82A4.32,4.32,0,0,0,241.94,458.06Zm16.87-2.75a8.26,8.26,0,0,0-1-.08,2.06,2.06,0,0,0-2.1,1.09v6.91h-2.82V452.67h2.67l.07,1.25a2.62,2.62,0,0,1,2.36-1.45,2.84,2.84,0,0,1,.88.13Zm10.53,7.92V449h4.37a6.65,6.65,0,0,1,3.35.85,5.84,5.84,0,0,1,2.32,2.4,7.46,7.46,0,0,1,.83,3.54v.65a7.36,7.36,0,0,1-.82,3.53,5.76,5.76,0,0,1-2.3,2.39,6.68,6.68,0,0,1-3.35.86Zm2.93-11.84v9.49h1.42a3.17,3.17,0,0,0,2.62-1.13,5,5,0,0,0,.93-3.21v-.75a5.11,5.11,0,0,0-.9-3.28,3.16,3.16,0,0,0-2.63-1.12Zm14.87,11.84h-2.83V452.67h2.83Zm-3-13.3a1.39,1.39,0,0,1,.42-1,1.61,1.61,0,0,1,1.17-.41,1.57,1.57,0,0,1,1.15.41,1.39,1.39,0,0,1,.43,1,1.41,1.41,0,0,1-.44,1.06,1.61,1.61,0,0,1-1.14.41,1.64,1.64,0,0,1-1.16-.41A1.44,1.44,0,0,1,284.14,449.93Zm13.06,10.38a.92.92,0,0,0-.52-.81A5.85,5.85,0,0,0,295,459q-3.77-.78-3.77-3.2a2.89,2.89,0,0,1,1.16-2.34,4.72,4.72,0,0,1,3.06-.95,5,5,0,0,1,3.21.95,3,3,0,0,1,1.21,2.46h-2.82a1.35,1.35,0,0,0-.39-1,1.63,1.63,0,0,0-1.22-.4,1.7,1.7,0,0,0-1.1.32,1,1,0,0,0-.4.82.9.9,0,0,0,.44.77,5.08,5.08,0,0,0,1.51.49,13,13,0,0,1,1.77.47,2.92,2.92,0,0,1,2.24,2.84,2.76,2.76,0,0,1-1.24,2.35,5.38,5.38,0,0,1-3.2.89,5.68,5.68,0,0,1-2.36-.47,4,4,0,0,1-1.62-1.3,3,3,0,0,1-.58-1.79h2.67a1.49,1.49,0,0,0,.56,1.15,2.21,2.21,0,0,0,1.39.4,2.07,2.07,0,0,0,1.22-.3A1,1,0,0,0,297.2,460.31Zm11,.84a1.83,1.83,0,0,0,1.27-.43,1.47,1.47,0,0,0,.51-1.14h2.65a3.7,3.7,0,0,1-.59,2,3.89,3.89,0,0,1-1.58,1.39,5,5,0,0,1-2.21.49,4.58,4.58,0,0,1-3.57-1.44,5.67,5.67,0,0,1-1.31-4v-.19a5.62,5.62,0,0,1,1.3-3.9,4.51,4.51,0,0,1,3.56-1.45,4.42,4.42,0,0,1,3.17,1.13,4,4,0,0,1,1.23,3h-2.65a1.88,1.88,0,0,0-.51-1.33,1.87,1.87,0,0,0-2.78.21,4.16,4.16,0,0,0-.5,2.32v.29a4.25,4.25,0,0,0,.5,2.35A1.72,1.72,0,0,0,308.16,461.15Zm7.6-3.3a6.3,6.3,0,0,1,.6-2.8,4.54,4.54,0,0,1,1.74-1.91,5.09,5.09,0,0,1,2.65-.67,4.79,4.79,0,0,1,3.48,1.31,5.25,5.25,0,0,1,1.52,3.55l0,.73a5.5,5.5,0,0,1-1.36,3.9,4.71,4.71,0,0,1-3.64,1.47,4.77,4.77,0,0,1-3.66-1.47,5.63,5.63,0,0,1-1.35-4Zm2.82.21a3.92,3.92,0,0,0,.57,2.3,1.85,1.85,0,0,0,1.62.79,1.89,1.89,0,0,0,1.6-.78,4.38,4.38,0,0,0,.58-2.52,3.92,3.92,0,0,0-.58-2.28,1.88,1.88,0,0,0-1.62-.82,1.84,1.84,0,0,0-1.6.82A4.32,4.32,0,0,0,318.58,458.06Zm14.72,1.72,2-7.11h3l-3.57,10.56H332l-3.57-10.56h2.95Zm12.89,3.65A5.22,5.22,0,0,1,342.4,462a5.08,5.08,0,0,1-1.45-3.8v-.27a6.34,6.34,0,0,1,.61-2.84,4.57,4.57,0,0,1,1.74-1.94,5,5,0,0,1,2.58-.68,4.38,4.38,0,0,1,3.41,1.37,5.54,5.54,0,0,1,1.25,3.87v1.16h-6.73a2.61,2.61,0,0,0,.82,1.66,2.55,2.55,0,0,0,1.75.62,3,3,0,0,0,2.55-1.18l1.38,1.55a4.25,4.25,0,0,1-1.71,1.41A5.77,5.77,0,0,1,346.19,463.43Zm-.32-8.68a1.8,1.8,0,0,0-1.37.57,3,3,0,0,0-.66,1.62h3.93v-.22a2.13,2.13,0,0,0-.51-1.45A1.85,1.85,0,0,0,345.87,454.75Zm14.22.56a8.26,8.26,0,0,0-1-.08,2.07,2.07,0,0,0-2.1,1.09v6.91h-2.82V452.67h2.67l.07,1.25a2.62,2.62,0,0,1,2.36-1.45,2.84,2.84,0,0,1,.88.13Zm7.49,3.93,1.95-6.57h3l-4.25,12.2-.24.56A3.21,3.21,0,0,1,365,467.5a4.22,4.22,0,0,1-1.25-.19v-2.14h.43a2.33,2.33,0,0,0,1.19-.24,1.56,1.56,0,0,0,.63-.81l.33-.87-3.7-10.59h3Z" transform="translate(89.5 74.77)"/><path class="cls-5" d="M105.83,399.23V339.51h20.92q10.88,0,16.49,4.19t5.62,12.18a13.62,13.62,0,0,1-2.26,7.75,13.07,13.07,0,0,1-6.27,4.88,12.5,12.5,0,0,1,7.21,4.64,13.59,13.59,0,0,1,2.67,8.53q0,8.61-5.5,13t-15.66,4.51Zm12.31-26v16.12h10.54a10.21,10.21,0,0,0,6.77-2.05,7.15,7.15,0,0,0,2.46-5.75q0-8.19-8.49-8.32Zm0-8.7h9.1q9.31-.16,9.31-7.42,0-4.07-2.38-5.83c-1.55-1.2-4-1.8-7.42-1.8h-8.61ZM181,399.23h-12.3V339.51H181Zm41.95-21.86h-9.8v21.86h-12.3V339.51H223q10.58,0,16.32,4.72t5.74,13.33a18.33,18.33,0,0,1-2.66,10.21,17.94,17.94,0,0,1-8,6.48l12.92,24.41v.57H234.11Zm-9.8-10H223q4.64,0,7.18-2.33a8.53,8.53,0,0,0,2.54-6.53,9,9,0,0,0-2.42-6.64c-1.59-1.61-4-2.42-7.34-2.42h-9.89Zm49.75,31.83V339.51h18.37a27.67,27.67,0,0,1,14.07,3.57A24.51,24.51,0,0,1,305,353.17,31,31,0,0,1,308.51,368v2.75a31,31,0,0,1-3.45,14.8,24.39,24.39,0,0,1-9.64,10.05,28.1,28.1,0,0,1-14.07,3.61Zm12.3-49.75v39.87h5.95q7.22,0,11-4.72t3.9-13.49V368q0-9.11-3.78-13.78t-11-4.72Z" transform="translate(89.5 74.77)"/><path d="M118.61,541.41l2.56,6.38,2.55-6.38h1.34v7.82h-1v-3l.09-3.29-2.56,6.33h-.79l-2.56-6.31.1,3.27v3h-1v-7.82Zm12.8,7.82a2.11,2.11,0,0,1-.14-.61,2.21,2.21,0,0,1-1.65.72,2.06,2.06,0,0,1-1.41-.48,1.58,1.58,0,0,1-.55-1.24,1.66,1.66,0,0,1,.69-1.41,3.29,3.29,0,0,1,1.94-.5h1v-.46a1.15,1.15,0,0,0-.31-.83,1.29,1.29,0,0,0-.92-.31,1.48,1.48,0,0,0-.9.27.83.83,0,0,0-.36.65h-1a1.39,1.39,0,0,1,.3-.84,2.19,2.19,0,0,1,.84-.64,2.78,2.78,0,0,1,1.17-.24,2.26,2.26,0,0,1,1.57.51,1.78,1.78,0,0,1,.59,1.38v2.67a3.22,3.22,0,0,0,.21,1.28v.08Zm-1.65-.76a1.78,1.78,0,0,0,.89-.24,1.48,1.48,0,0,0,.61-.63v-1.19h-.78c-1.22,0-1.83.36-1.83,1.07a.92.92,0,0,0,.31.73A1.19,1.19,0,0,0,129.76,548.47Zm6.09-5.05,0,.73a2.11,2.11,0,0,1,1.74-.84c1.23,0,1.85.7,1.86,2.08v3.84h-1v-3.84a1.41,1.41,0,0,0-.29-.93,1.16,1.16,0,0,0-.88-.3,1.44,1.44,0,0,0-.85.25,1.89,1.89,0,0,0-.57.68v4.14h-1v-5.81Zm8.13,4.36,1.35-4.36h1.07l-2.34,6.71c-.36,1-.94,1.45-1.72,1.45l-.19,0-.37-.07v-.8l.26,0a1.3,1.3,0,0,0,.79-.21,1.41,1.41,0,0,0,.47-.74l.22-.59-2.08-5.75h1.09Zm9.32,1.45h-1v-5.81h1Zm-1.08-7.35a.59.59,0,0,1,.15-.41.56.56,0,0,1,.44-.17.57.57,0,0,1,.44.17.59.59,0,0,1,.15.41.54.54,0,0,1-.59.56.55.55,0,0,1-.44-.16A.57.57,0,0,1,152.22,541.88Zm7.16,5.81a.72.72,0,0,0-.31-.62,3,3,0,0,0-1.06-.39,5.27,5.27,0,0,1-1.2-.39,1.77,1.77,0,0,1-.65-.53A1.31,1.31,0,0,1,156,545a1.51,1.51,0,0,1,.6-1.21,2.36,2.36,0,0,1,1.55-.5,2.42,2.42,0,0,1,1.6.51,1.63,1.63,0,0,1,.62,1.31h-1a.92.92,0,0,0-.35-.71,1.32,1.32,0,0,0-.87-.29,1.34,1.34,0,0,0-.85.24.71.71,0,0,0-.31.61.63.63,0,0,0,.29.55,3.57,3.57,0,0,0,1,.34,6.1,6.1,0,0,1,1.21.4,1.69,1.69,0,0,1,.68.56,1.36,1.36,0,0,1,.23.79,1.48,1.48,0,0,1-.63,1.25,2.61,2.61,0,0,1-1.61.47,2.86,2.86,0,0,1-1.24-.25,2,2,0,0,1-.84-.69,1.65,1.65,0,0,1-.3-1h1a1,1,0,0,0,.4.8,1.6,1.6,0,0,0,1,.29,1.62,1.62,0,0,0,.9-.23A.71.71,0,0,0,159.38,547.69Zm6.77,0a.72.72,0,0,0-.31-.62,2.87,2.87,0,0,0-1.06-.39,5.27,5.27,0,0,1-1.2-.39,1.77,1.77,0,0,1-.65-.53,1.31,1.31,0,0,1-.21-.74,1.51,1.51,0,0,1,.6-1.21,2.38,2.38,0,0,1,1.55-.5,2.42,2.42,0,0,1,1.6.51,1.63,1.63,0,0,1,.62,1.31h-1a.92.92,0,0,0-.35-.71,1.32,1.32,0,0,0-.87-.29,1.34,1.34,0,0,0-.85.24.74.74,0,0,0-.31.61.63.63,0,0,0,.29.55,3.57,3.57,0,0,0,1,.34,6.1,6.1,0,0,1,1.21.4,1.69,1.69,0,0,1,.68.56,1.29,1.29,0,0,1,.23.79,1.5,1.5,0,0,1-.62,1.25,2.66,2.66,0,0,1-1.62.47,2.86,2.86,0,0,1-1.24-.25,2,2,0,0,1-.84-.69,1.65,1.65,0,0,1-.3-1h1a1,1,0,0,0,.4.8,1.6,1.6,0,0,0,1,.29,1.58,1.58,0,0,0,.9-.23A.71.71,0,0,0,166.15,547.69Zm7,1a2.11,2.11,0,0,1-1.7.68,1.82,1.82,0,0,1-1.42-.54,2.39,2.39,0,0,1-.49-1.6v-3.78h1v3.75c0,.89.36,1.33,1.07,1.33a1.5,1.5,0,0,0,1.52-.85v-4.23h1v5.81h-1Zm6,.68a2.58,2.58,0,0,1-1.93-.77,2.92,2.92,0,0,1-.74-2.08v-.19a3.48,3.48,0,0,1,.33-1.54,2.58,2.58,0,0,1,.92-1.06,2.32,2.32,0,0,1,1.29-.39,2.15,2.15,0,0,1,1.76.75,3.23,3.23,0,0,1,.63,2.14v.41h-3.93A2.05,2.05,0,0,0,178,548a1.59,1.59,0,0,0,1.22.53,1.66,1.66,0,0,0,.89-.22,2.16,2.16,0,0,0,.64-.57l.61.48A2.46,2.46,0,0,1,179.12,549.34Zm-.13-5.21a1.33,1.33,0,0,0-1,.44,2.1,2.1,0,0,0-.5,1.22h2.91v-.07a1.88,1.88,0,0,0-.41-1.17A1.23,1.23,0,0,0,179,544.13Zm8,3.56a.7.7,0,0,0-.31-.62,2.88,2.88,0,0,0-1.05-.39,5.11,5.11,0,0,1-1.2-.39,1.81,1.81,0,0,1-.66-.53,1.31,1.31,0,0,1-.21-.74,1.49,1.49,0,0,1,.61-1.21,2.36,2.36,0,0,1,1.54-.5,2.42,2.42,0,0,1,1.6.51,1.61,1.61,0,0,1,.62,1.31h-1a.89.89,0,0,0-.35-.71,1.32,1.32,0,0,0-.87-.29,1.36,1.36,0,0,0-.85.24.73.73,0,0,0-.3.61.62.62,0,0,0,.28.55,3.55,3.55,0,0,0,1,.34,6.1,6.1,0,0,1,1.21.4,1.84,1.84,0,0,1,.68.56,1.36,1.36,0,0,1,.22.79,1.47,1.47,0,0,1-.62,1.25,2.62,2.62,0,0,1-1.62.47,2.85,2.85,0,0,1-1.23-.25,1.92,1.92,0,0,1-.84-.69,1.59,1.59,0,0,1-.3-1h1a1,1,0,0,0,.4.8,1.58,1.58,0,0,0,1,.29,1.63,1.63,0,0,0,.91-.23A.7.7,0,0,0,187,547.69Zm10.8,1.54a2.19,2.19,0,0,1-.13-.61,2.24,2.24,0,0,1-1.66.72,2.08,2.08,0,0,1-1.41-.48,1.58,1.58,0,0,1-.55-1.24,1.66,1.66,0,0,1,.69-1.41,3.29,3.29,0,0,1,1.94-.5h1v-.46a1.11,1.11,0,0,0-.31-.83,1.29,1.29,0,0,0-.92-.31,1.45,1.45,0,0,0-.89.27.8.8,0,0,0-.36.65h-1a1.39,1.39,0,0,1,.3-.84,2.19,2.19,0,0,1,.84-.64,2.85,2.85,0,0,1,1.17-.24,2.26,2.26,0,0,1,1.57.51,1.78,1.78,0,0,1,.59,1.38v2.67a3.22,3.22,0,0,0,.21,1.28v.08Zm-1.64-.76a1.74,1.74,0,0,0,.88-.24,1.48,1.48,0,0,0,.61-.63v-1.19h-.78c-1.22,0-1.83.36-1.83,1.07a.9.9,0,0,0,.32.73A1.15,1.15,0,0,0,196.18,548.47Zm7.95-4.16a3.6,3.6,0,0,0-.49,0,1.32,1.32,0,0,0-1.33.84v4.12h-1v-5.81h1v.67a1.56,1.56,0,0,1,1.39-.78,1,1,0,0,1,.44.08Zm4.32,5a2.55,2.55,0,0,1-1.92-.77,2.92,2.92,0,0,1-.74-2.08v-.19a3.48,3.48,0,0,1,.33-1.54,2.58,2.58,0,0,1,.92-1.06,2.32,2.32,0,0,1,1.29-.39,2.18,2.18,0,0,1,1.76.75,3.23,3.23,0,0,1,.63,2.14v.41h-3.94a2.1,2.1,0,0,0,.5,1.39,1.6,1.6,0,0,0,1.23.53,1.68,1.68,0,0,0,.89-.22,2.29,2.29,0,0,0,.64-.57l.6.48A2.44,2.44,0,0,1,208.45,549.34Zm-.12-5.21a1.33,1.33,0,0,0-1,.44,2.17,2.17,0,0,0-.51,1.22h2.92v-.07a1.88,1.88,0,0,0-.41-1.17A1.26,1.26,0,0,0,208.33,544.13Zm9.47,0a2.1,2.1,0,0,1,1.71-.81c1.23,0,1.85.7,1.86,2.08v3.84h-1v-3.84a1.31,1.31,0,0,0-.29-.93,1.16,1.16,0,0,0-.88-.3,1.41,1.41,0,0,0-.84.25,1.71,1.71,0,0,0-.57.68v4.14h-1V541h1Zm9.75,5.11a2.11,2.11,0,0,1-.14-.61,2.21,2.21,0,0,1-1.65.72,2.09,2.09,0,0,1-1.42-.48,1.62,1.62,0,0,1-.55-1.24,1.66,1.66,0,0,1,.69-1.41,3.3,3.3,0,0,1,2-.5h1v-.46a1.11,1.11,0,0,0-.31-.83,1.28,1.28,0,0,0-.92-.31,1.45,1.45,0,0,0-.89.27.8.8,0,0,0-.36.65h-1a1.35,1.35,0,0,1,.31-.84,2.19,2.19,0,0,1,.84-.64,2.77,2.77,0,0,1,1.16-.24,2.29,2.29,0,0,1,1.58.51,1.81,1.81,0,0,1,.59,1.38v2.67a3.43,3.43,0,0,0,.2,1.28v.08Zm-1.65-.76a1.78,1.78,0,0,0,.89-.24,1.4,1.4,0,0,0,.6-.63v-1.19h-.78c-1.21,0-1.82.36-1.82,1.07a.89.89,0,0,0,.31.73A1.17,1.17,0,0,0,225.9,548.47Zm10-2.08a3.52,3.52,0,0,1-.6,2.14,2,2,0,0,1-1.65.81,2.11,2.11,0,0,1-1.66-.67v2.8h-1v-8.05H232l.05.64a2,2,0,0,1,1.69-.75,2,2,0,0,1,1.65.79,3.51,3.51,0,0,1,.61,2.2Zm-1-.11a2.53,2.53,0,0,0-.42-1.55,1.35,1.35,0,0,0-1.15-.57,1.44,1.44,0,0,0-1.35.8v2.77a1.47,1.47,0,0,0,1.36.8,1.34,1.34,0,0,0,1.14-.57A2.81,2.81,0,0,0,235,546.28Zm8.27.11a3.46,3.46,0,0,1-.61,2.14,1.94,1.94,0,0,1-1.64.81,2.1,2.1,0,0,1-1.66-.67v2.8h-1v-8.05h.91l.05.64a2,2,0,0,1,1.68-.75,2,2,0,0,1,1.66.79,3.51,3.51,0,0,1,.61,2.2Zm-1-.11a2.53,2.53,0,0,0-.42-1.55,1.36,1.36,0,0,0-1.15-.57,1.44,1.44,0,0,0-1.35.8v2.77a1.46,1.46,0,0,0,1.36.8,1.34,1.34,0,0,0,1.13-.57A2.74,2.74,0,0,0,242.24,546.28Zm5.77,3.06a2.55,2.55,0,0,1-1.92-.77,2.88,2.88,0,0,1-.74-2.08v-.19a3.62,3.62,0,0,1,.32-1.54,2.6,2.6,0,0,1,.93-1.06,2.28,2.28,0,0,1,1.29-.39,2.18,2.18,0,0,1,1.76.75,3.23,3.23,0,0,1,.63,2.14v.41h-3.94a2.05,2.05,0,0,0,.5,1.39,1.59,1.59,0,0,0,1.22.53,1.72,1.72,0,0,0,.9-.22,2.12,2.12,0,0,0,.63-.57l.61.48A2.46,2.46,0,0,1,248,549.34Zm-.12-5.21a1.33,1.33,0,0,0-1,.44,2.11,2.11,0,0,0-.51,1.22h2.91v-.07a1.82,1.82,0,0,0-.41-1.17A1.23,1.23,0,0,0,247.89,544.13Zm5.58-.71,0,.73a2.13,2.13,0,0,1,1.74-.84c1.23,0,1.85.7,1.86,2.08v3.84h-1v-3.84a1.36,1.36,0,0,0-.29-.93,1.16,1.16,0,0,0-.88-.3,1.47,1.47,0,0,0-.85.25,1.89,1.89,0,0,0-.57.68v4.14h-1v-5.81Zm7.31,5.81h-1v-5.81h1Zm-1.07-7.35a.59.59,0,0,1,.14-.41.65.65,0,0,1,.88,0,.59.59,0,0,1,.15.41.62.62,0,0,1-1,.4A.56.56,0,0,1,259.71,541.88Zm4.71,1.54,0,.73a2.11,2.11,0,0,1,1.74-.84c1.23,0,1.85.7,1.86,2.08v3.84h-1v-3.84a1.31,1.31,0,0,0-.29-.93,1.13,1.13,0,0,0-.87-.3,1.42,1.42,0,0,0-.85.25,1.89,1.89,0,0,0-.57.68v4.14h-1v-5.81Zm6,2.86a3.39,3.39,0,0,1,.63-2.16,2.16,2.16,0,0,1,3.32-.06l.05-.64h.91v5.67a2.39,2.39,0,0,1-.67,1.78,2.5,2.5,0,0,1-1.8.65,3,3,0,0,1-1.23-.27,2.19,2.19,0,0,1-.92-.73l.52-.6a1.93,1.93,0,0,0,1.56.79,1.52,1.52,0,0,0,1.13-.41,1.55,1.55,0,0,0,.41-1.15v-.5a2,2,0,0,1-1.63.69,2,2,0,0,1-1.65-.82A3.61,3.61,0,0,1,270.41,546.28Zm1,.11a2.62,2.62,0,0,0,.4,1.55,1.32,1.32,0,0,0,1.13.56,1.47,1.47,0,0,0,1.38-.86V545a1.47,1.47,0,0,0-1.37-.83,1.29,1.29,0,0,0-1.13.56A2.78,2.78,0,0,0,271.41,546.39Zm13.93,2.84a1.82,1.82,0,0,1-.14-.61,2.23,2.23,0,0,1-1.66.72,2.08,2.08,0,0,1-1.41-.48,1.62,1.62,0,0,1-.55-1.24,1.66,1.66,0,0,1,.69-1.41,3.29,3.29,0,0,1,1.94-.5h1v-.46a1.11,1.11,0,0,0-.31-.83,1.28,1.28,0,0,0-.92-.31,1.45,1.45,0,0,0-.89.27.8.8,0,0,0-.36.65h-1a1.35,1.35,0,0,1,.31-.84,2,2,0,0,1,.84-.64,2.77,2.77,0,0,1,1.16-.24,2.26,2.26,0,0,1,1.57.51,1.78,1.78,0,0,1,.59,1.38v2.67a3.22,3.22,0,0,0,.21,1.28v.08Zm-1.65-.76a1.78,1.78,0,0,0,.89-.24,1.45,1.45,0,0,0,.6-.63v-1.19h-.78c-1.22,0-1.82.36-1.82,1.07a.89.89,0,0,0,.31.73A1.17,1.17,0,0,0,283.69,548.47Zm6.22.76h-1V541h1Zm3.78,0h-1V541h1Zm-180.17,13a2.11,2.11,0,0,1-.14-.61,2.21,2.21,0,0,1-1.65.72,2,2,0,0,1-1.41-.48,1.58,1.58,0,0,1-.55-1.24,1.66,1.66,0,0,1,.69-1.41,3.29,3.29,0,0,1,1.94-.5h1v-.46a1.11,1.11,0,0,0-.32-.83,1.25,1.25,0,0,0-.91-.31,1.46,1.46,0,0,0-.9.27.8.8,0,0,0-.36.65h-1a1.39,1.39,0,0,1,.3-.84,2.19,2.19,0,0,1,.84-.64,2.77,2.77,0,0,1,1.16-.24,2.29,2.29,0,0,1,1.58.51,1.78,1.78,0,0,1,.59,1.38v2.67a3.43,3.43,0,0,0,.2,1.28v.08Zm-1.65-.76a1.78,1.78,0,0,0,.89-.24,1.48,1.48,0,0,0,.61-.63v-1.19h-.78c-1.22,0-1.83.36-1.83,1.07a.89.89,0,0,0,.31.73A1.19,1.19,0,0,0,111.87,561.47Zm8-4.16a3.74,3.74,0,0,0-.49,0,1.31,1.31,0,0,0-1.33.84v4.12h-1v-5.81h1l0,.67a1.56,1.56,0,0,1,1.39-.78,1,1,0,0,1,.44.08Zm1.64,2a3.31,3.31,0,0,1,.34-1.53,2.47,2.47,0,0,1,.93-1.06,2.63,2.63,0,0,1,1.37-.37,2.48,2.48,0,0,1,1.92.82,3.17,3.17,0,0,1,.73,2.19v.07a3.61,3.61,0,0,1-.32,1.53,2.54,2.54,0,0,1-.93,1,2.59,2.59,0,0,1-1.39.38,2.48,2.48,0,0,1-1.92-.82,3.21,3.21,0,0,1-.73-2.18Zm1,.12a2.48,2.48,0,0,0,.45,1.55,1.44,1.44,0,0,0,1.2.59,1.42,1.42,0,0,0,1.2-.59,2.74,2.74,0,0,0,.45-1.67,2.39,2.39,0,0,0-.46-1.54,1.51,1.51,0,0,0-2.39,0A2.71,2.71,0,0,0,122.47,559.39Zm10.23,2.27a2.13,2.13,0,0,1-1.7.68,1.81,1.81,0,0,1-1.42-.54,2.34,2.34,0,0,1-.49-1.6v-3.78h1v3.75c0,.89.36,1.33,1.08,1.33a1.49,1.49,0,0,0,1.51-.85v-4.23h1v5.81h-.94Zm4.52-5.24,0,.73a2.13,2.13,0,0,1,1.74-.84c1.23,0,1.85.7,1.86,2.08v3.84h-1v-3.84a1.36,1.36,0,0,0-.29-.93,1.16,1.16,0,0,0-.88-.3,1.47,1.47,0,0,0-.85.25,1.89,1.89,0,0,0-.57.68v4.14h-1v-5.81Zm6,2.86a3.41,3.41,0,0,1,.63-2.15,2,2,0,0,1,1.66-.82,2,2,0,0,1,1.62.7v-3h1v8.25h-.91l0-.62a2.15,2.15,0,0,1-3.31-.1,3.46,3.46,0,0,1-.63-2.16Zm1,.11a2.62,2.62,0,0,0,.41,1.55,1.33,1.33,0,0,0,1.13.56,1.46,1.46,0,0,0,1.38-.85V558a1.46,1.46,0,0,0-1.37-.82,1.31,1.31,0,0,0-1.14.56A2.86,2.86,0,0,0,144.2,559.39ZM155.93,555v1.41H157v.77h-1.09v3.6a.82.82,0,0,0,.15.53.63.63,0,0,0,.49.17,2.58,2.58,0,0,0,.48-.06v.8a3,3,0,0,1-.77.11,1.27,1.27,0,0,1-1-.4,1.72,1.72,0,0,1-.34-1.15v-3.6h-1.06v-.77h1.06V555Zm4.35,2.11a2.11,2.11,0,0,1,1.72-.81c1.23,0,1.85.7,1.86,2.08v3.84h-1v-3.84a1.31,1.31,0,0,0-.29-.93,1.12,1.12,0,0,0-.87-.3,1.44,1.44,0,0,0-.85.25,1.71,1.71,0,0,0-.57.68v4.14h-1V554h1Zm8.58,5.22a2.58,2.58,0,0,1-1.93-.77,2.92,2.92,0,0,1-.74-2.08v-.19a3.48,3.48,0,0,1,.33-1.54,2.58,2.58,0,0,1,.92-1.06,2.32,2.32,0,0,1,1.29-.39,2.16,2.16,0,0,1,1.76.75,3.23,3.23,0,0,1,.63,2.14v.41h-3.94a2.15,2.15,0,0,0,.5,1.39,1.61,1.61,0,0,0,1.23.53,1.66,1.66,0,0,0,.89-.22,2.16,2.16,0,0,0,.64-.57l.61.48A2.46,2.46,0,0,1,168.86,562.34Zm-.13-5.21a1.33,1.33,0,0,0-1,.44,2.1,2.1,0,0,0-.5,1.22h2.91v-.07a1.88,1.88,0,0,0-.41-1.17A1.23,1.23,0,0,0,168.73,557.13Zm13.62,3.73,1.12-4.44h1l-1.69,5.81H182l-1.41-4.4-1.37,4.4h-.81l-1.69-5.81h1l1.15,4.35,1.35-4.35h.8Zm4-1.59a3.44,3.44,0,0,1,.34-1.53,2.47,2.47,0,0,1,.93-1.06,2.63,2.63,0,0,1,1.37-.37,2.48,2.48,0,0,1,1.92.82,3.17,3.17,0,0,1,.73,2.19v.07a3.61,3.61,0,0,1-.32,1.53,2.54,2.54,0,0,1-.93,1,2.56,2.56,0,0,1-1.39.38,2.49,2.49,0,0,1-1.92-.82,3.21,3.21,0,0,1-.73-2.18Zm1,.12a2.48,2.48,0,0,0,.45,1.55,1.44,1.44,0,0,0,1.2.59,1.42,1.42,0,0,0,1.2-.59,2.74,2.74,0,0,0,.45-1.67,2.39,2.39,0,0,0-.46-1.54,1.43,1.43,0,0,0-1.2-.6,1.44,1.44,0,0,0-1.19.58A2.71,2.71,0,0,0,187.31,559.39Zm9.45-2.08a3.6,3.6,0,0,0-.49,0,1.32,1.32,0,0,0-1.33.84v4.12h-1v-5.81h1v.67a1.56,1.56,0,0,1,1.39-.78,1,1,0,0,1,.44.08Zm3.1,4.92h-1V554h1Zm2.45-3a3.36,3.36,0,0,1,.64-2.15,2,2,0,0,1,1.65-.82,2,2,0,0,1,1.62.7v-3h1v8.25h-.91l-.05-.62a2,2,0,0,1-1.66.73,2,2,0,0,1-1.64-.83,3.41,3.41,0,0,1-.64-2.16Zm1,.11a2.62,2.62,0,0,0,.41,1.55,1.34,1.34,0,0,0,1.13.56,1.46,1.46,0,0,0,1.38-.85V558a1.45,1.45,0,0,0-1.37-.82,1.33,1.33,0,0,0-1.14.56A2.86,2.86,0,0,0,203.3,559.39Zm6.53,4.4-.56-.39a2.6,2.6,0,0,0,.52-1.45v-.89h1v.77a2.39,2.39,0,0,1-.26,1.09A2.59,2.59,0,0,1,209.83,563.79Zm10.71-1.56a1.82,1.82,0,0,1-.14-.61,2.23,2.23,0,0,1-1.66.72,2.08,2.08,0,0,1-1.41-.48,1.62,1.62,0,0,1-.55-1.24,1.66,1.66,0,0,1,.69-1.41,3.29,3.29,0,0,1,1.94-.5h1v-.46a1.11,1.11,0,0,0-.31-.83,1.28,1.28,0,0,0-.92-.31,1.45,1.45,0,0,0-.89.27.8.8,0,0,0-.36.65h-1a1.35,1.35,0,0,1,.31-.84,2.08,2.08,0,0,1,.83-.64,2.85,2.85,0,0,1,1.17-.24,2.26,2.26,0,0,1,1.57.51,1.82,1.82,0,0,1,.6,1.38v2.67a3.24,3.24,0,0,0,.2,1.28v.08Zm-1.65-.76a1.74,1.74,0,0,0,.88-.24,1.42,1.42,0,0,0,.61-.63v-1.19h-.78c-1.22,0-1.82.36-1.82,1.07a.89.89,0,0,0,.31.73A1.17,1.17,0,0,0,218.89,561.47Zm6.08-5.05,0,.73a2.1,2.1,0,0,1,1.73-.84c1.23,0,1.85.7,1.86,2.08v3.84h-1v-3.84a1.31,1.31,0,0,0-.29-.93,1.15,1.15,0,0,0-.87-.3,1.42,1.42,0,0,0-.85.25,1.71,1.71,0,0,0-.57.68v4.14h-1v-5.81Zm6,2.86a3.41,3.41,0,0,1,.63-2.15,2,2,0,0,1,1.66-.82,2,2,0,0,1,1.62.7v-3h1v8.25H235l0-.62a2.15,2.15,0,0,1-3.31-.1,3.46,3.46,0,0,1-.63-2.16Zm1,.11a2.62,2.62,0,0,0,.41,1.55,1.33,1.33,0,0,0,1.13.56,1.46,1.46,0,0,0,1.38-.85V558a1.45,1.45,0,0,0-1.37-.82,1.31,1.31,0,0,0-1.14.56A2.86,2.86,0,0,0,232,559.39Zm15.54,1.47,1.11-4.44h1l-1.7,5.81h-.8l-1.41-4.4-1.38,4.4h-.8l-1.69-5.81h1l1.14,4.35,1.35-4.35h.8Zm6.63,1.48a2.56,2.56,0,0,1-1.92-.77,2.92,2.92,0,0,1-.74-2.08v-.19a3.48,3.48,0,0,1,.33-1.54,2.58,2.58,0,0,1,.92-1.06,2.32,2.32,0,0,1,1.29-.39,2.16,2.16,0,0,1,1.76.75,3.23,3.23,0,0,1,.63,2.14v.41h-3.94A2.1,2.1,0,0,0,253,561a1.6,1.6,0,0,0,1.23.53,1.68,1.68,0,0,0,.89-.22,2.29,2.29,0,0,0,.64-.57l.6.48A2.44,2.44,0,0,1,254.12,562.34Zm-.12-5.21a1.33,1.33,0,0,0-1,.44,2.1,2.1,0,0,0-.5,1.22h2.91v-.07a1.88,1.88,0,0,0-.41-1.17A1.26,1.26,0,0,0,254,557.13Zm13.38,2.26a3.46,3.46,0,0,1-.61,2.14,1.94,1.94,0,0,1-1.64.81,2.11,2.11,0,0,1-1.66-.67v2.8h-1v-8.05h.91l.05.64a2,2,0,0,1,1.68-.75,2,2,0,0,1,1.66.79,3.51,3.51,0,0,1,.61,2.2Zm-1-.11a2.53,2.53,0,0,0-.42-1.55,1.35,1.35,0,0,0-1.15-.57,1.44,1.44,0,0,0-1.35.8v2.77a1.46,1.46,0,0,0,1.36.8A1.32,1.32,0,0,0,266,561,2.74,2.74,0,0,0,266.39,559.28Zm4.44,3h-1V554h1Zm6.28,0a2.11,2.11,0,0,1-.14-.61,2.21,2.21,0,0,1-1.65.72,2,2,0,0,1-1.41-.48,1.58,1.58,0,0,1-.55-1.24,1.66,1.66,0,0,1,.69-1.41,3.27,3.27,0,0,1,1.94-.5h1v-.46a1.11,1.11,0,0,0-.32-.83,1.25,1.25,0,0,0-.91-.31,1.48,1.48,0,0,0-.9.27.81.81,0,0,0-.35.65h-1a1.39,1.39,0,0,1,.3-.84,2.19,2.19,0,0,1,.84-.64,2.81,2.81,0,0,1,1.17-.24,2.28,2.28,0,0,1,1.57.51,1.78,1.78,0,0,1,.59,1.38v2.67a3.43,3.43,0,0,0,.2,1.28v.08Zm-1.65-.76a1.78,1.78,0,0,0,.89-.24,1.48,1.48,0,0,0,.61-.63v-1.19h-.78c-1.22,0-1.83.36-1.83,1.07a.89.89,0,0,0,.31.73A1.19,1.19,0,0,0,275.46,561.47Zm6.09-5.05,0,.73a2.11,2.11,0,0,1,1.74-.84c1.23,0,1.85.7,1.86,2.08v3.84h-1v-3.84a1.31,1.31,0,0,0-.29-.93,1.12,1.12,0,0,0-.87-.3,1.44,1.44,0,0,0-.85.25,1.89,1.89,0,0,0-.57.68v4.14h-1v-5.81ZM293,555v1.41H294v.77H293v3.6a.82.82,0,0,0,.15.53.63.63,0,0,0,.49.17,2.68,2.68,0,0,0,.48-.06v.8a3,3,0,0,1-.77.11,1.25,1.25,0,0,1-1-.4,1.72,1.72,0,0,1-.34-1.15v-3.6H290.9v-.77H292V555Zm3,4.26a3.44,3.44,0,0,1,.34-1.53,2.47,2.47,0,0,1,.93-1.06,2.63,2.63,0,0,1,1.37-.37,2.48,2.48,0,0,1,1.92.82,3.17,3.17,0,0,1,.73,2.19v.07a3.61,3.61,0,0,1-.32,1.53,2.54,2.54,0,0,1-.93,1,2.59,2.59,0,0,1-1.39.38,2.48,2.48,0,0,1-1.92-.82,3.21,3.21,0,0,1-.73-2.18Zm1,.12a2.48,2.48,0,0,0,.45,1.55,1.53,1.53,0,0,0,2.41,0,2.81,2.81,0,0,0,.44-1.67,2.39,2.39,0,0,0-.46-1.54,1.51,1.51,0,0,0-2.39,0A2.71,2.71,0,0,0,296.93,559.39ZM120.05,575.23h-1v-5.81h1ZM119,567.88a.59.59,0,0,1,.15-.41.56.56,0,0,1,.44-.17.57.57,0,0,1,.44.17.59.59,0,0,1,.15.41.54.54,0,0,1-.59.56.55.55,0,0,1-.44-.16A.57.57,0,0,1,119,567.88Zm4.71,1.54,0,.73a2.14,2.14,0,0,1,1.75-.84c1.22,0,1.84.7,1.85,2.08v3.84h-1v-3.84a1.31,1.31,0,0,0-.29-.93,1.16,1.16,0,0,0-.88-.3,1.41,1.41,0,0,0-.84.25,1.71,1.71,0,0,0-.57.68v4.14h-1v-5.81Zm6.72,5.81v-5h-.92v-.77h.92v-.6a2,2,0,0,1,.5-1.44,1.87,1.87,0,0,1,1.41-.51,2.59,2.59,0,0,1,.68.09l-.05.81a2.36,2.36,0,0,0-.54,0,.94.94,0,0,0-.74.28,1.13,1.13,0,0,0-.27.81v.61h1.24v.77h-1.24v5Zm4.17-3a3.31,3.31,0,0,1,.34-1.53,2.47,2.47,0,0,1,.93-1.06,2.63,2.63,0,0,1,1.37-.37,2.48,2.48,0,0,1,1.92.82,3.17,3.17,0,0,1,.73,2.19v.07a3.61,3.61,0,0,1-.32,1.53,2.54,2.54,0,0,1-.93,1,2.59,2.59,0,0,1-1.39.38,2.48,2.48,0,0,1-1.92-.82,3.21,3.21,0,0,1-.73-2.18Zm1,.12a2.48,2.48,0,0,0,.45,1.55,1.44,1.44,0,0,0,1.2.59,1.42,1.42,0,0,0,1.2-.59,2.74,2.74,0,0,0,.45-1.67,2.39,2.39,0,0,0-.46-1.54,1.51,1.51,0,0,0-2.39,0A2.71,2.71,0,0,0,135.57,572.39Zm9.45-2.08a3.6,3.6,0,0,0-.49,0,1.32,1.32,0,0,0-1.33.84v4.12h-1v-5.81h1v.67a1.56,1.56,0,0,1,1.39-.78,1,1,0,0,1,.44.08Zm2.95-.89,0,.64a2.15,2.15,0,0,1,1.72-.75,1.65,1.65,0,0,1,1.66.94,2.15,2.15,0,0,1,1.86-.94c1.27,0,1.92.68,1.94,2v3.89h-1V571.4a1.31,1.31,0,0,0-.29-.93,1.23,1.23,0,0,0-1-.31,1.3,1.3,0,0,0-1.35,1.22v3.85h-1v-3.81a1.1,1.1,0,0,0-1.24-1.26A1.33,1.33,0,0,0,148,571v4.24h-1v-5.81ZM164,575.34a2.58,2.58,0,0,1-1.92-.77,2.92,2.92,0,0,1-.74-2.08v-.19a3.48,3.48,0,0,1,.33-1.54,2.58,2.58,0,0,1,.92-1.06,2.32,2.32,0,0,1,1.29-.39,2.16,2.16,0,0,1,1.76.75,3.23,3.23,0,0,1,.63,2.14v.41h-3.94a2.1,2.1,0,0,0,.5,1.39,1.61,1.61,0,0,0,1.23.53,1.66,1.66,0,0,0,.89-.22,2.16,2.16,0,0,0,.64-.57l.6.48A2.44,2.44,0,0,1,164,575.34Zm-.12-5.21a1.33,1.33,0,0,0-1,.44,2.1,2.1,0,0,0-.5,1.22h2.91v-.07a1.88,1.88,0,0,0-.41-1.17A1.23,1.23,0,0,0,163.9,570.13Zm4.4,2.15a3.36,3.36,0,0,1,.64-2.15,2,2,0,0,1,1.66-.82,2,2,0,0,1,1.61.7v-3h1v8.25h-.92l0-.62a2,2,0,0,1-1.66.73,2,2,0,0,1-1.65-.83,3.41,3.41,0,0,1-.64-2.16Zm1,.11a2.55,2.55,0,0,0,.41,1.55,1.31,1.31,0,0,0,1.12.56,1.46,1.46,0,0,0,1.38-.85V571a1.45,1.45,0,0,0-1.37-.82,1.3,1.3,0,0,0-1.13.56A2.78,2.78,0,0,0,169.3,572.39Zm10.14,2.27a2.12,2.12,0,0,1-1.7.68,1.82,1.82,0,0,1-1.42-.54,2.39,2.39,0,0,1-.49-1.6v-3.78h1v3.75c0,.89.35,1.33,1.07,1.33a1.49,1.49,0,0,0,1.51-.85v-4.23h1v5.81h-.95Zm5.91-.13a1.44,1.44,0,0,0,.93-.32,1.11,1.11,0,0,0,.44-.81h.94a1.75,1.75,0,0,1-.34,1,2.23,2.23,0,0,1-.85.72,2.58,2.58,0,0,1-3-.52,3.19,3.19,0,0,1-.69-2.17v-.17a3.48,3.48,0,0,1,.31-1.51,2.34,2.34,0,0,1,.89-1,2.5,2.5,0,0,1,1.38-.37,2.32,2.32,0,0,1,1.62.59,2.05,2.05,0,0,1,.69,1.52h-.94a1.32,1.32,0,0,0-.43-.93,1.3,1.3,0,0,0-.94-.36,1.39,1.39,0,0,0-1.18.55,2.58,2.58,0,0,0-.41,1.57v.19a2.57,2.57,0,0,0,.41,1.55A1.4,1.4,0,0,0,185.35,574.53Zm8.12.7a2.11,2.11,0,0,1-.14-.61,2.21,2.21,0,0,1-1.65.72,2.09,2.09,0,0,1-1.42-.48,1.62,1.62,0,0,1-.55-1.24,1.66,1.66,0,0,1,.69-1.41,3.3,3.3,0,0,1,1.95-.5h1v-.46a1.11,1.11,0,0,0-.31-.83,1.28,1.28,0,0,0-.92-.31,1.45,1.45,0,0,0-.89.27.8.8,0,0,0-.36.65h-1a1.35,1.35,0,0,1,.31-.84,2.19,2.19,0,0,1,.84-.64,2.77,2.77,0,0,1,1.16-.24,2.29,2.29,0,0,1,1.58.51,1.81,1.81,0,0,1,.59,1.38v2.67a3.43,3.43,0,0,0,.2,1.28v.08Zm-1.65-.76a1.78,1.78,0,0,0,.89-.24,1.4,1.4,0,0,0,.6-.63v-1.19h-.77c-1.22,0-1.83.36-1.83,1.07a.89.89,0,0,0,.31.73A1.17,1.17,0,0,0,191.82,574.47Zm6.49-6.46v1.41h1.09v.77h-1.09v3.6a.82.82,0,0,0,.15.53.62.62,0,0,0,.49.17,2.68,2.68,0,0,0,.48-.06v.8a3,3,0,0,1-.77.11,1.25,1.25,0,0,1-1-.4,1.72,1.72,0,0,1-.34-1.15v-3.6h-1.06v-.77h1.06V568Zm5.76,7.33a2.58,2.58,0,0,1-1.92-.77,2.92,2.92,0,0,1-.74-2.08v-.19a3.48,3.48,0,0,1,.33-1.54,2.58,2.58,0,0,1,.92-1.06,2.32,2.32,0,0,1,1.29-.39,2.16,2.16,0,0,1,1.76.75,3.23,3.23,0,0,1,.63,2.14v.41H202.4a2.15,2.15,0,0,0,.5,1.39,1.61,1.61,0,0,0,1.23.53,1.66,1.66,0,0,0,.89-.22,2.16,2.16,0,0,0,.64-.57l.61.48A2.47,2.47,0,0,1,204.07,575.34Zm-.12-5.21a1.33,1.33,0,0,0-1,.44,2.1,2.1,0,0,0-.5,1.22h2.91v-.07a1.88,1.88,0,0,0-.41-1.17A1.23,1.23,0,0,0,204,570.13Zm4.61,6.66-.56-.39a2.61,2.61,0,0,0,.53-1.45v-.89h1v.77a2.41,2.41,0,0,1-.27,1.09A2.59,2.59,0,0,1,208.56,576.79Zm10.71-1.56a2.11,2.11,0,0,1-.14-.61,2.21,2.21,0,0,1-1.65.72,2,2,0,0,1-1.41-.48,1.58,1.58,0,0,1-.55-1.24,1.66,1.66,0,0,1,.69-1.41,3.29,3.29,0,0,1,1.94-.5h1v-.46a1.11,1.11,0,0,0-.32-.83,1.25,1.25,0,0,0-.91-.31,1.48,1.48,0,0,0-.9.27.83.83,0,0,0-.36.65h-1a1.39,1.39,0,0,1,.3-.84,2.19,2.19,0,0,1,.84-.64,2.78,2.78,0,0,1,1.17-.24,2.26,2.26,0,0,1,1.57.51,1.78,1.78,0,0,1,.59,1.38v2.67a3.43,3.43,0,0,0,.2,1.28v.08Zm-1.65-.76a1.78,1.78,0,0,0,.89-.24,1.48,1.48,0,0,0,.61-.63v-1.19h-.78c-1.22,0-1.83.36-1.83,1.07a.92.92,0,0,0,.31.73A1.19,1.19,0,0,0,217.62,574.47Zm6.09-5.05,0,.73a2.11,2.11,0,0,1,1.74-.84c1.23,0,1.85.7,1.86,2.08v3.84h-1v-3.84a1.36,1.36,0,0,0-.3-.93,1.12,1.12,0,0,0-.87-.3,1.44,1.44,0,0,0-.85.25,1.89,1.89,0,0,0-.57.68v4.14h-1v-5.81Zm6,2.86a3.41,3.41,0,0,1,.63-2.15,2,2,0,0,1,1.66-.82,2,2,0,0,1,1.61.7v-3h1v8.25h-.91l-.05-.62a2,2,0,0,1-1.66.73,2,2,0,0,1-1.65-.83,3.46,3.46,0,0,1-.63-2.16Zm1,.11a2.55,2.55,0,0,0,.41,1.55,1.32,1.32,0,0,0,1.13.56,1.45,1.45,0,0,0,1.37-.85V571a1.44,1.44,0,0,0-1.36-.82,1.31,1.31,0,0,0-1.14.56A2.78,2.78,0,0,0,230.69,572.39Zm12.8,3a2.58,2.58,0,0,1-1.93-.77,2.92,2.92,0,0,1-.74-2.08v-.19a3.48,3.48,0,0,1,.33-1.54,2.58,2.58,0,0,1,.92-1.06,2.32,2.32,0,0,1,1.29-.39,2.15,2.15,0,0,1,1.76.75,3.23,3.23,0,0,1,.63,2.14v.41h-3.93a2.05,2.05,0,0,0,.5,1.39,1.59,1.59,0,0,0,1.22.53,1.66,1.66,0,0,0,.89-.22,2,2,0,0,0,.64-.57l.61.48A2.46,2.46,0,0,1,243.49,575.34Zm-.13-5.21a1.33,1.33,0,0,0-1,.44,2.1,2.1,0,0,0-.5,1.22h2.91v-.07a1.88,1.88,0,0,0-.41-1.17A1.23,1.23,0,0,0,243.36,570.13Zm5.58-.71,0,.64a2.15,2.15,0,0,1,1.72-.75,1.65,1.65,0,0,1,1.66.94,2.15,2.15,0,0,1,1.86-.94c1.27,0,1.92.68,1.94,2v3.89h-1V571.4a1.31,1.31,0,0,0-.29-.93,1.23,1.23,0,0,0-1-.31,1.3,1.3,0,0,0-1.35,1.22v3.85h-1v-3.81a1.1,1.1,0,0,0-1.24-1.26A1.31,1.31,0,0,0,249,571v4.24h-1v-5.81Zm14.72,3a3.52,3.52,0,0,1-.6,2.14,2,2,0,0,1-1.65.81,2.11,2.11,0,0,1-1.66-.67v2.8h-1v-8.05h.91l0,.64a2,2,0,0,1,1.69-.75,2,2,0,0,1,1.65.79,3.51,3.51,0,0,1,.61,2.2Zm-1-.11a2.53,2.53,0,0,0-.42-1.55,1.35,1.35,0,0,0-1.15-.57,1.44,1.44,0,0,0-1.35.8v2.77a1.47,1.47,0,0,0,1.36.8,1.31,1.31,0,0,0,1.13-.57A2.74,2.74,0,0,0,262.67,572.28Zm3.1,0a3.44,3.44,0,0,1,.33-1.53,2.56,2.56,0,0,1,.94-1.06,2.59,2.59,0,0,1,1.36-.37,2.46,2.46,0,0,1,1.92.82,3.17,3.17,0,0,1,.74,2.19v.07a3.47,3.47,0,0,1-.33,1.53,2.4,2.4,0,0,1-.93,1,2.55,2.55,0,0,1-1.38.38,2.48,2.48,0,0,1-1.92-.82,3.16,3.16,0,0,1-.73-2.18Zm1,.12a2.54,2.54,0,0,0,.44,1.55,1.53,1.53,0,0,0,2.41,0,2.74,2.74,0,0,0,.44-1.67,2.45,2.45,0,0,0-.45-1.54,1.43,1.43,0,0,0-1.21-.6,1.41,1.41,0,0,0-1.18.58A2.71,2.71,0,0,0,266.77,572.39Zm11.78,1.47,1.12-4.44h1L279,575.23h-.81l-1.41-4.4-1.37,4.4h-.81l-1.69-5.81h1l1.15,4.35,1.35-4.35h.8Zm6.64,1.48a2.58,2.58,0,0,1-1.93-.77,2.92,2.92,0,0,1-.74-2.08v-.19a3.48,3.48,0,0,1,.33-1.54,2.58,2.58,0,0,1,.92-1.06,2.32,2.32,0,0,1,1.29-.39,2.18,2.18,0,0,1,1.77.75,3.29,3.29,0,0,1,.62,2.14v.41h-3.93A2.05,2.05,0,0,0,284,574a1.59,1.59,0,0,0,1.22.53,1.66,1.66,0,0,0,.89-.22,2,2,0,0,0,.64-.57l.61.48A2.46,2.46,0,0,1,285.19,575.34Zm-.13-5.21a1.35,1.35,0,0,0-1,.44,2.1,2.1,0,0,0-.5,1.22h2.91v-.07a1.82,1.82,0,0,0-.41-1.17A1.23,1.23,0,0,0,285.06,570.13Zm7.46.18a3.74,3.74,0,0,0-.49,0,1.31,1.31,0,0,0-1.33.84v4.12h-1v-5.81h1l0,.67a1.56,1.56,0,0,1,1.39-.78,1,1,0,0,1,.44.08Zm-151,17.35a2.11,2.11,0,0,1-1.7.68,1.82,1.82,0,0,1-1.42-.54,2.39,2.39,0,0,1-.49-1.6v-3.78h1v3.75c0,.89.36,1.33,1.07,1.33a1.5,1.5,0,0,0,1.52-.85v-4.23h1v5.81h-1Zm7-1a.7.7,0,0,0-.31-.62,2.87,2.87,0,0,0-1.06-.39,5,5,0,0,1-1.19-.39,1.73,1.73,0,0,1-.66-.53,1.31,1.31,0,0,1-.21-.74,1.51,1.51,0,0,1,.6-1.21,2.38,2.38,0,0,1,1.55-.5,2.42,2.42,0,0,1,1.6.51,1.63,1.63,0,0,1,.62,1.31h-1a.92.92,0,0,0-.35-.71,1.32,1.32,0,0,0-.87-.29,1.36,1.36,0,0,0-.85.24.73.73,0,0,0-.3.61.62.62,0,0,0,.28.55,3.55,3.55,0,0,0,1,.34,6,6,0,0,1,1.2.4,1.8,1.8,0,0,1,.69.56,1.36,1.36,0,0,1,.22.79,1.5,1.5,0,0,1-.62,1.25,2.66,2.66,0,0,1-1.62.47,2.85,2.85,0,0,1-1.23-.25,2,2,0,0,1-.85-.69,1.65,1.65,0,0,1-.3-1h1a1,1,0,0,0,.39.8,1.62,1.62,0,0,0,1,.29,1.63,1.63,0,0,0,.91-.23A.72.72,0,0,0,148.52,586.69Zm5.8,1.65a2.55,2.55,0,0,1-1.92-.77,2.89,2.89,0,0,1-.75-2.08v-.19a3.48,3.48,0,0,1,.33-1.54,2.53,2.53,0,0,1,.93-1.06,2.28,2.28,0,0,1,1.29-.39,2.18,2.18,0,0,1,1.76.75,3.23,3.23,0,0,1,.63,2.14v.41h-3.94a2.05,2.05,0,0,0,.5,1.39,1.59,1.59,0,0,0,1.22.53,1.66,1.66,0,0,0,.89-.22,2,2,0,0,0,.64-.57l.61.48A2.46,2.46,0,0,1,154.32,588.34Zm-.12-5.21a1.35,1.35,0,0,0-1,.44,2.1,2.1,0,0,0-.5,1.22h2.91v-.07a1.82,1.82,0,0,0-.41-1.17A1.23,1.23,0,0,0,154.2,583.13Zm7.45.18a3.6,3.6,0,0,0-.49,0,1.32,1.32,0,0,0-1.33.84v4.12h-1v-5.81h1v.67a1.56,1.56,0,0,1,1.39-.78,1,1,0,0,1,.44.08Zm5.4,3.38a.7.7,0,0,0-.31-.62,2.88,2.88,0,0,0-1.05-.39,5.11,5.11,0,0,1-1.2-.39,1.9,1.9,0,0,1-.66-.53,1.31,1.31,0,0,1-.21-.74,1.49,1.49,0,0,1,.61-1.21,2.36,2.36,0,0,1,1.54-.5,2.42,2.42,0,0,1,1.6.51,1.61,1.61,0,0,1,.62,1.31h-1a.89.89,0,0,0-.35-.71,1.32,1.32,0,0,0-.87-.29,1.36,1.36,0,0,0-.85.24.73.73,0,0,0-.3.61.62.62,0,0,0,.28.55,3.55,3.55,0,0,0,1,.34,6.1,6.1,0,0,1,1.21.4,1.77,1.77,0,0,1,.68.56,1.36,1.36,0,0,1,.22.79,1.47,1.47,0,0,1-.62,1.25,2.62,2.62,0,0,1-1.62.47,2.85,2.85,0,0,1-1.23-.25,1.92,1.92,0,0,1-.84-.69,1.65,1.65,0,0,1-.3-1h1a1,1,0,0,0,.4.8,1.58,1.58,0,0,0,1,.29,1.63,1.63,0,0,0,.91-.23A.7.7,0,0,0,167.05,586.69Zm12.36.17,1.12-4.44h1l-1.69,5.81H179l-1.42-4.4-1.37,4.4h-.81l-1.68-5.81h1l1.14,4.35,1.35-4.35h.8Zm5.22-3.74a2.12,2.12,0,0,1,1.72-.81c1.23,0,1.85.7,1.86,2.08v3.84h-1v-3.84a1.36,1.36,0,0,0-.29-.93,1.16,1.16,0,0,0-.88-.3,1.47,1.47,0,0,0-.85.25,1.89,1.89,0,0,0-.57.68v4.14h-1V580h1Zm5.9,2.15a3.44,3.44,0,0,1,.34-1.53,2.47,2.47,0,0,1,.93-1.06,2.63,2.63,0,0,1,1.37-.37,2.48,2.48,0,0,1,1.92.82,3.17,3.17,0,0,1,.73,2.19v.07a3.47,3.47,0,0,1-.32,1.53,2.54,2.54,0,0,1-.93,1,2.56,2.56,0,0,1-1.39.38,2.51,2.51,0,0,1-1.92-.82,3.21,3.21,0,0,1-.73-2.18Zm1,.12a2.48,2.48,0,0,0,.45,1.55,1.53,1.53,0,0,0,2.41,0,2.81,2.81,0,0,0,.44-1.67,2.45,2.45,0,0,0-.45-1.54,1.46,1.46,0,0,0-1.21-.6,1.41,1.41,0,0,0-1.18.58A2.65,2.65,0,0,0,191.53,585.39Zm14.06,2.27a2.14,2.14,0,0,1-1.71.68,1.79,1.79,0,0,1-1.41-.54,2.34,2.34,0,0,1-.49-1.6v-3.78h1v3.75c0,.89.36,1.33,1.08,1.33a1.5,1.5,0,0,0,1.51-.85v-4.23h1v5.81h-.94Zm7-1a.71.71,0,0,0-.3-.62,3,3,0,0,0-1.06-.39,5.27,5.27,0,0,1-1.2-.39,1.77,1.77,0,0,1-.65-.53,1.31,1.31,0,0,1-.21-.74,1.51,1.51,0,0,1,.6-1.21,2.36,2.36,0,0,1,1.54-.5,2.45,2.45,0,0,1,1.61.51,1.63,1.63,0,0,1,.61,1.31h-1a.91.91,0,0,0-.34-.71,1.37,1.37,0,0,0-.88-.29,1.31,1.31,0,0,0-.84.24.71.71,0,0,0-.31.61.62.62,0,0,0,.28.55,3.66,3.66,0,0,0,1,.34,6.1,6.1,0,0,1,1.21.4,1.77,1.77,0,0,1,.68.56,1.36,1.36,0,0,1,.23.79,1.48,1.48,0,0,1-.63,1.25,2.61,2.61,0,0,1-1.61.47,2.86,2.86,0,0,1-1.24-.25,1.92,1.92,0,0,1-.84-.69,1.65,1.65,0,0,1-.3-1h1a1,1,0,0,0,.4.8,1.6,1.6,0,0,0,1,.29,1.62,1.62,0,0,0,.9-.23A.7.7,0,0,0,212.55,586.69Zm5.8,1.65a2.56,2.56,0,0,1-1.92-.77,2.88,2.88,0,0,1-.74-2.08v-.19a3.48,3.48,0,0,1,.33-1.54,2.58,2.58,0,0,1,.92-1.06,2.32,2.32,0,0,1,1.29-.39,2.18,2.18,0,0,1,1.76.75,3.23,3.23,0,0,1,.63,2.14v.41h-3.94a2.1,2.1,0,0,0,.5,1.39,1.6,1.6,0,0,0,1.23.53,1.68,1.68,0,0,0,.89-.22,2.29,2.29,0,0,0,.64-.57l.6.48A2.44,2.44,0,0,1,218.35,588.34Zm-.12-5.21a1.33,1.33,0,0,0-1,.44,2.17,2.17,0,0,0-.51,1.22h2.91v-.07a1.82,1.82,0,0,0-.4-1.17A1.26,1.26,0,0,0,218.23,583.13Zm8.21,2.14a3.44,3.44,0,0,1,.33-1.53,2.56,2.56,0,0,1,.94-1.06,2.6,2.6,0,0,1,1.37-.37,2.44,2.44,0,0,1,1.91.82,3.17,3.17,0,0,1,.74,2.19v.07a3.47,3.47,0,0,1-.33,1.53,2.4,2.4,0,0,1-.93,1,2.55,2.55,0,0,1-1.38.38,2.48,2.48,0,0,1-1.92-.82,3.16,3.16,0,0,1-.73-2.18Zm1,.12a2.54,2.54,0,0,0,.44,1.55,1.46,1.46,0,0,0,1.21.59,1.44,1.44,0,0,0,1.2-.59,2.74,2.74,0,0,0,.45-1.67,2.45,2.45,0,0,0-.46-1.54,1.51,1.51,0,0,0-2.39,0A2.71,2.71,0,0,0,227.44,585.39Zm10.22,2.27a2.11,2.11,0,0,1-1.7.68,1.82,1.82,0,0,1-1.42-.54,2.39,2.39,0,0,1-.49-1.6v-3.78h1v3.75c0,.89.36,1.33,1.07,1.33a1.5,1.5,0,0,0,1.52-.85v-4.23h1v5.81h-.95Zm6.39-4.35a3.58,3.58,0,0,0-.48,0,1.3,1.3,0,0,0-1.33.84v4.12h-1v-5.81h1l0,.67a1.54,1.54,0,0,1,1.38-.78,1,1,0,0,1,.44.08Zm9.44,4.92a1.82,1.82,0,0,1-.14-.61,2.21,2.21,0,0,1-1.65.72,2.09,2.09,0,0,1-1.42-.48,1.61,1.61,0,0,1-.54-1.24,1.65,1.65,0,0,1,.68-1.41,3.3,3.3,0,0,1,2-.5h1v-.46a1.11,1.11,0,0,0-.31-.83,1.28,1.28,0,0,0-.92-.31,1.45,1.45,0,0,0-.89.27.8.8,0,0,0-.36.65h-1a1.41,1.41,0,0,1,.31-.84,2.19,2.19,0,0,1,.84-.64,2.77,2.77,0,0,1,1.16-.24,2.29,2.29,0,0,1,1.58.51,1.81,1.81,0,0,1,.59,1.38v2.67a3.43,3.43,0,0,0,.2,1.28v.08Zm-1.65-.76a1.78,1.78,0,0,0,.89-.24,1.4,1.4,0,0,0,.6-.63v-1.19h-.78c-1.21,0-1.82.36-1.82,1.07a.89.89,0,0,0,.31.73A1.17,1.17,0,0,0,251.84,587.47Zm10-2.08a3.52,3.52,0,0,1-.6,2.14,2,2,0,0,1-1.65.81,2.11,2.11,0,0,1-1.66-.67v2.8h-1v-8.05h.91l.05.64a2.06,2.06,0,0,1,1.69-.75,2,2,0,0,1,1.65.79,3.51,3.51,0,0,1,.61,2.2Zm-1-.11a2.53,2.53,0,0,0-.42-1.55,1.35,1.35,0,0,0-1.15-.57,1.44,1.44,0,0,0-1.35.8v2.77a1.46,1.46,0,0,0,1.36.8,1.34,1.34,0,0,0,1.14-.57A2.81,2.81,0,0,0,260.9,585.28Zm8.27.11a3.46,3.46,0,0,1-.61,2.14,1.94,1.94,0,0,1-1.64.81,2.1,2.1,0,0,1-1.66-.67v2.8h-1v-8.05h.91l.05.64a2,2,0,0,1,1.68-.75,2,2,0,0,1,1.66.79,3.51,3.51,0,0,1,.61,2.2Zm-1-.11a2.53,2.53,0,0,0-.42-1.55,1.35,1.35,0,0,0-1.15-.57,1.44,1.44,0,0,0-1.35.8v2.77a1.46,1.46,0,0,0,1.36.8,1.32,1.32,0,0,0,1.13-.57A2.74,2.74,0,0,0,268.18,585.28Zm3.38,2.43a.64.64,0,0,1,.15-.43.6.6,0,0,1,.46-.17.59.59,0,0,1,.46.17.61.61,0,0,1,.17.43.55.55,0,0,1-.17.41.56.56,0,0,1-.46.17.57.57,0,0,1-.46-.17A.58.58,0,0,1,271.56,587.71Z" transform="translate(89.5 74.77)"/><path class="cls-6" d="M145,674.23H267.1a27.5,27.5,0,0,1,27.5,27.5h0a27.5,27.5,0,0,1-27.5,27.5H145a27.5,27.5,0,0,1-27.5-27.5h0A27.5,27.5,0,0,1,145,674.23Z" transform="translate(89.5 74.77)"/><path d="M151.2,694.38h2.61v10.08h6.66v2.27H151.2ZM168,707a4.47,4.47,0,0,1-3.42-1.21,6.87,6.87,0,0,1,0-7.49,4.5,4.5,0,0,1,3.42-1.2,3.94,3.94,0,0,1,3.15,1.22,5.59,5.59,0,0,1,1.05,3.73v.57H166a3.25,3.25,0,0,0,.5,1.88A1.9,1.9,0,0,0,168,705a1.75,1.75,0,0,0,1.24-.43,1.58,1.58,0,0,0,.48-1.23h2.44a3.21,3.21,0,0,1-1.16,2.69A4.9,4.9,0,0,1,168,707Zm1.64-6c0-1.31-.55-2-1.64-2a1.94,1.94,0,0,0-1.42.49,2.46,2.46,0,0,0-.58,1.48Zm8.43,6a3.65,3.65,0,0,1-2-.58,2.27,2.27,0,0,1-.92-2.09,2.64,2.64,0,0,1,1.5-2.57,9.28,9.28,0,0,1,4.23-.77v-.67a1.48,1.48,0,0,0-.29-1,1.28,1.28,0,0,0-1.05-.34,2.15,2.15,0,0,0-1.19.25.74.74,0,0,0-.34.59v.27h-2.37a3,3,0,0,1,0-.39,2.22,2.22,0,0,1,1-1.91,4.94,4.94,0,0,1,2.81-.72,4.46,4.46,0,0,1,2.9.79,2.78,2.78,0,0,1,1,2.29v4.17a.63.63,0,0,0,.18.49.73.73,0,0,0,.45.14h.51v1.73A3.22,3.22,0,0,1,183,707a2.23,2.23,0,0,1-1.24-.33,1.62,1.62,0,0,1-.66-.91H181a3.61,3.61,0,0,1-1.21.93A4.13,4.13,0,0,1,178.05,707Zm.78-2a1.91,1.91,0,0,0,1.53-.57,2.43,2.43,0,0,0,.49-1.57v-.29c-2.15,0-3.23.48-3.23,1.44a1,1,0,0,0,.29.72A1.37,1.37,0,0,0,178.83,705Zm8.85-7.74h2.11l.19,1.53h.13a3.37,3.37,0,0,1,.79-1.27,1.74,1.74,0,0,1,1.28-.47,2.54,2.54,0,0,1,.94.16v2.3h-.69a2.15,2.15,0,0,0-1.75.67,3,3,0,0,0-.53,2v4.57h-2.47Zm8.8,0h2.1l.18,1.25h.13a3.57,3.57,0,0,1,3-1.46,3.15,3.15,0,0,1,2.28.79,3.31,3.31,0,0,1,.85,2.54v6.35h-2.46V700.9a1.44,1.44,0,0,0-1.64-1.67,1.82,1.82,0,0,0-1.39.59,2,2,0,0,0-.54,1.44v5.47h-2.46ZM216,694.38h4.07l1.72,6.81c.14.51.33,1.44.58,2.79h.09c.22-1.41.38-2.34.5-2.79l1.73-6.81h3.89v12.35H226v-7.86c0-.35,0-1,.11-2H226l-.38,1.45-2.12,8.39H221l-2.12-8.39-.38-1.45h-.09c.07,1,.11,1.66.11,2v7.86H216ZM237.1,707a4.85,4.85,0,0,1-3.62-1.21,6.49,6.49,0,0,1,0-7.49,6,6,0,0,1,7.23,0,6.4,6.4,0,0,1,0,7.49A4.85,4.85,0,0,1,237.1,707Zm0-2a2.1,2.1,0,0,0,1.74-.68,3.43,3.43,0,0,0,.54-2.11v-.29a3.32,3.32,0,0,0-.54-2.08,2.5,2.5,0,0,0-3.49,0,3.39,3.39,0,0,0-.52,2.08v.29a3.51,3.51,0,0,0,.52,2.11A2.11,2.11,0,0,0,237.1,704.93Zm8.59-7.67h2.1l.2,1.53h.13a3.37,3.37,0,0,1,.79-1.27,1.73,1.73,0,0,1,1.28-.47,2.45,2.45,0,0,1,.93.16v2.3h-.68a2.13,2.13,0,0,0-1.75.67,3,3,0,0,0-.54,2v4.57h-2.46Zm12.7,9.69a4.46,4.46,0,0,1-3.42-1.21,6.82,6.82,0,0,1,0-7.49,4.49,4.49,0,0,1,3.42-1.2,3.94,3.94,0,0,1,3.15,1.22,5.65,5.65,0,0,1,1,3.73v.57h-6.22a3.25,3.25,0,0,0,.5,1.88,1.88,1.88,0,0,0,1.56.59,1.76,1.76,0,0,0,1.25-.43,1.58,1.58,0,0,0,.48-1.23h2.43a3.2,3.2,0,0,1-1.15,2.69A4.92,4.92,0,0,1,258.39,707Zm1.64-6c0-1.31-.55-2-1.64-2a1.94,1.94,0,0,0-1.42.49,2.4,2.4,0,0,0-.58,1.48Z" transform="translate(89.5 74.77)"/><g class="cls-7"><path class="cls-8" d="M166.82,138.18c-.08.38.78,1.63,1.61,2.77a.05.05,0,0,0,0,0c.83.23,3.38,1.3,3.73,1.44,0,0,0,0,0,.06l.81,2.5.08.26a.1.1,0,0,0,.19,0c2.48-8.8-.55-8.74-2.19-11.13a.09.09,0,0,0-.16,0l-.92,2.22a.1.1,0,0,1-.06.05C169.66,136.53,167,137.55,166.82,138.18Z" transform="translate(89.5 74.77)"/><path class="cls-9" d="M156.86,132.72a1,1,0,1,0-1-.95A.95.95,0,0,0,156.86,132.72Z" transform="translate(89.5 74.77)"/><path class="cls-9" d="M170.05,136.38l1-2.41a5.32,5.32,0,0,1-.6-1.42c-1.1-4.3-10.41-8-10.41-8-1.3-2.49-10.4-7.81-10.4-7.81S81.15,94,51.46,121.15c-5,.47-10.12,1.11-15.34,2,0,0-3.15.65-9.4-.65s-25,4-30.3,4-4.62,4.45-7.86,4.4-21.89,8.14-21.63,8.8,5.2.66,5.5,1.29-5.86,2.38-4.84,2.78,9.69-2.67,10.84-2.78.14,1.83.75,2.21,60.56-4.94,64.55-2.21,11.55,6.79,15,6.37,31.42,4.74,33,6.39,13.16-1.21,26.62-.06,49.58-12.64,49.93-12.7l.2,0c-.85-1.15-1.71-2.41-1.63-2.8C167,137.51,170.05,136.38,170.05,136.38Zm-11.47-4c-.67,1.1-3.07,1.59-3.9.74-.59-.61-1.29-3.14,1-3.14C156.74,130,159.89,130.21,158.58,132.38Z" transform="translate(89.5 74.77)"/><path class="cls-9" d="M166.45-31.75c-23.54-43.48-32.22-25.88-32.22-25.88l-.45,0c-.45,0-24.06-16.94-27.32-17.09S113-59,113-59,96.86-69.07,93.91-62.63,109.47-45,109.22-45.14s-22.36-11-23.72-5.69S97.71-36.44,97.71-36.44,83-44.14,82.35-37,103-19.41,103-19.41c-2.14,2.35.5,12.1.5,12.1-4,9,.75,15.14.75,15.14C102.76,12.37,106,17,106,17c-5.26,3.45-4,12.54-2.61,13.19S112,33,112,33s-7.71,4.5-13.26,5.95S90.29,52.72,88.8,53.5c-6,3.12-12.39,16.63-13.68,18.79-.12.2-.2.3-.23.3s-26.48,28.77-23.43,48.55c29.68-27.17,98.17-4.38,98.17-4.38-12.5-40.28,35-73.62,35-73.62S198.12,26.77,166.45-31.75Z" transform="translate(89.5 74.77)"/><path class="cls-8" d="M124,124.91c-6.15-4-22-24-22.89-30.73s2.13-6.21-.7-10.2c-4-5.59-18.29-9.88-25.25-11.69-.12.2-6.81-5.6-47.17-16.82-28.6-8-21.15-5.29-62.52-21.81-1.56-.62,9.66,7.66,21.84,13.14,17.54,7.9,35.63,13.86,9,6.25C-11.78,50.74-81.2,30.51-79,32.63c2,2,49.11,17,54,18.51l.32.08c.18.06.06,0-.32-.08-5.22-1.23-59.58-9.14-58.82-6.47.44,1.55,19.2,5.39,34,8.14C-42.09,54-35.49,55.12-33,55.65c3.36.71-5.61-.74-16.92-2.84-16.73-2.5-39.15-5.15-39.56-2.31l51.28,8s-1.65.64-10.5-.41-34.67-1.8-34.18.75,34.42,1.4,42.53,5.3S-5,77-5,77c-3.86,4.89,6.71,2.16,11.55,4.85s6.72,3.95,6.72,3.95a11.82,11.82,0,0,0,3.55,7.62c-.75,3.41,2.4,5.82,2.4,5.82.36,2.35,3.91,5.42,3.91,5.42-.05,3.78,4.2,5.52,4.2,5.52-.15,1.9,4.55,6.3,4.55,6.3-.35,1.75,4.2,6.6,4.2,6.6C83.69,115.36,124,124.91,124,124.91Z" transform="translate(89.5 74.77)"/></g></g></svg>