<svg id="Layer_1" data-name="Layer 1" xmlns="http://www.w3.org/2000/svg" viewBox="0 0 416.12 909.56"><defs><style>.cls-1{fill:#b5fbf2;}.cls-10,.cls-2,.cls-6{fill:#c4c4c4;}.cls-3{fill:#e95719;}.cls-4{fill:#fff;}.cls-5{fill:none;}.cls-6{fill-opacity:0.65;}.cls-7{fill:#b7a6ff;}.cls-8{fill:#ffebab;}.cls-9{fill:#9e005d;}.cls-10{fill-opacity:0.7;}.cls-11{fill:#e09eff;}.cls-12{fill:#454545;}</style></defs><rect class="cls-1" width="414" height="896"/><rect class="cls-2" width="414" height="896"/><path class="cls-3" d="M169.9,44.5V23.17h7.48a9.72,9.72,0,0,1,5.88,1.5,5,5,0,0,1,2,4.35,4.87,4.87,0,0,1-.81,2.77,4.61,4.61,0,0,1-2.24,1.74,4.41,4.41,0,0,1,2.58,1.65,4.85,4.85,0,0,1,.95,3,5.63,5.63,0,0,1-2,4.66,8.86,8.86,0,0,1-5.59,1.61Zm4.4-9.29V41h3.76a3.62,3.62,0,0,0,2.42-.73,2.54,2.54,0,0,0,.88-2.05q0-2.94-3-3Zm0-3.1h3.25c2.22,0,3.33-.93,3.33-2.65a2.43,2.43,0,0,0-.85-2.08,4.36,4.36,0,0,0-2.65-.65H174.3ZM196.74,44.5h-4.4V23.17h4.4Zm15-7.81h-3.5V44.5h-4.4V23.17h7.93a8.92,8.92,0,0,1,5.83,1.69,5.8,5.8,0,0,1,2,4.76,6.57,6.57,0,0,1-.95,3.64,6.46,6.46,0,0,1-2.86,2.32l4.62,8.71v.21h-4.72Zm-3.5-3.56h3.54a3.69,3.69,0,0,0,2.57-.83,3.06,3.06,0,0,0,.91-2.33,3.17,3.17,0,0,0-.87-2.37,3.52,3.52,0,0,0-2.62-.87h-3.53ZM226,44.5V23.17h6.57a9.86,9.86,0,0,1,5,1.28,8.73,8.73,0,0,1,3.47,3.6,11.06,11.06,0,0,1,1.25,5.3v1a11.07,11.07,0,0,1-1.23,5.29,8.69,8.69,0,0,1-3.44,3.59,10.06,10.06,0,0,1-5,1.29Zm4.4-17.77V41h2.12a4.76,4.76,0,0,0,3.94-1.68,7.62,7.62,0,0,0,1.4-4.82V33.34a7.68,7.68,0,0,0-1.35-4.92,4.74,4.74,0,0,0-3.94-1.69Z" transform="translate(0 13.5)"/><path class="cls-4" d="M104.13,559.5H77l58,48Z" transform="translate(0 13.5)"/><rect class="cls-4" x="70" y="122" width="272" height="470" rx="20"/><rect class="cls-5" x="122.68" y="457" width="167.32" height="125" rx="10"/><path class="cls-6" d="M122,538H290V558.5a10,10,0,0,1-10,10H132a10,10,0,0,1-10-10Z" transform="translate(0 13.5)"/><path class="cls-4" d="M188,554.58H192v1.53h-5.95v-9.24H188Zm6.45,1.53v-9.24h3.23a4.15,4.15,0,0,1,2.55.65,2.18,2.18,0,0,1,.88,1.88,2.14,2.14,0,0,1-.35,1.2,2.06,2.06,0,0,1-1,.75,1.93,1.93,0,0,1,1.12.72,2.08,2.08,0,0,1,.41,1.32,2.44,2.44,0,0,1-.85,2,3.79,3.79,0,0,1-2.42.7Zm1.9-4v2.49H198a1.59,1.59,0,0,0,1-.32,1.11,1.11,0,0,0,.38-.89,1.16,1.16,0,0,0-1.31-1.28Zm0-1.35h1.41c1,0,1.44-.4,1.44-1.15a1,1,0,0,0-.37-.9,1.85,1.85,0,0,0-1.15-.28h-1.33Zm14.48-2.33H208v7.7h-1.91v-7.7h-2.79v-1.54h7.53Zm9.53,6.53a3.39,3.39,0,0,1-1.46,1,6.21,6.21,0,0,1-2.08.34,4.26,4.26,0,0,1-2.11-.52,3.59,3.59,0,0,1-1.4-1.53,5.45,5.45,0,0,1-.5-2.34v-.63a5.66,5.66,0,0,1,.47-2.39,3.46,3.46,0,0,1,1.34-1.55,3.89,3.89,0,0,1,2.07-.54,3.84,3.84,0,0,1,2.57.79,3.4,3.4,0,0,1,1.1,2.28h-1.86a1.8,1.8,0,0,0-.56-1.16,1.78,1.78,0,0,0-1.2-.37,1.68,1.68,0,0,0-1.48.73,3.78,3.78,0,0,0-.51,2.17v.59a3.61,3.61,0,0,0,.55,2.19,1.89,1.89,0,0,0,1.62.75,2.12,2.12,0,0,0,1.53-.46v-1.59H216.7v-1.41h3.64Zm10.42-3.24a5.58,5.58,0,0,1-.42,2.25,3.76,3.76,0,0,1-1.16,1.53l1.54,1.21-1.21,1.07-2-1.58a4,4,0,0,1-.7.06,3.82,3.82,0,0,1-2.05-.56,3.63,3.63,0,0,1-1.4-1.57,5.53,5.53,0,0,1-.5-2.36v-.46a5.5,5.5,0,0,1,.49-2.4,3.67,3.67,0,0,1,1.39-1.59,4.05,4.05,0,0,1,4.11,0,3.67,3.67,0,0,1,1.39,1.59,5.49,5.49,0,0,1,.49,2.39Zm-1.93-.42a3.86,3.86,0,0,0-.52-2.21,1.84,1.84,0,0,0-3,0,3.81,3.81,0,0,0-.53,2.19v.45a3.9,3.9,0,0,0,.52,2.19,1.7,1.7,0,0,0,1.5.78,1.68,1.68,0,0,0,1.47-.74,4,4,0,0,0,.52-2.2Z" transform="translate(0 13.5)"/><rect class="cls-5" x="122" y="325" width="167.32" height="113" rx="10"/><path class="cls-6" d="M122,396.94H290V414.5a10,10,0,0,1-10,10H132a10,10,0,0,1-10-10Z" transform="translate(0 13.5)"/><path class="cls-4" d="M192.2,414.45v-9.24h3.24a4.17,4.17,0,0,1,2.55.65,2.17,2.17,0,0,1,.87,1.88,2.14,2.14,0,0,1-.35,1.2,2,2,0,0,1-1,.76,2,2,0,0,1,1.12.71,2.14,2.14,0,0,1,.41,1.32,2.42,2.42,0,0,1-.85,2,3.84,3.84,0,0,1-2.43.7Zm1.91-4v2.49h1.63a1.53,1.53,0,0,0,1-.32,1.11,1.11,0,0,0,.38-.89c0-.84-.44-1.27-1.32-1.28Zm0-1.35h1.4c1,0,1.45-.4,1.45-1.15a1.06,1.06,0,0,0-.37-.9,1.94,1.94,0,0,0-1.15-.28h-1.33Zm9.6,3.84h4v1.53H201.8v-9.24h1.91Zm8.93-7.71,2.37,6.7,2.36-6.7h2.51v9.24H218v-2.53l.19-4.36-2.49,6.89h-1.31l-2.49-6.88.19,4.35v2.53h-1.9v-9.24Z" transform="translate(0 13.5)"/><rect class="cls-5" x="77" y="626" width="265" height="214"/><rect class="cls-2" x="2" y="13.5" width="414" height="896"/><path class="cls-3" d="M11.9,24.5V3.17h7.48a9.72,9.72,0,0,1,5.88,1.5,5,5,0,0,1,2,4.35,4.87,4.87,0,0,1-.81,2.77,4.61,4.61,0,0,1-2.24,1.74,4.41,4.41,0,0,1,2.58,1.65,4.85,4.85,0,0,1,.95,3.05,5.63,5.63,0,0,1-2,4.66A8.86,8.86,0,0,1,20.2,24.5Zm4.4-9.29V21h3.76a3.62,3.62,0,0,0,2.42-.73,2.54,2.54,0,0,0,.88-2q0-2.94-3-3Zm0-3.1h3.25c2.22,0,3.33-.93,3.33-2.65A2.43,2.43,0,0,0,22,7.38a4.36,4.36,0,0,0-2.65-.65H16.3ZM38.74,24.5h-4.4V3.17h4.4Zm15-7.81h-3.5V24.5h-4.4V3.17h7.93a8.92,8.92,0,0,1,5.83,1.69,5.8,5.8,0,0,1,2.05,4.76,6.57,6.57,0,0,1-1,3.64,6.46,6.46,0,0,1-2.86,2.32l4.62,8.71v.21H57.72Zm-3.5-3.56h3.54a3.69,3.69,0,0,0,2.57-.83A3.06,3.06,0,0,0,57.24,10a3.17,3.17,0,0,0-.87-2.37,3.52,3.52,0,0,0-2.62-.87H50.22ZM68,24.5V3.17h6.57a9.86,9.86,0,0,1,5,1.28A8.73,8.73,0,0,1,83,8.05a11.06,11.06,0,0,1,1.25,5.3v1a11.07,11.07,0,0,1-1.23,5.29,8.69,8.69,0,0,1-3.44,3.59,10.06,10.06,0,0,1-5,1.29Zm4.4-17.77V21H74.5a4.76,4.76,0,0,0,3.94-1.68,7.56,7.56,0,0,0,1.39-4.82V13.34a7.68,7.68,0,0,0-1.34-4.92,4.73,4.73,0,0,0-3.94-1.69Z" transform="translate(0 13.5)"/><rect class="cls-4" x="60" y="230" width="300" height="550" rx="20"/><rect class="cls-7" x="121.73" y="626" width="179.27" height="120" rx="10"/><path class="cls-6" d="M121,703.23H301V722.5a10,10,0,0,1-10,10H131a10,10,0,0,1-10-10Z" transform="translate(0 13.5)"/><path class="cls-4" d="M191.5,719.55h4.05v1.54h-6v-9.25h1.9Zm6.44,1.54v-9.25h3.24a4.24,4.24,0,0,1,2.55.65,2.21,2.21,0,0,1,.87,1.89,2.06,2.06,0,0,1-.35,1.2,2,2,0,0,1-1,.75,1.93,1.93,0,0,1,1.12.72,2.08,2.08,0,0,1,.41,1.32,2.44,2.44,0,0,1-.85,2,3.85,3.85,0,0,1-2.42.7Zm1.91-4v2.49h1.63a1.58,1.58,0,0,0,1.05-.31,1.12,1.12,0,0,0,.38-.89,1.16,1.16,0,0,0-1.32-1.29Zm0-1.34h1.41c1,0,1.44-.4,1.44-1.15a1.06,1.06,0,0,0-.37-.91,1.93,1.93,0,0,0-1.15-.27h-1.33Zm14.48-2.33h-2.84v7.7h-1.9v-7.7H206.8v-1.55h7.53Zm9.52,6.53a3.3,3.3,0,0,1-1.45,1,6.26,6.26,0,0,1-2.08.33,4.15,4.15,0,0,1-2.11-.52,3.56,3.56,0,0,1-1.4-1.52,5.52,5.52,0,0,1-.5-2.34v-.63a5.9,5.9,0,0,1,.46-2.4,3.51,3.51,0,0,1,1.35-1.54,4.44,4.44,0,0,1,4.64.24,3.35,3.35,0,0,1,1.09,2.28H222a1.83,1.83,0,0,0-.57-1.16,1.78,1.78,0,0,0-1.19-.37,1.7,1.7,0,0,0-1.48.73,3.8,3.8,0,0,0-.51,2.17v.59a3.64,3.64,0,0,0,.55,2.2,1.91,1.91,0,0,0,1.62.74,2.11,2.11,0,0,0,1.53-.46v-1.59h-1.73v-1.4h3.63Zm10.43-3.25a5.59,5.59,0,0,1-.42,2.26,3.89,3.89,0,0,1-1.16,1.53l1.54,1.2L233,722.74l-2-1.58a5.36,5.36,0,0,1-.7.05,3.81,3.81,0,0,1-2.05-.55,3.69,3.69,0,0,1-1.4-1.57,5.43,5.43,0,0,1-.5-2.37v-.45a5.5,5.5,0,0,1,.49-2.4,3.56,3.56,0,0,1,1.39-1.59,4.05,4.05,0,0,1,4.11,0,3.56,3.56,0,0,1,1.39,1.59,5.46,5.46,0,0,1,.49,2.39Zm-1.93-.41a3.86,3.86,0,0,0-.52-2.21,1.83,1.83,0,0,0-3,0,3.75,3.75,0,0,0-.53,2.18v.45a3.91,3.91,0,0,0,.52,2.2,1.7,1.7,0,0,0,1.5.78,1.67,1.67,0,0,0,1.47-.75,3.89,3.89,0,0,0,.52-2.19Z" transform="translate(0 13.5)"/><rect class="cls-8" x="121" y="442" width="179.27" height="120" rx="10"/><path class="cls-6" d="M121,519.23H301V538.5a10,10,0,0,1-10,10H131a10,10,0,0,1-10-10Z" transform="translate(0 13.5)"/><path class="cls-4" d="M196.16,537.09v-9.25h3.24a4.24,4.24,0,0,1,2.55.65,2.21,2.21,0,0,1,.87,1.89,2.14,2.14,0,0,1-.35,1.2,2.08,2.08,0,0,1-1,.75,1.94,1.94,0,0,1,1.11.72,2.08,2.08,0,0,1,.41,1.32,2.46,2.46,0,0,1-.84,2,3.9,3.9,0,0,1-2.43.7Zm1.9-4v2.49h1.63a1.58,1.58,0,0,0,1.05-.31,1.12,1.12,0,0,0,.38-.89,1.16,1.16,0,0,0-1.31-1.29Zm0-1.34h1.41c1,0,1.44-.4,1.44-1.15a1.06,1.06,0,0,0-.37-.91,1.91,1.91,0,0,0-1.14-.27h-1.34Zm9.6,3.83h4.05v1.54h-6v-9.25h1.9Zm8.93-7.71,2.38,6.71,2.36-6.71h2.5v9.25h-1.91v-2.53l.19-4.36-2.49,6.89h-1.31l-2.49-6.89.19,4.36v2.53h-1.9v-9.25Z" transform="translate(0 13.5)"/><rect class="cls-9" x="121.12" y="257" width="178.88" height="120" rx="10"/><path class="cls-10" d="M121,334.13H300.61V353.4a10,10,0,0,1-10,10H131a10,10,0,0,1-10-10Z" transform="translate(0 13.5)"/><path class="cls-4" d="M185.07,351.1a3.26,3.26,0,0,1-1.1,2.35,3.86,3.86,0,0,1-2.62.86,3.5,3.5,0,0,1-2.8-1.2,5,5,0,0,1-1-3.28v-.57a5.6,5.6,0,0,1,.47-2.35,3.46,3.46,0,0,1,1.34-1.55,3.7,3.7,0,0,1,2-.55,3.79,3.79,0,0,1,2.58.86,3.55,3.55,0,0,1,1.13,2.4h-1.91a1.92,1.92,0,0,0-.5-1.29,1.83,1.83,0,0,0-1.3-.41,1.62,1.62,0,0,0-1.43.69,3.84,3.84,0,0,0-.48,2.11v.7a4.12,4.12,0,0,0,.45,2.19,1.59,1.59,0,0,0,1.43.69,1.88,1.88,0,0,0,1.32-.4,1.83,1.83,0,0,0,.5-1.25Zm2.15-.42a4.09,4.09,0,0,1,.39-1.82,2.89,2.89,0,0,1,1.13-1.24,3.36,3.36,0,0,1,1.72-.44,3.12,3.12,0,0,1,2.27.86,3.38,3.38,0,0,1,1,2.31v.47a3.58,3.58,0,0,1-.88,2.53,3.41,3.41,0,0,1-4.74,0,3.63,3.63,0,0,1-.88-2.59Zm1.83.14a2.5,2.5,0,0,0,.37,1.49,1.32,1.32,0,0,0,2.09,0,2.81,2.81,0,0,0,.38-1.64,2.51,2.51,0,0,0-.38-1.48,1.22,1.22,0,0,0-1-.53,1.19,1.19,0,0,0-1,.53A2.77,2.77,0,0,0,189.05,350.82Zm9.57,1.12,1.28-4.63h1.92l-2.32,6.87h-1.75l-2.32-6.87h1.92Zm7.24,2.24H204v-6.87h1.84Zm-2-8.65a.9.9,0,0,1,.28-.67,1,1,0,0,1,.75-.27,1,1,0,0,1,.75.27.86.86,0,0,1,.28.67.9.9,0,0,1-.28.69,1,1,0,0,1-.75.27,1,1,0,0,1-.74-.27A.91.91,0,0,1,203.91,345.53Zm4.49,5.17a4.12,4.12,0,0,1,.71-2.56,2.35,2.35,0,0,1,2-1,2.08,2.08,0,0,1,1.65.75v-3.5h1.85v9.75h-1.66l-.09-.73a2.18,2.18,0,0,1-1.77.86,2.33,2.33,0,0,1-1.94-1A4.26,4.26,0,0,1,208.4,350.7Zm1.83.13a2.68,2.68,0,0,0,.34,1.48,1.09,1.09,0,0,0,1,.51,1.22,1.22,0,0,0,1.2-.72v-2.71a1.21,1.21,0,0,0-1.18-.71C210.67,348.68,210.23,349.39,210.23,350.83Zm10.64.13H217.3v-1.48h3.57Zm7.16,3.22h-1.84v-7.07l-2.19.68V346.3l3.83-1.38h.2Zm8.6-3.7a2.33,2.33,0,0,1-1.68.71,2.47,2.47,0,0,1-2-.84,3.33,3.33,0,0,1-.74-2.27,3.42,3.42,0,0,1,.4-1.66,2.81,2.81,0,0,1,1.11-1.18,3,3,0,0,1,1.6-.43,2.87,2.87,0,0,1,1.62.46,3,3,0,0,1,1.11,1.31,4.86,4.86,0,0,1,.4,2v.68a5.37,5.37,0,0,1-1.15,3.63,4.35,4.35,0,0,1-3.26,1.41h-.45v-1.53H234A2.35,2.35,0,0,0,236.63,350.48Zm-1.23-.69a1.27,1.27,0,0,0,.76-.23,1.5,1.5,0,0,0,.49-.55v-.76a2.61,2.61,0,0,0-.35-1.45,1.12,1.12,0,0,0-1-.51,1.06,1.06,0,0,0-.9.51,2.09,2.09,0,0,0-.36,1.26,2.16,2.16,0,0,0,.34,1.24A1.14,1.14,0,0,0,235.4,349.79Z" transform="translate(0 13.5)"/><path d="M80,132.71a4.05,4.05,0,0,1-1.36,2.89,4.79,4.79,0,0,1-3.22,1.06,4.31,4.31,0,0,1-3.45-1.47,6.11,6.11,0,0,1-1.25-4.05v-.69a6.79,6.79,0,0,1,.58-2.9,4.3,4.3,0,0,1,1.65-1.91,5.17,5.17,0,0,1,5.67.38A4.33,4.33,0,0,1,80,129H77.62a2.38,2.38,0,0,0-.62-1.59,2.26,2.26,0,0,0-1.6-.5,2,2,0,0,0-1.76.84,4.79,4.79,0,0,0-.59,2.61v.86a5.08,5.08,0,0,0,.55,2.69,2,2,0,0,0,1.77.85,2.28,2.28,0,0,0,1.61-.49,2.24,2.24,0,0,0,.62-1.54Zm2.63-.51a5.1,5.1,0,0,1,.49-2.25,3.59,3.59,0,0,1,1.39-1.52,4.08,4.08,0,0,1,2.12-.54,3.83,3.83,0,0,1,2.79,1,4.21,4.21,0,0,1,1.21,2.84v.58a4.42,4.42,0,0,1-1.08,3.12,4.2,4.2,0,0,1-5.84,0,4.51,4.51,0,0,1-1.09-3.18Zm2.26.16a3.09,3.09,0,0,0,.46,1.84,1.62,1.62,0,0,0,2.57,0,3.43,3.43,0,0,0,.46-2,3.09,3.09,0,0,0-.46-1.83,1.47,1.47,0,0,0-1.29-.65,1.44,1.44,0,0,0-1.28.65A3.4,3.4,0,0,0,84.84,132.36Zm13.49-2.2a6.31,6.31,0,0,0-.81-.06,1.66,1.66,0,0,0-1.68.87v5.53H93.58v-8.45h2.14l.06,1a2.09,2.09,0,0,1,1.88-1.16,2.24,2.24,0,0,1,.7.1Zm2.06,2a5.1,5.1,0,0,1,.49-2.25,3.59,3.59,0,0,1,1.39-1.52,4.08,4.08,0,0,1,2.12-.54,3.83,3.83,0,0,1,2.79,1,4.21,4.21,0,0,1,1.21,2.84v.58a4.42,4.42,0,0,1-1.08,3.12,4.2,4.2,0,0,1-5.84,0,4.51,4.51,0,0,1-1.09-3.18Zm2.26.16a3.09,3.09,0,0,0,.46,1.84,1.62,1.62,0,0,0,2.57,0,3.43,3.43,0,0,0,.46-2,3.09,3.09,0,0,0-.46-1.83,1.47,1.47,0,0,0-1.29-.65,1.44,1.44,0,0,0-1.28.65A3.4,3.4,0,0,0,102.65,132.36Zm10.82-4.31.07,1a3,3,0,0,1,2.43-1.13,2.44,2.44,0,0,1,2,.79,3.67,3.67,0,0,1,.67,2.36v5.46h-2.26v-5.41a1.47,1.47,0,0,0-.31-1,1.42,1.42,0,0,0-1-.32,1.56,1.56,0,0,0-1.43.81v6h-2.25v-8.45Zm13.39,8.45a2.44,2.44,0,0,1-.23-.76,2.71,2.71,0,0,1-2.13.92,3,3,0,0,1-2.06-.72,2.34,2.34,0,0,1-.82-1.82,2.41,2.41,0,0,1,1-2.06,4.88,4.88,0,0,1,2.88-.72h1v-.49a1.37,1.37,0,0,0-.31-.94,1.16,1.16,0,0,0-.94-.35,1.33,1.33,0,0,0-.9.28.94.94,0,0,0-.32.75h-2.26a2.21,2.21,0,0,1,.46-1.36,2.91,2.91,0,0,1,1.28-1,4.61,4.61,0,0,1,1.86-.36,3.63,3.63,0,0,1,2.47.79,2.7,2.7,0,0,1,.92,2.2v3.67a4.08,4.08,0,0,0,.34,1.82v.13ZM125,134.93a1.9,1.9,0,0,0,.92-.22,1.52,1.52,0,0,0,.63-.6v-1.45h-.85c-1.12,0-1.73.39-1.8,1.17V134a.92.92,0,0,0,.3.7A1.17,1.17,0,0,0,125,134.93Zm10.19-1.19,1.57-5.69h2.36l-2.85,8.45H134.1l-2.85-8.45h2.36Zm8.91,2.76h-2.27v-8.45h2.27Zm-2.4-10.64A1.11,1.11,0,0,1,142,125a1.5,1.5,0,0,1,1.85,0,1.11,1.11,0,0,1,.34.84,1.08,1.08,0,0,1-.35.84,1.26,1.26,0,0,1-.91.33,1.28,1.28,0,0,1-.92-.33A1.12,1.12,0,0,1,141.69,125.86Zm10.62,4.3a6.46,6.46,0,0,0-.82-.06,1.64,1.64,0,0,0-1.67.87v5.53h-2.26v-8.45h2.13l.06,1a2.11,2.11,0,0,1,1.89-1.16,2.28,2.28,0,0,1,.7.1Zm7.75,5.48a2.8,2.8,0,0,1-2.31,1,2.7,2.7,0,0,1-2.08-.78,3.39,3.39,0,0,1-.72-2.29v-5.54h2.26v5.46q0,1.32,1.2,1.32A1.65,1.65,0,0,0,160,134v-6h2.26v8.45h-2.12Zm10.07-1.48a.71.71,0,0,0-.41-.64,4.13,4.13,0,0,0-1.31-.43c-2-.43-3-1.28-3-2.57a2.31,2.31,0,0,1,.93-1.87,3.76,3.76,0,0,1,2.45-.76,4,4,0,0,1,2.57.76,2.38,2.38,0,0,1,1,2h-2.25a1.08,1.08,0,0,0-.32-.8,1.3,1.3,0,0,0-1-.32,1.34,1.34,0,0,0-.88.26.81.81,0,0,0-.32.65.71.71,0,0,0,.35.61,3.73,3.73,0,0,0,1.21.4,9.83,9.83,0,0,1,1.42.38,2.33,2.33,0,0,1,1.79,2.27,2.23,2.23,0,0,1-1,1.88,4.36,4.36,0,0,1-2.57.71,4.56,4.56,0,0,1-1.89-.38,3.25,3.25,0,0,1-1.29-1,2.45,2.45,0,0,1-.47-1.43h2.15a1.15,1.15,0,0,0,.44.92,1.74,1.74,0,0,0,1.11.32,1.67,1.67,0,0,0,1-.24A.77.77,0,0,0,170.13,134.16Zm10.49-1.95a5.1,5.1,0,0,1,.89-3.15,2.87,2.87,0,0,1,2.42-1.17,2.58,2.58,0,0,1,2,.92V124.5h2.27v12h-2l-.11-.9a2.67,2.67,0,0,1-2.17,1.06,2.86,2.86,0,0,1-2.4-1.18A5.25,5.25,0,0,1,180.62,132.21Zm2.26.17a3.41,3.41,0,0,0,.41,1.82,1.36,1.36,0,0,0,1.21.63A1.5,1.5,0,0,0,186,134v-3.34a1.48,1.48,0,0,0-1.46-.88C183.42,129.73,182.88,130.61,182.88,132.38ZM194,136.5h-2.26v-8.45H194Zm-2.4-10.64a1.11,1.11,0,0,1,.34-.84,1.5,1.5,0,0,1,1.85,0,1.11,1.11,0,0,1,.34.84,1.08,1.08,0,0,1-.35.84,1.26,1.26,0,0,1-.91.33,1.28,1.28,0,0,1-.92-.33A1.12,1.12,0,0,1,191.57,125.86Zm10.45,8.3a.71.71,0,0,0-.42-.64,4,4,0,0,0-1.31-.43c-2-.43-3-1.28-3-2.57a2.32,2.32,0,0,1,.94-1.87,3.73,3.73,0,0,1,2.44-.76,4,4,0,0,1,2.57.76,2.37,2.37,0,0,1,1,2h-2.26a1.07,1.07,0,0,0-.31-.8,1.33,1.33,0,0,0-1-.32,1.36,1.36,0,0,0-.88.26.8.8,0,0,0-.31.65.69.69,0,0,0,.35.61,3.75,3.75,0,0,0,1.2.4,9.48,9.48,0,0,1,1.42.38,2.32,2.32,0,0,1,1.79,2.27,2.23,2.23,0,0,1-1,1.88,4.31,4.31,0,0,1-2.56.71,4.52,4.52,0,0,1-1.89-.38,3.12,3.12,0,0,1-1.29-1,2.45,2.45,0,0,1-.47-1.43h2.14a1.16,1.16,0,0,0,.45.92,1.71,1.71,0,0,0,1.11.32,1.63,1.63,0,0,0,1-.24A.78.78,0,0,0,202,134.16Zm9.14,2.5a4.16,4.16,0,0,1-3-1.14,4.09,4.09,0,0,1-1.16-3v-.22a5.09,5.09,0,0,1,.49-2.28,3.59,3.59,0,0,1,1.39-1.54,3.87,3.87,0,0,1,2.06-.55,3.52,3.52,0,0,1,2.73,1.09,4.44,4.44,0,0,1,1,3.11V133h-5.38a2.14,2.14,0,0,0,.65,1.33,2,2,0,0,0,1.4.5,2.44,2.44,0,0,0,2-1l1.11,1.24a3.47,3.47,0,0,1-1.37,1.13A4.66,4.66,0,0,1,211.16,136.66Zm-.25-6.94a1.44,1.44,0,0,0-1.1.45,2.43,2.43,0,0,0-.53,1.3h3.14v-.18a1.66,1.66,0,0,0-.4-1.16A1.49,1.49,0,0,0,210.91,129.72Zm11.52,6.78a2.44,2.44,0,0,1-.23-.76,2.74,2.74,0,0,1-2.13.92,3,3,0,0,1-2.06-.72,2.31,2.31,0,0,1-.82-1.82,2.38,2.38,0,0,1,1-2.06,4.86,4.86,0,0,1,2.88-.72h1v-.49a1.37,1.37,0,0,0-.31-.94,1.18,1.18,0,0,0-.94-.35,1.33,1.33,0,0,0-.9.28.94.94,0,0,0-.32.75h-2.26a2.26,2.26,0,0,1,.45-1.36,2.94,2.94,0,0,1,1.29-1,4.61,4.61,0,0,1,1.86-.36,3.63,3.63,0,0,1,2.47.79,2.7,2.7,0,0,1,.92,2.2v3.67a4.08,4.08,0,0,0,.34,1.82v.13Zm-1.87-1.57a1.92,1.92,0,0,0,.92-.22,1.52,1.52,0,0,0,.63-.6v-1.45h-.85q-1.69,0-1.8,1.17V134a.92.92,0,0,0,.3.7A1.17,1.17,0,0,0,220.56,134.93Zm11.73-.77a.71.71,0,0,0-.42-.64,4.13,4.13,0,0,0-1.31-.43c-2-.43-3-1.28-3-2.57a2.31,2.31,0,0,1,.93-1.87,3.76,3.76,0,0,1,2.45-.76,4,4,0,0,1,2.57.76,2.39,2.39,0,0,1,1,2H232.2a1.07,1.07,0,0,0-.31-.8,1.34,1.34,0,0,0-1-.32,1.36,1.36,0,0,0-.88.26.8.8,0,0,0-.31.65.69.69,0,0,0,.35.61,3.75,3.75,0,0,0,1.2.4,9.48,9.48,0,0,1,1.42.38,2.33,2.33,0,0,1,1.79,2.27,2.23,2.23,0,0,1-1,1.88,4.33,4.33,0,0,1-2.56.71,4.52,4.52,0,0,1-1.89-.38,3.12,3.12,0,0,1-1.29-1,2.38,2.38,0,0,1-.47-1.43h2.14a1.18,1.18,0,0,0,.44.92,1.74,1.74,0,0,0,1.11.32,1.65,1.65,0,0,0,1-.24A.78.78,0,0,0,232.29,134.16Zm9.14,2.5a4.16,4.16,0,0,1-3-1.14,4.09,4.09,0,0,1-1.16-3v-.22a5.09,5.09,0,0,1,.49-2.28,3.59,3.59,0,0,1,1.39-1.54,3.85,3.85,0,0,1,2.06-.55,3.52,3.52,0,0,1,2.73,1.09,4.44,4.44,0,0,1,1,3.11V133h-5.38a2.14,2.14,0,0,0,.65,1.33,2,2,0,0,0,1.4.5,2.44,2.44,0,0,0,2-1l1.11,1.24a3.43,3.43,0,0,1-1.38,1.13A4.58,4.58,0,0,1,241.43,136.66Zm-.25-6.94a1.44,1.44,0,0,0-1.1.45,2.35,2.35,0,0,0-.53,1.3h3.14v-.18a1.66,1.66,0,0,0-.41-1.16A1.46,1.46,0,0,0,241.18,129.72Zm12.3,2.16a11.91,11.91,0,0,1,.48-3.41,9,9,0,0,1,1.41-2.86,5.25,5.25,0,0,1,2-1.73l.44,1.21A5.53,5.53,0,0,0,256,127.7a12.07,12.07,0,0,0-.64,4.13v.24a12.34,12.34,0,0,0,.63,4.14,5.54,5.54,0,0,0,1.79,2.65l-.44,1.19a5.19,5.19,0,0,1-2-1.68,8.76,8.76,0,0,1-1.4-2.78,12.5,12.5,0,0,1-.52-3.3Zm16.21.83a4.05,4.05,0,0,1-1.36,2.89,4.79,4.79,0,0,1-3.22,1.06,4.31,4.31,0,0,1-3.45-1.47,6.11,6.11,0,0,1-1.25-4.05v-.69a7,7,0,0,1,.58-2.9,4.36,4.36,0,0,1,1.65-1.91,5.17,5.17,0,0,1,5.67.38,4.33,4.33,0,0,1,1.39,3h-2.34a2.34,2.34,0,0,0-.62-1.59,2.26,2.26,0,0,0-1.6-.5,2,2,0,0,0-1.76.84,4.79,4.79,0,0,0-.59,2.61v.86a5.08,5.08,0,0,0,.55,2.69,2,2,0,0,0,1.77.85,2.33,2.33,0,0,0,1.62-.49,2.28,2.28,0,0,0,.61-1.54Zm12.48-1.64a7,7,0,0,1-.59,3,4.52,4.52,0,0,1-1.71,1.95,4.66,4.66,0,0,1-2.53.69,4.76,4.76,0,0,1-2.52-.68A4.58,4.58,0,0,1,273.1,134a6.7,6.7,0,0,1-.62-2.91v-.56a6.85,6.85,0,0,1,.6-2.95,4.51,4.51,0,0,1,1.71-2,5,5,0,0,1,5.06,0,4.39,4.39,0,0,1,1.71,2,6.69,6.69,0,0,1,.61,2.94Zm-2.38-.52a4.74,4.74,0,0,0-.64-2.71,2.25,2.25,0,0,0-3.64,0,4.64,4.64,0,0,0-.65,2.69v.55a4.81,4.81,0,0,0,.64,2.7,2.07,2.07,0,0,0,1.84,1,2,2,0,0,0,1.81-.92,4.72,4.72,0,0,0,.64-2.7Zm9.71,3.13,2.58-8.56h2.61l-4,11.38h-2.45l-3.94-11.38h2.6Zm10.36,2.82h-2.34V125.12h2.34Zm3.78,0V125.12h3.5a5.31,5.31,0,0,1,2.68.68,4.66,4.66,0,0,1,1.85,1.93,5.9,5.9,0,0,1,.67,2.82v.53a5.9,5.9,0,0,1-.66,2.82,4.58,4.58,0,0,1-1.84,1.91,5.32,5.32,0,0,1-2.68.69ZM306,127v7.6h1.14a2.56,2.56,0,0,0,2.1-.9,4.09,4.09,0,0,0,.74-2.57v-.6a4.12,4.12,0,0,0-.72-2.63,2.53,2.53,0,0,0-2.1-.9Zm13.91,5.52h-4.4v-1.82h4.4Zm8.8,4h-2.26v-8.7l-2.69.83V126.8l4.71-1.69h.24ZM339.28,132a2.86,2.86,0,0,1-2.07.87,3,3,0,0,1-2.41-1,4.14,4.14,0,0,1-.91-2.8,4.27,4.27,0,0,1,.49-2,3.62,3.62,0,0,1,1.36-1.46,3.77,3.77,0,0,1,2-.52,3.65,3.65,0,0,1,2,.56,3.69,3.69,0,0,1,1.36,1.62,5.76,5.76,0,0,1,.5,2.41v.84a6.62,6.62,0,0,1-1.42,4.47,5.34,5.34,0,0,1-4,1.73h-.55v-1.88h.5C338.05,134.63,339.11,133.71,339.28,132Zm-1.51-.86a1.56,1.56,0,0,0,.94-.28,1.94,1.94,0,0,0,.6-.68v-.93a3.12,3.12,0,0,0-.44-1.78,1.35,1.35,0,0,0-1.17-.63,1.32,1.32,0,0,0-1.12.62,2.66,2.66,0,0,0-.44,1.56,2.54,2.54,0,0,0,.43,1.53A1.37,1.37,0,0,0,337.77,131.09Zm11,1a11.29,11.29,0,0,1-.51,3.4,9.47,9.47,0,0,1-1.46,2.89,5.3,5.3,0,0,1-2,1.71l-.44-1.19a5.54,5.54,0,0,0,1.75-2.58,12,12,0,0,0,.67-4v-.41a12.33,12.33,0,0,0-.64-4.12,5.74,5.74,0,0,0-1.78-2.67l.44-1.19a5.17,5.17,0,0,1,2,1.67,8.77,8.77,0,0,1,1.46,2.82,11.28,11.28,0,0,1,.55,3.33ZM73.25,155.5H71v-8.45h2.27Zm-2.4-10.64a1.11,1.11,0,0,1,.34-.84A1.5,1.5,0,0,1,73,144a1.11,1.11,0,0,1,.34.84,1.08,1.08,0,0,1-.35.84,1.26,1.26,0,0,1-.91.33,1.28,1.28,0,0,1-.92-.33A1.12,1.12,0,0,1,70.85,144.86Zm10.45,8.3a.71.71,0,0,0-.42-.64,4.13,4.13,0,0,0-1.31-.43c-2-.43-3-1.28-3-2.57a2.31,2.31,0,0,1,.93-1.87,3.76,3.76,0,0,1,2.45-.76,4,4,0,0,1,2.57.76,2.39,2.39,0,0,1,1,2H81.21a1.07,1.07,0,0,0-.31-.8,1.34,1.34,0,0,0-1-.32,1.36,1.36,0,0,0-.88.26.81.81,0,0,0-.32.65.7.7,0,0,0,.36.61,3.75,3.75,0,0,0,1.2.4,9.48,9.48,0,0,1,1.42.38,2.33,2.33,0,0,1,1.79,2.27,2.23,2.23,0,0,1-1,1.88,4.33,4.33,0,0,1-2.56.71,4.52,4.52,0,0,1-1.89-.38,3.12,3.12,0,0,1-1.29-1,2.38,2.38,0,0,1-.47-1.43h2.14a1.18,1.18,0,0,0,.44.92,1.74,1.74,0,0,0,1.11.32,1.65,1.65,0,0,0,1-.24A.78.78,0,0,0,81.3,153.16ZM97,155.5a2.44,2.44,0,0,1-.22-.76,2.74,2.74,0,0,1-2.13.92,3,3,0,0,1-2.07-.72,2.33,2.33,0,0,1-.81-1.82,2.4,2.4,0,0,1,1-2.06,4.91,4.91,0,0,1,2.89-.72h1v-.49a1.41,1.41,0,0,0-.3-.94,1.19,1.19,0,0,0-1-.35,1.28,1.28,0,0,0-.89.28.91.91,0,0,0-.32.75H92a2.26,2.26,0,0,1,.45-1.36,2.91,2.91,0,0,1,1.28-1,4.61,4.61,0,0,1,1.86-.36,3.66,3.66,0,0,1,2.48.79,2.73,2.73,0,0,1,.92,2.2v3.67a4,4,0,0,0,.34,1.82v.13Zm-1.86-1.57a1.92,1.92,0,0,0,.92-.22,1.44,1.44,0,0,0,.62-.6v-1.45h-.84q-1.7,0-1.8,1.17V153a1,1,0,0,0,.29.7A1.18,1.18,0,0,0,95.17,153.93Zm9.22-6.88.07,1a3,3,0,0,1,2.43-1.13,2.43,2.43,0,0,1,2,.79,3.67,3.67,0,0,1,.67,2.36v5.46h-2.25v-5.41a1.47,1.47,0,0,0-.32-1,1.39,1.39,0,0,0-1-.32,1.54,1.54,0,0,0-1.43.81v6h-2.26v-8.45Zm16.46,8.45h-2.27v-8.45h2.27Zm-2.4-10.64a1.11,1.11,0,0,1,.34-.84,1.5,1.5,0,0,1,1.85,0,1.11,1.11,0,0,1,.34.84,1.08,1.08,0,0,1-.35.84,1.26,1.26,0,0,1-.91.33,1.32,1.32,0,0,1-.93-.33A1.15,1.15,0,0,1,118.45,144.86Zm7.94,2.19.08,1a3,3,0,0,1,2.43-1.13,2.45,2.45,0,0,1,2,.79,3.73,3.73,0,0,1,.67,2.36v5.46h-2.26v-5.41a1.47,1.47,0,0,0-.31-1,1.44,1.44,0,0,0-1-.32,1.55,1.55,0,0,0-1.43.81v6h-2.26v-8.45Zm9.11,8.45v-6.8h-1.26v-1.65h1.26v-.72a2.91,2.91,0,0,1,.82-2.21,3.17,3.17,0,0,1,2.28-.78,5.41,5.41,0,0,1,1.15.15l0,1.75a3.34,3.34,0,0,0-.69-.07c-.85,0-1.27.4-1.27,1.2v.68h1.68v1.65h-1.68v6.8Zm10.42.16a4.16,4.16,0,0,1-3-1.14,4.09,4.09,0,0,1-1.16-3v-.22a5.09,5.09,0,0,1,.49-2.28,3.59,3.59,0,0,1,1.39-1.54,3.85,3.85,0,0,1,2.06-.55A3.52,3.52,0,0,1,148.4,148a4.44,4.44,0,0,1,1,3.11V152H144a2.14,2.14,0,0,0,.65,1.33,2,2,0,0,0,1.4.5,2.44,2.44,0,0,0,2-1l1.11,1.24a3.47,3.47,0,0,1-1.37,1.13A4.66,4.66,0,0,1,145.92,155.66Zm-.25-6.94a1.44,1.44,0,0,0-1.1.45,2.43,2.43,0,0,0-.53,1.3h3.14v-.18a1.62,1.62,0,0,0-.41-1.16A1.45,1.45,0,0,0,145.67,148.72Zm10.13,5.12a1.49,1.49,0,0,0,1-.35,1.2,1.2,0,0,0,.41-.91h2.11a2.94,2.94,0,0,1-.46,1.58,3.2,3.2,0,0,1-1.27,1.11,4,4,0,0,1-1.77.39,3.7,3.7,0,0,1-2.86-1.15,4.62,4.62,0,0,1-1-3.19v-.15a4.49,4.49,0,0,1,1-3.12,3.63,3.63,0,0,1,2.85-1.16,3.53,3.53,0,0,1,2.54.91,3.18,3.18,0,0,1,1,2.4h-2.11a1.54,1.54,0,0,0-.41-1.07,1.52,1.52,0,0,0-2.23.17,3.39,3.39,0,0,0-.39,1.86v.23a3.47,3.47,0,0,0,.39,1.88A1.38,1.38,0,0,0,155.8,153.84Zm9.14-8.87v2.08h1.44v1.65h-1.44v4.22a1,1,0,0,0,.18.67.86.86,0,0,0,.68.21,3.4,3.4,0,0,0,.67-.06v1.71a4.55,4.55,0,0,1-1.37.21,2.16,2.16,0,0,1-2.42-2.4V148.7h-1.24v-1.65h1.24V145Zm6.68,10.53h-2.26v-8.45h2.26Zm-2.4-10.64a1.15,1.15,0,0,1,.34-.84,1.5,1.5,0,0,1,1.85,0,1.12,1.12,0,0,1,.35.84,1.09,1.09,0,0,1-.36.84,1.26,1.26,0,0,1-.91.33,1.28,1.28,0,0,1-.92-.33A1.12,1.12,0,0,1,169.22,144.86Zm5.52,6.34a5.09,5.09,0,0,1,.48-2.25,3.59,3.59,0,0,1,1.39-1.52,4.1,4.1,0,0,1,2.12-.54,3.83,3.83,0,0,1,2.79,1.05,4.17,4.17,0,0,1,1.21,2.84v.58a4.42,4.42,0,0,1-1.08,3.12,4.2,4.2,0,0,1-5.84,0,4.51,4.51,0,0,1-1.08-3.18Zm2.25.16a3.16,3.16,0,0,0,.46,1.84,1.5,1.5,0,0,0,1.29.64,1.51,1.51,0,0,0,1.29-.63,3.51,3.51,0,0,0,.46-2,3.17,3.17,0,0,0-.46-1.83,1.49,1.49,0,0,0-1.3-.65,1.45,1.45,0,0,0-1.28.65A3.48,3.48,0,0,0,177,151.36Zm13.81,3.28a2.83,2.83,0,0,1-2.31,1,2.69,2.69,0,0,1-2.08-.78,3.34,3.34,0,0,1-.73-2.29v-5.54h2.26v5.46q0,1.32,1.2,1.32a1.64,1.64,0,0,0,1.58-.8v-6H193v8.45h-2.13Zm10.07-1.48a.71.71,0,0,0-.42-.64,4.13,4.13,0,0,0-1.31-.43c-2-.43-3-1.28-3-2.57a2.31,2.31,0,0,1,.93-1.87,3.76,3.76,0,0,1,2.45-.76,4,4,0,0,1,2.57.76,2.37,2.37,0,0,1,1,2h-2.26a1.07,1.07,0,0,0-.31-.8,1.34,1.34,0,0,0-1-.32,1.36,1.36,0,0,0-.88.26.8.8,0,0,0-.31.65.69.69,0,0,0,.35.61,3.75,3.75,0,0,0,1.2.4,9.48,9.48,0,0,1,1.42.38,2.32,2.32,0,0,1,1.79,2.27,2.23,2.23,0,0,1-1,1.88,4.33,4.33,0,0,1-2.56.71,4.52,4.52,0,0,1-1.89-.38,3.12,3.12,0,0,1-1.29-1,2.45,2.45,0,0,1-.47-1.43H198a1.16,1.16,0,0,0,.45.92,1.69,1.69,0,0,0,1.1.32,1.65,1.65,0,0,0,1-.24A.75.75,0,0,0,200.87,153.16Zm10.49-1.95a5.1,5.1,0,0,1,.88-3.15,2.88,2.88,0,0,1,2.43-1.17,2.61,2.61,0,0,1,2,.92V143.5H219v12h-2l-.11-.9a2.66,2.66,0,0,1-2.17,1.06,2.85,2.85,0,0,1-2.39-1.18A5.25,5.25,0,0,1,211.36,151.21Zm2.25.17a3.31,3.31,0,0,0,.42,1.82,1.35,1.35,0,0,0,1.2.63,1.53,1.53,0,0,0,1.48-.88v-3.34a1.49,1.49,0,0,0-1.46-.88C214.16,148.73,213.61,149.61,213.61,151.38Zm11.1,4.12h-2.27v-8.45h2.27Zm-2.4-10.64a1.14,1.14,0,0,1,.33-.84,1.28,1.28,0,0,1,.93-.32,1.24,1.24,0,0,1,.92.32,1.18,1.18,0,0,1,0,1.68,1.28,1.28,0,0,1-.92.33,1.3,1.3,0,0,1-.92-.33A1.11,1.11,0,0,1,222.31,144.86Zm10.44,8.3a.71.71,0,0,0-.41-.64,4.12,4.12,0,0,0-1.32-.43c-2-.43-3-1.28-3-2.57a2.31,2.31,0,0,1,.93-1.87,3.73,3.73,0,0,1,2.44-.76,4,4,0,0,1,2.58.76,2.38,2.38,0,0,1,1,2h-2.25a1.08,1.08,0,0,0-.32-.8,1.3,1.3,0,0,0-1-.32,1.39,1.39,0,0,0-.89.26.83.83,0,0,0-.31.65.71.71,0,0,0,.35.61,3.73,3.73,0,0,0,1.21.4,9.83,9.83,0,0,1,1.42.38,2.33,2.33,0,0,1,1.79,2.27,2.23,2.23,0,0,1-1,1.88,4.36,4.36,0,0,1-2.57.71,4.52,4.52,0,0,1-1.89-.38,3.18,3.18,0,0,1-1.29-1,2.45,2.45,0,0,1-.47-1.43h2.14a1.16,1.16,0,0,0,.45.92,1.74,1.74,0,0,0,1.11.32,1.67,1.67,0,0,0,1-.24A.77.77,0,0,0,232.75,153.16Zm9.15,2.5a4.16,4.16,0,0,1-3-1.14,4.06,4.06,0,0,1-1.17-3v-.22a5.09,5.09,0,0,1,.5-2.28,3.53,3.53,0,0,1,1.39-1.54,3.85,3.85,0,0,1,2.06-.55,3.55,3.55,0,0,1,2.73,1.09,4.49,4.49,0,0,1,1,3.11V152H240a2.15,2.15,0,0,0,.66,1.33,2,2,0,0,0,1.4.5,2.44,2.44,0,0,0,2-1l1.11,1.24a3.43,3.43,0,0,1-1.38,1.13A4.64,4.64,0,0,1,241.9,155.66Zm-.26-6.94a1.42,1.42,0,0,0-1.09.45,2.28,2.28,0,0,0-.53,1.3h3.14v-.18a1.66,1.66,0,0,0-.41-1.16A1.47,1.47,0,0,0,241.64,148.72Zm11.52,6.78a2.44,2.44,0,0,1-.22-.76,2.75,2.75,0,0,1-2.14.92,3,3,0,0,1-2.06-.72,2.33,2.33,0,0,1-.81-1.82,2.4,2.4,0,0,1,1-2.06,4.9,4.9,0,0,1,2.88-.72h1v-.49a1.41,1.41,0,0,0-.3-.94,1.2,1.2,0,0,0-.95-.35,1.33,1.33,0,0,0-.9.28.94.94,0,0,0-.32.75h-2.25a2.26,2.26,0,0,1,.45-1.36,2.91,2.91,0,0,1,1.28-1,4.61,4.61,0,0,1,1.86-.36,3.66,3.66,0,0,1,2.48.79,2.73,2.73,0,0,1,.92,2.2v3.67a4.1,4.1,0,0,0,.33,1.82v.13Zm-1.87-1.57a1.93,1.93,0,0,0,.93-.22,1.44,1.44,0,0,0,.62-.6v-1.45H252c-1.13,0-1.73.39-1.81,1.17V153a1,1,0,0,0,.29.7A1.17,1.17,0,0,0,251.29,153.93Zm11.73-.77a.71.71,0,0,0-.41-.64,4.21,4.21,0,0,0-1.32-.43c-2-.43-3-1.28-3-2.57a2.31,2.31,0,0,1,.93-1.87,3.73,3.73,0,0,1,2.44-.76,4,4,0,0,1,2.57.76,2.37,2.37,0,0,1,1,2h-2.26a1.07,1.07,0,0,0-.31-.8,1.33,1.33,0,0,0-1-.32,1.38,1.38,0,0,0-.88.26.8.8,0,0,0-.31.65.71.71,0,0,0,.35.61,3.73,3.73,0,0,0,1.21.4,9.83,9.83,0,0,1,1.42.38,2.33,2.33,0,0,1,1.79,2.27,2.21,2.21,0,0,1-1,1.88,4.31,4.31,0,0,1-2.56.71,4.52,4.52,0,0,1-1.89-.38,3.12,3.12,0,0,1-1.29-1,2.45,2.45,0,0,1-.47-1.43h2.14a1.16,1.16,0,0,0,.45.92,1.71,1.71,0,0,0,1.11.32,1.61,1.61,0,0,0,1-.24A.75.75,0,0,0,263,153.16Zm9.15,2.5a4.16,4.16,0,0,1-3-1.14,4.06,4.06,0,0,1-1.17-3v-.22a5.23,5.23,0,0,1,.49-2.28,3.61,3.61,0,0,1,1.4-1.54,3.85,3.85,0,0,1,2.06-.55,3.52,3.52,0,0,1,2.72,1.09,4.44,4.44,0,0,1,1,3.11V152h-5.38a2.1,2.1,0,0,0,.66,1.33,2,2,0,0,0,1.4.5,2.47,2.47,0,0,0,2-1l1.1,1.24a3.33,3.33,0,0,1-1.37,1.13A4.64,4.64,0,0,1,272.17,155.66Zm-.26-6.94a1.42,1.42,0,0,0-1.09.45,2.36,2.36,0,0,0-.54,1.3h3.14v-.18a1.62,1.62,0,0,0-.4-1.16A1.47,1.47,0,0,0,271.91,148.72Zm15.72,5.12a1.49,1.49,0,0,0,1-.35,1.19,1.19,0,0,0,.4-.91h2.12a2.87,2.87,0,0,1-.47,1.58,3.17,3.17,0,0,1-1.26,1.11,4,4,0,0,1-1.77.39,3.7,3.7,0,0,1-2.86-1.15,4.57,4.57,0,0,1-1-3.19v-.15a4.53,4.53,0,0,1,1-3.12,3.67,3.67,0,0,1,2.86-1.16,3.53,3.53,0,0,1,2.54.91,3.18,3.18,0,0,1,1,2.4h-2.12a1.53,1.53,0,0,0-.4-1.07,1.38,1.38,0,0,0-1-.41,1.36,1.36,0,0,0-1.2.58,3.38,3.38,0,0,0-.4,1.86v.23a3.46,3.46,0,0,0,.4,1.88A1.38,1.38,0,0,0,287.63,153.84ZM299,155.5a2.73,2.73,0,0,1-.23-.76,2.71,2.71,0,0,1-2.13.92,3,3,0,0,1-2.06-.72,2.33,2.33,0,0,1-.81-1.82,2.4,2.4,0,0,1,1-2.06,4.88,4.88,0,0,1,2.88-.72h1v-.49a1.37,1.37,0,0,0-.31-.94,1.16,1.16,0,0,0-.94-.35,1.33,1.33,0,0,0-.9.28.94.94,0,0,0-.32.75h-2.26a2.21,2.21,0,0,1,.46-1.36,2.91,2.91,0,0,1,1.28-1,4.61,4.61,0,0,1,1.86-.36,3.63,3.63,0,0,1,2.47.79,2.7,2.7,0,0,1,.92,2.2v3.67a4.08,4.08,0,0,0,.34,1.82v.13Zm-1.87-1.57a1.9,1.9,0,0,0,.92-.22,1.47,1.47,0,0,0,.63-.6v-1.45h-.84c-1.13,0-1.74.39-1.81,1.17V153a.92.92,0,0,0,.3.7A1.17,1.17,0,0,0,297.09,153.93Zm12.21.71a2.83,2.83,0,0,1-2.31,1,2.69,2.69,0,0,1-2.08-.78,3.45,3.45,0,0,1-.73-2.29v-5.54h2.26v5.46q0,1.32,1.2,1.32a1.63,1.63,0,0,0,1.58-.8v-6h2.27v8.45h-2.13Zm10.07-1.48a.71.71,0,0,0-.41-.64,4.21,4.21,0,0,0-1.32-.43c-2-.43-3-1.28-3-2.57a2.31,2.31,0,0,1,.93-1.87,3.73,3.73,0,0,1,2.44-.76,4,4,0,0,1,2.57.76,2.37,2.37,0,0,1,1,2h-2.26a1.07,1.07,0,0,0-.31-.8,1.33,1.33,0,0,0-1-.32,1.36,1.36,0,0,0-.88.26.8.8,0,0,0-.31.65.71.71,0,0,0,.35.61,3.73,3.73,0,0,0,1.21.4,9.83,9.83,0,0,1,1.42.38,2.33,2.33,0,0,1,1.79,2.27,2.24,2.24,0,0,1-1,1.88,4.31,4.31,0,0,1-2.56.71,4.52,4.52,0,0,1-1.89-.38,3.12,3.12,0,0,1-1.29-1,2.45,2.45,0,0,1-.47-1.43h2.14a1.16,1.16,0,0,0,.45.92,1.71,1.71,0,0,0,1.11.32,1.61,1.61,0,0,0,1-.24A.75.75,0,0,0,319.37,153.16Zm9.15,2.5a4.16,4.16,0,0,1-3-1.14,4.06,4.06,0,0,1-1.17-3v-.22a5.23,5.23,0,0,1,.49-2.28,3.65,3.65,0,0,1,1.39-1.54,3.91,3.91,0,0,1,2.07-.55A3.52,3.52,0,0,1,331,148a4.44,4.44,0,0,1,1,3.11V152h-5.38a2.1,2.1,0,0,0,.66,1.33,2,2,0,0,0,1.4.5,2.42,2.42,0,0,0,2-1l1.11,1.24a3.33,3.33,0,0,1-1.37,1.13A4.64,4.64,0,0,1,328.52,155.66Zm-.26-6.94a1.42,1.42,0,0,0-1.09.45,2.36,2.36,0,0,0-.54,1.3h3.14v-.18a1.62,1.62,0,0,0-.4-1.16A1.47,1.47,0,0,0,328.26,148.72Zm6.27,2.49a5.16,5.16,0,0,1,.88-3.15,2.91,2.91,0,0,1,2.43-1.17,2.58,2.58,0,0,1,2,.92V143.5h2.27v12h-2l-.11-.9a2.67,2.67,0,0,1-2.17,1.06,2.86,2.86,0,0,1-2.4-1.18A5.25,5.25,0,0,1,334.53,151.21Zm2.26.17a3.41,3.41,0,0,0,.41,1.82,1.36,1.36,0,0,0,1.21.63,1.51,1.51,0,0,0,1.47-.88v-3.34a1.49,1.49,0,0,0-1.46-.88C337.33,148.73,336.79,149.61,336.79,151.38Zm-258.31,19a5.11,5.11,0,0,1-.86,3.17,2.88,2.88,0,0,1-2.42,1.14A2.66,2.66,0,0,1,73,173.6l-.1.9h-2v-12h2.25v4.3a2.62,2.62,0,0,1,2.06-.91A2.88,2.88,0,0,1,77.6,167a5.1,5.1,0,0,1,.88,3.2Zm-2.25-.16a3.34,3.34,0,0,0-.41-1.87,1.35,1.35,0,0,0-1.21-.59,1.5,1.5,0,0,0-1.49.88V172a1.52,1.52,0,0,0,1.5.89,1.4,1.4,0,0,0,1.44-1.08A5.54,5.54,0,0,0,76.23,170.19Zm8.32,1.11,1.56-5.25h2.42l-3.4,9.76-.19.45a2.56,2.56,0,0,1-2.5,1.65,3.55,3.55,0,0,1-1-.14v-1.72h.35a1.85,1.85,0,0,0,.95-.19,1.31,1.31,0,0,0,.5-.65l.27-.7-3-8.47H83Zm17,3.2a2.44,2.44,0,0,1-.22-.76,2.75,2.75,0,0,1-2.14.92,3,3,0,0,1-2.06-.72,2.33,2.33,0,0,1-.81-1.82,2.4,2.4,0,0,1,1-2.06,4.9,4.9,0,0,1,2.88-.72h1v-.49a1.41,1.41,0,0,0-.3-.94,1.2,1.2,0,0,0-.95-.35,1.33,1.33,0,0,0-.9.28.94.94,0,0,0-.32.75H96.46a2.26,2.26,0,0,1,.45-1.36,2.91,2.91,0,0,1,1.28-1,4.61,4.61,0,0,1,1.86-.36,3.66,3.66,0,0,1,2.48.79,2.73,2.73,0,0,1,.92,2.2v3.67a4.1,4.1,0,0,0,.33,1.82v.13Zm-1.86-1.57a1.92,1.92,0,0,0,.92-.22,1.44,1.44,0,0,0,.62-.6v-1.45h-.84c-1.13,0-1.73.39-1.81,1.17V172a1,1,0,0,0,.29.7A1.18,1.18,0,0,0,99.64,172.93Zm14.8-6.88.08,1a3,3,0,0,1,2.42-1.13,2.43,2.43,0,0,1,2,.79,3.67,3.67,0,0,1,.68,2.36v5.46h-2.26v-5.41a1.52,1.52,0,0,0-.31-1,1.44,1.44,0,0,0-1-.32,1.55,1.55,0,0,0-1.43.81v6h-2.26v-8.45Zm12.39,8.61a4.2,4.2,0,0,1-3-1.14,4.09,4.09,0,0,1-1.16-3v-.22a5.09,5.09,0,0,1,.49-2.28,3.65,3.65,0,0,1,1.39-1.54,3.91,3.91,0,0,1,2.07-.55A3.52,3.52,0,0,1,129.3,167a4.44,4.44,0,0,1,1,3.11V171h-5.38a2.1,2.1,0,0,0,.66,1.33,2,2,0,0,0,1.39.5,2.43,2.43,0,0,0,2-1l1.11,1.24a3.33,3.33,0,0,1-1.37,1.13A4.64,4.64,0,0,1,126.83,174.66Zm-.26-6.94a1.45,1.45,0,0,0-1.1.45,2.43,2.43,0,0,0-.53,1.3h3.14v-.18a1.66,1.66,0,0,0-.4-1.16A1.47,1.47,0,0,0,126.57,167.72Zm14,3.71,1.11-5.38h2.18l-2.15,8.45h-1.89l-1.61-5.32-1.6,5.32H134.7l-2.16-8.45h2.18l1.1,5.37,1.55-5.37H139Zm8.4,3.07h-2.26v-12h2.26Zm6.62-3.2,1.57-5.25h2.42l-3.4,9.76-.19.45a2.57,2.57,0,0,1-2.5,1.65,3.5,3.5,0,0,1-1-.14v-1.72h.35a1.85,1.85,0,0,0,.95-.19,1.31,1.31,0,0,0,.5-.65l.26-.7-3-8.47H154Zm11.71-1.09a5.16,5.16,0,0,1,.88-3.15,2.91,2.91,0,0,1,2.43-1.17,2.58,2.58,0,0,1,2,.92V162.5h2.27v12h-2l-.11-.9a2.67,2.67,0,0,1-2.17,1.06,2.86,2.86,0,0,1-2.4-1.18A5.25,5.25,0,0,1,167.27,170.21Zm2.26.17a3.41,3.41,0,0,0,.41,1.82,1.36,1.36,0,0,0,1.21.63,1.5,1.5,0,0,0,1.47-.88v-3.34a1.49,1.49,0,0,0-1.46-.88C170.07,167.73,169.53,168.61,169.53,170.38Zm11.09,4.12h-2.26v-8.45h2.26Zm-2.4-10.64a1.15,1.15,0,0,1,.34-.84,1.5,1.5,0,0,1,1.85,0,1.12,1.12,0,0,1,.35.84,1.09,1.09,0,0,1-.36.84,1.26,1.26,0,0,1-.91.33,1.28,1.28,0,0,1-.92-.33A1.12,1.12,0,0,1,178.22,163.86Zm10.45,8.3a.71.71,0,0,0-.42-.64,4.13,4.13,0,0,0-1.31-.43c-2-.43-3-1.28-3-2.57a2.32,2.32,0,0,1,.92-1.87,3.76,3.76,0,0,1,2.45-.76,4,4,0,0,1,2.57.76,2.37,2.37,0,0,1,1,2h-2.26a1.07,1.07,0,0,0-.31-.8,1.33,1.33,0,0,0-1-.32,1.36,1.36,0,0,0-.88.26.8.8,0,0,0-.31.65.69.69,0,0,0,.35.61,3.75,3.75,0,0,0,1.2.4,9.48,9.48,0,0,1,1.42.38,2.32,2.32,0,0,1,1.79,2.27,2.23,2.23,0,0,1-1,1.88,4.33,4.33,0,0,1-2.56.71,4.52,4.52,0,0,1-1.89-.38,3.12,3.12,0,0,1-1.29-1,2.45,2.45,0,0,1-.47-1.43h2.14a1.18,1.18,0,0,0,.44.92,1.74,1.74,0,0,0,1.11.32,1.65,1.65,0,0,0,1-.24A.78.78,0,0,0,188.67,172.16Zm8.77.68a1.5,1.5,0,0,0,1-.35,1.23,1.23,0,0,0,.4-.91H201a3,3,0,0,1-.47,1.58,3.2,3.2,0,0,1-1.27,1.11,4,4,0,0,1-1.76.39,3.7,3.7,0,0,1-2.86-1.15,4.58,4.58,0,0,1-1.05-3.19v-.15a4.54,4.54,0,0,1,1-3.12,3.63,3.63,0,0,1,2.85-1.16,3.5,3.5,0,0,1,2.54.91,3.18,3.18,0,0,1,1,2.4h-2.12a1.58,1.58,0,0,0-.4-1.07,1.4,1.4,0,0,0-1-.41,1.35,1.35,0,0,0-1.19.58,3.29,3.29,0,0,0-.4,1.86v.23a3.37,3.37,0,0,0,.4,1.88A1.37,1.37,0,0,0,197.44,172.84Zm6.08-2.64A5.09,5.09,0,0,1,204,168a3.59,3.59,0,0,1,1.39-1.52,4.1,4.1,0,0,1,2.12-.54,3.83,3.83,0,0,1,2.79,1.05,4.21,4.21,0,0,1,1.21,2.84v.58a4.42,4.42,0,0,1-1.08,3.12,4.2,4.2,0,0,1-5.84,0,4.51,4.51,0,0,1-1.08-3.18Zm2.25.16a3.09,3.09,0,0,0,.46,1.84,1.62,1.62,0,0,0,2.57,0,3.42,3.42,0,0,0,.47-2,3.09,3.09,0,0,0-.47-1.83,1.6,1.6,0,0,0-2.57,0A3.4,3.4,0,0,0,205.77,170.36Zm11.78,1.38,1.57-5.69h2.36l-2.85,8.45h-2.15l-2.86-8.45H216Zm10.31,2.92a4.16,4.16,0,0,1-3-1.14,4.09,4.09,0,0,1-1.16-3v-.22a5.09,5.09,0,0,1,.49-2.28,3.59,3.59,0,0,1,1.39-1.54,3.87,3.87,0,0,1,2.06-.55,3.52,3.52,0,0,1,2.73,1.09,4.44,4.44,0,0,1,1,3.11V171H226a2.14,2.14,0,0,0,.65,1.33,2,2,0,0,0,1.4.5,2.44,2.44,0,0,0,2-1l1.11,1.24a3.47,3.47,0,0,1-1.37,1.13A4.66,4.66,0,0,1,227.86,174.66Zm-.25-6.94a1.44,1.44,0,0,0-1.1.45,2.43,2.43,0,0,0-.53,1.3h3.14v-.18a1.66,1.66,0,0,0-.4-1.16A1.47,1.47,0,0,0,227.61,167.72Zm11.37.44a6.44,6.44,0,0,0-.81-.06,1.64,1.64,0,0,0-1.68.87v5.53h-2.26v-8.45h2.13l.07,1a2.09,2.09,0,0,1,1.88-1.16,2.28,2.28,0,0,1,.7.1Zm6.43,6.5a4.16,4.16,0,0,1-3-1.14,4.06,4.06,0,0,1-1.17-3v-.22a5.09,5.09,0,0,1,.5-2.28,3.53,3.53,0,0,1,1.39-1.54,3.85,3.85,0,0,1,2.06-.55,3.52,3.52,0,0,1,2.72,1.09,4.44,4.44,0,0,1,1,3.11V171H243.5a2.1,2.1,0,0,0,.66,1.33,2,2,0,0,0,1.4.5,2.44,2.44,0,0,0,2-1l1.11,1.24a3.43,3.43,0,0,1-1.38,1.13A4.64,4.64,0,0,1,245.41,174.66Zm-.26-6.94a1.42,1.42,0,0,0-1.09.45,2.36,2.36,0,0,0-.54,1.3h3.15v-.18a1.71,1.71,0,0,0-.41-1.16A1.47,1.47,0,0,0,245.15,167.72Zm6.27,2.49a5.16,5.16,0,0,1,.88-3.15,2.91,2.91,0,0,1,2.43-1.17,2.58,2.58,0,0,1,2,.92V162.5H259v12h-2l-.11-.9a2.67,2.67,0,0,1-2.17,1.06,2.86,2.86,0,0,1-2.4-1.18A5.25,5.25,0,0,1,251.42,170.21Zm2.26.17a3.41,3.41,0,0,0,.41,1.82,1.36,1.36,0,0,0,1.21.63,1.51,1.51,0,0,0,1.47-.88v-3.34a1.48,1.48,0,0,0-1.46-.88C254.22,167.73,253.68,168.61,253.68,170.38ZM74.38,191.84a1.49,1.49,0,0,0,1-.35,1.19,1.19,0,0,0,.4-.91h2.12a2.87,2.87,0,0,1-.47,1.58,3.17,3.17,0,0,1-1.26,1.11,4,4,0,0,1-1.77.39,3.7,3.7,0,0,1-2.86-1.15,4.57,4.57,0,0,1-1-3.19v-.15a4.53,4.53,0,0,1,1-3.12,3.67,3.67,0,0,1,2.86-1.16,3.53,3.53,0,0,1,2.54.91,3.18,3.18,0,0,1,1,2.4H75.8a1.53,1.53,0,0,0-.4-1.07,1.38,1.38,0,0,0-1-.41,1.36,1.36,0,0,0-1.2.58,3.38,3.38,0,0,0-.4,1.86v.23a3.46,3.46,0,0,0,.4,1.88A1.38,1.38,0,0,0,74.38,191.84Zm6.08-2.64a5.09,5.09,0,0,1,.48-2.25,3.65,3.65,0,0,1,1.39-1.52,4.1,4.1,0,0,1,2.12-.54,3.83,3.83,0,0,1,2.79,1.05,4.17,4.17,0,0,1,1.21,2.84l0,.58a4.38,4.38,0,0,1-1.09,3.12,4.19,4.19,0,0,1-5.83,0,4.47,4.47,0,0,1-1.09-3.18Zm2.26.16a3.16,3.16,0,0,0,.45,1.84,1.63,1.63,0,0,0,2.58,0,3.43,3.43,0,0,0,.46-2,3.09,3.09,0,0,0-.46-1.83,1.49,1.49,0,0,0-1.3-.65,1.45,1.45,0,0,0-1.28.65A3.48,3.48,0,0,0,82.72,189.36Zm13.49-2.2a6.44,6.44,0,0,0-.81-.06,1.64,1.64,0,0,0-1.68.87v5.53H91.46v-8.45h2.13l.06,1a2.11,2.11,0,0,1,1.89-1.16,2.28,2.28,0,0,1,.7.1Zm2.06,2a5.09,5.09,0,0,1,.48-2.25,3.65,3.65,0,0,1,1.39-1.52,4.1,4.1,0,0,1,2.12-.54,3.83,3.83,0,0,1,2.79,1.05,4.17,4.17,0,0,1,1.21,2.84l0,.58a4.38,4.38,0,0,1-1.09,3.12,3.74,3.74,0,0,1-2.91,1.18,3.8,3.8,0,0,1-2.93-1.18,4.51,4.51,0,0,1-1.08-3.18Zm2.26.16a3.16,3.16,0,0,0,.45,1.84,1.63,1.63,0,0,0,2.58,0,3.51,3.51,0,0,0,.46-2,3.17,3.17,0,0,0-.46-1.83,1.49,1.49,0,0,0-1.3-.65,1.45,1.45,0,0,0-1.28.65A3.48,3.48,0,0,0,100.53,189.36Zm10.82-4.31.07,1a3,3,0,0,1,2.43-1.13,2.45,2.45,0,0,1,2,.79,3.73,3.73,0,0,1,.67,2.36v5.46h-2.26v-5.41a1.52,1.52,0,0,0-.31-1,1.44,1.44,0,0,0-1-.32,1.55,1.55,0,0,0-1.43.81v6h-2.26v-8.45Zm13.38,8.45a2.75,2.75,0,0,1-.22-.76,2.74,2.74,0,0,1-2.13.92,3,3,0,0,1-2.07-.72,2.33,2.33,0,0,1-.81-1.82,2.4,2.4,0,0,1,1-2.06,4.91,4.91,0,0,1,2.89-.72h1v-.49a1.41,1.41,0,0,0-.3-.94,1.19,1.19,0,0,0-1-.35,1.28,1.28,0,0,0-.89.28.92.92,0,0,0-.33.75h-2.25a2.26,2.26,0,0,1,.45-1.36,2.91,2.91,0,0,1,1.28-1,4.61,4.61,0,0,1,1.86-.36,3.66,3.66,0,0,1,2.48.79,2.73,2.73,0,0,1,.92,2.2v3.67a4,4,0,0,0,.34,1.82v.13Zm-1.86-1.57a1.92,1.92,0,0,0,.92-.22,1.44,1.44,0,0,0,.62-.6v-1.45h-.84q-1.69,0-1.8,1.17V191a.92.92,0,0,0,.3.7A1.13,1.13,0,0,0,122.87,191.93Zm10.18-1.19,1.57-5.69H137l-2.85,8.45H132l-2.86-8.45h2.36ZM142,193.5H139.7v-8.45H142Zm-2.4-10.64a1.14,1.14,0,0,1,.33-.84,1.51,1.51,0,0,1,1.86,0,1.15,1.15,0,0,1,.34.84,1.12,1.12,0,0,1-.35.84,1.28,1.28,0,0,1-.92.33,1.3,1.3,0,0,1-.92-.33A1.11,1.11,0,0,1,139.57,182.86Zm10.61,4.3a6.31,6.31,0,0,0-.81-.06,1.66,1.66,0,0,0-1.68.87v5.53h-2.26v-8.45h2.14l.06,1a2.09,2.09,0,0,1,1.88-1.16,2.28,2.28,0,0,1,.7.1Zm7.76,5.48a2.83,2.83,0,0,1-2.31,1,2.69,2.69,0,0,1-2.08-.78,3.34,3.34,0,0,1-.73-2.29v-5.54h2.26v5.46q0,1.32,1.2,1.32a1.64,1.64,0,0,0,1.58-.8v-6h2.27v8.45H158ZM168,191.16a.71.71,0,0,0-.42-.64,4.13,4.13,0,0,0-1.31-.43c-2-.43-3-1.28-3-2.57a2.31,2.31,0,0,1,.93-1.87,3.71,3.71,0,0,1,2.44-.76,4,4,0,0,1,2.57.76,2.37,2.37,0,0,1,1,2h-2.26a1.07,1.07,0,0,0-.31-.8,1.33,1.33,0,0,0-1-.32,1.36,1.36,0,0,0-.88.26.8.8,0,0,0-.31.65.69.69,0,0,0,.35.61,3.75,3.75,0,0,0,1.2.4,9.48,9.48,0,0,1,1.42.38,2.32,2.32,0,0,1,1.79,2.27,2.23,2.23,0,0,1-1,1.88,4.31,4.31,0,0,1-2.56.71,4.52,4.52,0,0,1-1.89-.38,3.12,3.12,0,0,1-1.29-1,2.45,2.45,0,0,1-.47-1.43h2.14a1.16,1.16,0,0,0,.45.92,1.71,1.71,0,0,0,1.11.32,1.63,1.63,0,0,0,1-.24A.75.75,0,0,0,168,191.16Zm5.37,1.23a1.12,1.12,0,0,1,.36-.87,1.4,1.4,0,0,1,1.83,0,1.13,1.13,0,0,1,.37.87,1.15,1.15,0,0,1-.36.87,1.32,1.32,0,0,1-.93.33,1.31,1.31,0,0,1-.91-.33A1.15,1.15,0,0,1,173.38,192.39Z" transform="translate(0 13.5)"/><rect class="cls-11" y="85" width="414" height="35"/><path class="cls-12" d="M153.84,99.5h-2.93V93.41H145.2V99.5h-2.93V85.28h2.93V91h5.71V85.28h2.93Zm3.95-5.38a6.3,6.3,0,0,1,.6-2.8,4.41,4.41,0,0,1,1.74-1.91,5.08,5.08,0,0,1,2.64-.67,4.77,4.77,0,0,1,3.49,1.31,5.17,5.17,0,0,1,1.51,3.55l0,.72a5.57,5.57,0,0,1-1.35,3.91,5.29,5.29,0,0,1-7.3,0,5.65,5.65,0,0,1-1.35-4Zm2.82.2a4,4,0,0,0,.56,2.31,1.87,1.87,0,0,0,1.62.79,1.89,1.89,0,0,0,1.61-.78,4.38,4.38,0,0,0,.57-2.52,4,4,0,0,0-.57-2.29,1.89,1.89,0,0,0-1.63-.81,1.85,1.85,0,0,0-1.6.81A4.45,4.45,0,0,0,160.61,94.32Zm14.3-8v2.59h1.81V91h-1.81v5.28a1.26,1.26,0,0,0,.23.84,1.12,1.12,0,0,0,.86.25,4.15,4.15,0,0,0,.83-.07v2.14a5.85,5.85,0,0,1-1.71.25,2.69,2.69,0,0,1-3-3V91h-1.54V88.93h1.54V86.34Zm15.74,0v2.59h1.81V91h-1.81v5.28a1.26,1.26,0,0,0,.23.84,1.09,1.09,0,0,0,.85.25,4.08,4.08,0,0,0,.83-.07v2.14a5.75,5.75,0,0,1-1.71.25c-2,0-3-1-3-3V91h-1.54V88.93h1.54V86.34Zm4.65,7.78a6.3,6.3,0,0,1,.6-2.8,4.48,4.48,0,0,1,1.74-1.91,5.12,5.12,0,0,1,2.65-.67,4.75,4.75,0,0,1,3.48,1.31,5.23,5.23,0,0,1,1.52,3.55l0,.72A5.57,5.57,0,0,1,204,98.23a5.29,5.29,0,0,1-7.3,0,5.65,5.65,0,0,1-1.35-4Zm2.82.2a3.94,3.94,0,0,0,.57,2.31,1.85,1.85,0,0,0,1.62.79,1.89,1.89,0,0,0,1.6-.78,4.38,4.38,0,0,0,.57-2.52,4,4,0,0,0-.57-2.29,1.89,1.89,0,0,0-1.62-.81,1.83,1.83,0,0,0-1.6.81A4.36,4.36,0,0,0,198.12,94.32Zm20.44,0a6.29,6.29,0,0,1-1.12,3.92,3.52,3.52,0,0,1-3,1.46,3.29,3.29,0,0,1-2.59-1.11v5H209V88.93h2.62l.1,1a3.32,3.32,0,0,1,2.68-1.23,3.57,3.57,0,0,1,3,1.44,6.48,6.48,0,0,1,1.09,4Zm-2.83-.2a4.18,4.18,0,0,0-.52-2.28,1.71,1.71,0,0,0-1.52-.8,1.84,1.84,0,0,0-1.82,1v4.33a1.88,1.88,0,0,0,1.84,1C215.06,97.42,215.73,96.32,215.73,94.11Zm9.56,5.39h-2.83V88.93h2.83Zm-3-13.3a1.42,1.42,0,0,1,.42-1,1.65,1.65,0,0,1,1.17-.41,1.62,1.62,0,0,1,1.15.41,1.4,1.4,0,0,1,.43,1,1.37,1.37,0,0,1-.44,1,1.8,1.8,0,0,1-2.29,0A1.37,1.37,0,0,1,222.29,86.2ZM234,97.42a1.84,1.84,0,0,0,1.27-.43,1.49,1.49,0,0,0,.51-1.14h2.65a3.72,3.72,0,0,1-.59,2,3.89,3.89,0,0,1-1.58,1.39,5,5,0,0,1-2.21.48,4.57,4.57,0,0,1-3.57-1.43,5.67,5.67,0,0,1-1.31-4v-.19a5.62,5.62,0,0,1,1.3-3.9,4.51,4.51,0,0,1,3.56-1.45,4.46,4.46,0,0,1,3.18,1.13,4,4,0,0,1,1.22,3H235.8a1.88,1.88,0,0,0-.51-1.33A1.71,1.71,0,0,0,234,91a1.69,1.69,0,0,0-1.49.73,4.16,4.16,0,0,0-.5,2.32v.29a4.25,4.25,0,0,0,.5,2.35A1.72,1.72,0,0,0,234,97.42Zm13.76-.84a.89.89,0,0,0-.52-.81,5.74,5.74,0,0,0-1.64-.54q-3.76-.78-3.77-3.2A2.89,2.89,0,0,1,243,89.69a4.67,4.67,0,0,1,3.06-1,5,5,0,0,1,3.21,1,3,3,0,0,1,1.21,2.46h-2.82a1.35,1.35,0,0,0-.39-1,1.63,1.63,0,0,0-1.22-.4,1.72,1.72,0,0,0-1.1.32,1,1,0,0,0-.39.82.85.85,0,0,0,.44.76,4.59,4.59,0,0,0,1.5.5,12.18,12.18,0,0,1,1.78.47,2.91,2.91,0,0,1,2.23,2.84,2.76,2.76,0,0,1-1.24,2.35,5.36,5.36,0,0,1-3.2.88,5.71,5.71,0,0,1-2.36-.46,4.14,4.14,0,0,1-1.62-1.3,3.06,3.06,0,0,1-.58-1.79h2.68a1.45,1.45,0,0,0,.55,1.15,2.21,2.21,0,0,0,1.39.4,2.05,2.05,0,0,0,1.22-.3A1,1,0,0,0,247.78,96.58Z" transform="translate(0 13.5)"/></svg>