<svg id="Layer_1" data-name="Layer 1" xmlns="http://www.w3.org/2000/svg" viewBox="0 0 192 128.53"><defs><style>.cls-1{fill:none;}.cls-2{fill:#f8ead2;}.cls-3{fill:#c4c4c4;fill-opacity:0.65;}.cls-4{fill:#fff;}</style></defs><rect class="cls-1" x="0.78" y="0.78" width="191.22" height="127.76" rx="7.77"/><rect class="cls-2" width="191.22" height="127.76" rx="7.77"/><path class="cls-3" d="M210,429.61H402V453a7.77,7.77,0,0,1-7.77,7.78H217.77A7.77,7.77,0,0,1,210,453Z" transform="translate(-210 -332.23)"/><path class="cls-4" d="M270.9,441.28h4.41a5.05,5.05,0,0,1,3.76,1.34,5.4,5.4,0,0,1,1.34,4,5.45,5.45,0,0,1-1.34,4,5.08,5.08,0,0,1-3.76,1.32H270.9Zm4.41,8.76a2.57,2.57,0,0,0,2.07-.83,3.5,3.5,0,0,0,.71-2.36v-.47a3.45,3.45,0,0,0-.71-2.34,2.55,2.55,0,0,0-2.07-.84h-2.16V450Zm12.06,2.1a4.17,4.17,0,0,1-3.12-1.05,5.58,5.58,0,0,1,0-6.46,5.2,5.2,0,0,1,6.24,0,5.49,5.49,0,0,1,0,6.46A4.17,4.17,0,0,1,287.37,452.14Zm0-1.75a1.8,1.8,0,0,0,1.51-.59,3,3,0,0,0,.46-1.82v-.24a2.93,2.93,0,0,0-.46-1.81,2.2,2.2,0,0,0-3,0,3,3,0,0,0-.45,1.81V448a3,3,0,0,0,.45,1.82A1.8,1.8,0,0,0,287.37,450.39Zm7.42-6.62h1.82l.16,1.07h.1a3.14,3.14,0,0,1,2.55-1.25,2.74,2.74,0,0,1,2,.68,2.88,2.88,0,0,1,.73,2.19V452H300v-5a1.25,1.25,0,0,0-1.42-1.44,1.57,1.57,0,0,0-1.19.51,1.76,1.76,0,0,0-.47,1.24V452h-2.13Zm12.94,8.37a3.23,3.23,0,0,1-1.74-.5,2,2,0,0,1-.79-1.81,2.3,2.3,0,0,1,1.29-2.22,8.16,8.16,0,0,1,3.65-.67v-.57a1.26,1.26,0,0,0-.25-.84,1.08,1.08,0,0,0-.9-.3,1.9,1.9,0,0,0-1,.22.65.65,0,0,0-.29.51v.24h-2.05a2.44,2.44,0,0,1,0-.34,1.91,1.91,0,0,1,.9-1.65,4.21,4.21,0,0,1,2.43-.62,3.83,3.83,0,0,1,2.5.68,2.4,2.4,0,0,1,.84,2v3.61a.51.51,0,0,0,.16.42.6.6,0,0,0,.38.12h.44v1.5a2.8,2.8,0,0,1-1.23.25,2,2,0,0,1-1.07-.28,1.45,1.45,0,0,1-.58-.8h-.09a3,3,0,0,1-1,.81A3.58,3.58,0,0,1,307.73,452.14Zm.67-1.68a1.64,1.64,0,0,0,1.32-.5,2.06,2.06,0,0,0,.42-1.35v-.25c-1.85,0-2.78.41-2.78,1.24a.79.79,0,0,0,.25.62A1.13,1.13,0,0,0,308.4,450.46Zm9.83,1.68a2,2,0,0,1-1.64-.63,2.42,2.42,0,0,1-.5-1.57v-4.43h-1v-1.74h1l.35-2.3h1.73v2.3h1.41v1.74h-1.41v4.22a.59.59,0,0,0,.67.66h.74v1.5a4.78,4.78,0,0,1-.66.17A4,4,0,0,1,318.23,452.14Zm4.53-11.43h2.13v2h-2.13Zm0,3.06h2.13V452h-2.13Zm9.53,8.37a4.17,4.17,0,0,1-3.12-1.05,5.58,5.58,0,0,1,0-6.46,5.22,5.22,0,0,1,6.25,0,5.54,5.54,0,0,1,0,6.46A4.21,4.21,0,0,1,332.29,452.14Zm0-1.75a1.78,1.78,0,0,0,1.51-.59,3,3,0,0,0,.47-1.82v-.24a2.92,2.92,0,0,0-.47-1.81,2.19,2.19,0,0,0-3,0,3,3,0,0,0-.46,1.81V448a3,3,0,0,0,.46,1.82A1.78,1.78,0,0,0,332.29,450.39Zm7.42-6.62h1.82l.16,1.07h.11a3.12,3.12,0,0,1,2.55-1.25,2.7,2.7,0,0,1,2,.68,2.88,2.88,0,0,1,.73,2.19V452h-2.13v-5a1.24,1.24,0,0,0-1.41-1.44,1.58,1.58,0,0,0-1.2.51,1.76,1.76,0,0,0-.47,1.24V452h-2.13Z" transform="translate(-210 -332.23)"/></svg>